%FSLAX25Y25*%
%MOIN*%
G70*
G01*
G75*
G04 Layer_Color=32896*
%ADD10C,0.00787*%
%ADD11C,0.01000*%
%ADD12C,0.05906*%
%ADD13R,0.05000X0.05000*%
%ADD14R,0.03543X0.03543*%
%ADD15R,0.05000X0.08000*%
%ADD16R,0.07000X0.07000*%
%ADD17R,0.13780X0.07000*%
%ADD18R,0.38400X0.48000*%
%ADD19R,0.11800X0.06300*%
%ADD20R,0.24400X0.22800*%
%ADD21R,0.07087X0.06693*%
%ADD22R,0.22047X0.09055*%
%ADD23R,0.05000X0.03600*%
%ADD24R,0.03600X0.03600*%
%ADD25R,0.05000X0.05000*%
%ADD26O,0.07600X0.02400*%
%ADD27R,0.07600X0.02400*%
%ADD28O,0.04724X0.02362*%
%ADD29R,0.04724X0.02362*%
%ADD30R,0.10000X0.10000*%
%ADD31R,0.01181X0.05512*%
%ADD32R,0.05512X0.01181*%
%ADD33R,0.07000X0.06000*%
%ADD34R,0.08661X0.05512*%
%ADD35O,0.02400X0.07600*%
%ADD36R,0.02400X0.07600*%
%ADD37R,0.03600X0.05000*%
%ADD38R,0.03600X0.03600*%
%ADD39R,0.06693X0.07087*%
%ADD40R,0.07000X0.07000*%
%ADD41R,0.03543X0.03543*%
%ADD42R,0.10000X0.10000*%
%ADD43R,0.05906X0.05906*%
%ADD44R,0.05906X0.05906*%
%ADD45C,0.00984*%
%ADD46C,0.01969*%
%ADD47C,0.05906*%
%ADD48C,0.03937*%
%ADD49C,0.01575*%
%ADD50C,0.00800*%
%ADD51C,0.08268*%
%ADD52C,0.08000*%
%ADD53C,0.25197*%
%ADD54C,0.07000*%
%ADD55C,0.07087*%
%ADD56R,0.07087X0.07087*%
%ADD57O,0.09843X0.07874*%
%ADD58C,0.05906*%
%ADD59C,0.09843*%
%ADD60C,0.07874*%
%ADD61R,0.07087X0.07087*%
%ADD62C,0.05000*%
%ADD63C,0.06000*%
%ADD64C,0.04331*%
%ADD65C,0.02000*%
%ADD66C,0.01600*%
%ADD67C,0.11811*%
%ADD68R,0.05800X0.05800*%
%ADD69R,0.04343X0.04343*%
%ADD70R,0.05800X0.08800*%
%ADD71R,0.07800X0.07800*%
%ADD72R,0.14579X0.07800*%
%ADD73R,0.39200X0.48800*%
%ADD74R,0.12600X0.07100*%
%ADD75R,0.25200X0.23600*%
%ADD76R,0.07887X0.07493*%
%ADD77R,0.22847X0.09855*%
%ADD78R,0.05800X0.04400*%
%ADD79R,0.04400X0.04400*%
%ADD80R,0.05800X0.05800*%
%ADD81O,0.08400X0.03200*%
%ADD82R,0.08400X0.03200*%
%ADD83O,0.05524X0.03162*%
%ADD84R,0.05524X0.03162*%
%ADD85R,0.10800X0.10800*%
%ADD86R,0.01981X0.06312*%
%ADD87R,0.06312X0.01981*%
%ADD88R,0.07800X0.06800*%
%ADD89R,0.09461X0.06312*%
%ADD90O,0.03200X0.08400*%
%ADD91R,0.03200X0.08400*%
%ADD92R,0.04400X0.05800*%
%ADD93R,0.04400X0.04400*%
%ADD94R,0.07493X0.07887*%
%ADD95R,0.07800X0.07800*%
%ADD96R,0.04343X0.04343*%
%ADD97R,0.10800X0.10800*%
%ADD98R,0.06706X0.06706*%
%ADD99R,0.11811X0.11811*%
%ADD100C,0.09068*%
%ADD101C,0.08800*%
%ADD102C,0.25997*%
%ADD103C,0.07800*%
%ADD104C,0.07887*%
%ADD105R,0.07887X0.07887*%
%ADD106O,0.10642X0.08674*%
%ADD107C,0.06706*%
%ADD108C,0.10642*%
%ADD109C,0.08674*%
%ADD110R,0.07887X0.07887*%
%ADD111C,0.05800*%
%ADD112C,0.06800*%
%ADD113C,0.05131*%
D10*
X157169Y359449D02*
G03*
X163468Y359449I3150J0D01*
G01*
X149295Y362598D02*
G03*
X152445Y359449I3150J0D01*
G01*
X168193Y359449D02*
G03*
X171342Y362598I0J3150D01*
G01*
X171342Y378346D02*
G03*
X168193Y381496I-3150J0D01*
G01*
X152445Y381496D02*
G03*
X149295Y378346I0J-3150D01*
G01*
X163468Y381496D02*
G03*
X157169Y381496I-3150J0D01*
G01*
X307169D02*
G03*
X300870Y381496I-3150J0D01*
G01*
X315043Y378346D02*
G03*
X311893Y381496I-3150J0D01*
G01*
X296145Y381496D02*
G03*
X292996Y378346I0J-3150D01*
G01*
X292996Y362598D02*
G03*
X296145Y359449I3150J0D01*
G01*
X311893Y359449D02*
G03*
X315043Y362598I0J3150D01*
G01*
X300870Y359449D02*
G03*
X307169Y359449I3150J0D01*
G01*
X32677Y71653D02*
G03*
X32677Y77953I0J3150D01*
G01*
X29528Y63779D02*
G03*
X32677Y66929I0J3150D01*
G01*
X32677Y82677D02*
G03*
X29528Y85827I-3150J0D01*
G01*
X13780Y85827D02*
G03*
X10630Y82677I0J-3150D01*
G01*
X10630Y66929D02*
G03*
X13780Y63779I3150J0D01*
G01*
X10630Y77953D02*
G03*
X10630Y71653I0J-3150D01*
G01*
Y322047D02*
G03*
X10630Y315748I0J-3150D01*
G01*
X13780Y329921D02*
G03*
X10630Y326772I0J-3150D01*
G01*
X10630Y311024D02*
G03*
X13780Y307874I3150J0D01*
G01*
X29528Y307874D02*
G03*
X32677Y311024I0J3150D01*
G01*
X32677Y326772D02*
G03*
X29528Y329921I-3150J0D01*
G01*
X32677Y315748D02*
G03*
X32677Y322047I0J3150D01*
G01*
X234646Y152362D02*
G03*
X229921Y152362I-2362J0D01*
G01*
X229921D02*
G03*
X225197Y152362I-2362J0D01*
G01*
X225197D02*
G03*
X220472Y152362I-2362J0D01*
G01*
X220472D02*
G03*
X215748Y152362I-2362J0D01*
G01*
Y192520D02*
G03*
X220472Y192520I2362J0D01*
G01*
X220472D02*
G03*
X225197Y192520I2362J0D01*
G01*
X225197D02*
G03*
X229921Y192520I2362J0D01*
G01*
X229921D02*
G03*
X234646Y192520I2362J0D01*
G01*
X149295Y362598D02*
Y378346D01*
X152445Y381496D02*
X157169D01*
Y381496D02*
Y381496D01*
X163468Y381496D02*
X168193D01*
X171342Y362598D02*
Y378346D01*
X152445Y359449D02*
X157169D01*
X163468Y359449D02*
X168193D01*
X163468D02*
Y359449D01*
X147327Y366535D02*
Y374409D01*
X141027Y382283D02*
X156775D01*
X141027Y358661D02*
X156775D01*
X145358Y366535D02*
X148901Y366535D01*
X145358Y374409D02*
X148901D01*
X171933Y366535D02*
X186697D01*
X172130Y374409D02*
X186697D01*
X164453Y358661D02*
X186697D01*
X164256Y382283D02*
X186697D01*
X145358Y366535D02*
Y374409D01*
X141027Y358661D02*
Y382283D01*
X126854Y354724D02*
Y386221D01*
X186697Y354724D02*
Y386221D01*
X126854Y354724D02*
X186697D01*
X126854Y386221D02*
X186697D01*
X142405Y376772D02*
X147327D01*
X145752Y378150D02*
X147327Y376772D01*
X145752Y375394D02*
X147327Y376772D01*
X145752Y365551D02*
X147327Y364173D01*
X145752Y362795D02*
X147327Y364173D01*
X142405D02*
X147327D01*
X315043Y362598D02*
Y378346D01*
X307169Y359449D02*
X311893D01*
X307169D02*
Y359449D01*
X296145D02*
X300870D01*
X292996Y362598D02*
Y378346D01*
X307169Y381496D02*
X311893D01*
X296145Y381496D02*
X300870D01*
Y381496D02*
Y381496D01*
X317011Y366535D02*
Y374409D01*
X307563Y358661D02*
X323311D01*
X307563Y382283D02*
X323311D01*
X315437Y374409D02*
X318980Y374409D01*
X315437Y366535D02*
X318980D01*
X277641Y374409D02*
X292405D01*
X277641Y366535D02*
X292208D01*
X277641Y382283D02*
X299886D01*
X277641Y358661D02*
X300082D01*
X318980Y366535D02*
Y374409D01*
X323311Y358661D02*
Y382283D01*
X337484Y354724D02*
Y386221D01*
X277641Y354724D02*
Y386221D01*
X337484D01*
X277641Y354724D02*
X337484D01*
X317011Y364173D02*
X321933D01*
X317011D02*
X318586Y362795D01*
X317011Y364173D02*
X318586Y365551D01*
X317011Y376772D02*
X318586Y375394D01*
X317011Y376772D02*
X318586Y378150D01*
X317011Y376772D02*
X321933D01*
X13780Y63779D02*
X29528D01*
X10630Y66929D02*
Y71653D01*
X10630D01*
Y77953D02*
Y82677D01*
X13780Y85827D02*
X29528D01*
X32677Y66929D02*
Y71653D01*
X32677Y77953D02*
Y82677D01*
X32677Y77953D02*
X32677D01*
X17717Y61811D02*
X25591D01*
X9843Y55512D02*
Y71260D01*
X33465Y55512D02*
Y71260D01*
X25591Y59842D02*
X25591Y63386D01*
X17717Y59842D02*
Y63386D01*
X25591Y86417D02*
Y101181D01*
X17717Y86614D02*
Y101181D01*
X33465Y78937D02*
Y101181D01*
X9843Y78740D02*
Y101181D01*
X17717Y59842D02*
X25591D01*
X9843Y55512D02*
X33465D01*
X5906Y41339D02*
X37402D01*
X5906Y101181D02*
X37402D01*
Y41339D02*
Y101181D01*
X5906Y41339D02*
Y101181D01*
X15354Y56890D02*
Y61811D01*
X13976Y60236D02*
X15354Y61811D01*
X16732Y60236D01*
X26575D02*
X27953Y61811D01*
X29331Y60236D01*
X27953Y56890D02*
Y61811D01*
X13780Y329921D02*
X29528D01*
X32677Y322047D02*
Y326772D01*
X32677Y322047D02*
X32677D01*
X32677Y311024D02*
Y315748D01*
X13780Y307874D02*
X29528D01*
X10630Y322047D02*
Y326772D01*
X10630Y311024D02*
Y315748D01*
X10630D01*
X17717Y331890D02*
X25591D01*
X33465Y322441D02*
Y338189D01*
X9843Y322441D02*
Y338189D01*
X17717Y330315D02*
X17717Y333858D01*
X25591Y330315D02*
Y333858D01*
X17717Y292520D02*
Y307283D01*
X25591Y292520D02*
Y307087D01*
X9843Y292520D02*
Y314764D01*
X33465Y292520D02*
Y314961D01*
X17717Y333858D02*
X25591D01*
X9843Y338189D02*
X33465D01*
X5906Y352362D02*
X37402D01*
X5906Y292520D02*
X37402D01*
X5906D02*
Y352362D01*
X37402Y292520D02*
Y352362D01*
X27953Y331890D02*
Y336811D01*
Y331890D02*
X29331Y333465D01*
X26575D02*
X27953Y331890D01*
X15354D02*
X16732Y333465D01*
X13976D02*
X15354Y331890D01*
Y336811D01*
X272011Y351791D02*
Y367146D01*
X192011Y351791D02*
Y367146D01*
Y351791D02*
X272011D01*
X317011Y367146D02*
Y373622D01*
X147327Y367146D02*
X317011D01*
X147327D02*
Y373622D01*
X317011D01*
X39744Y111894D02*
X45453D01*
X56870D02*
X62579D01*
X39744Y1657D02*
Y111894D01*
Y1657D02*
X62579D01*
Y111894D01*
X385244Y148394D02*
X390953D01*
X402370D02*
X408079D01*
X385244Y38157D02*
Y148394D01*
Y38157D02*
X408079D01*
Y148394D01*
X25000Y237244D02*
X34843D01*
X25000Y157244D02*
X34843D01*
Y237244D01*
X18524Y332283D02*
X25000D01*
Y62205D02*
Y332283D01*
X18524Y62205D02*
X25000D01*
X18524D02*
Y332283D01*
X234646Y152362D02*
X238976D01*
X211417D02*
X215748D01*
X211417Y192520D02*
X215748D01*
X234646D02*
X238976D01*
X250394Y137402D02*
Y207480D01*
X200000Y137402D02*
X250394D01*
X200000D02*
Y207480D01*
X250394D01*
X53697Y329526D02*
X55009D01*
X54352D01*
Y326247D01*
X55009Y325590D01*
X55664D01*
X56320Y326247D01*
X52385D02*
X51729Y325590D01*
X50417D01*
X49761Y326247D01*
Y328870D01*
X50417Y329526D01*
X51729D01*
X52385Y328870D01*
Y328214D01*
X51729Y327558D01*
X49761D01*
X395408Y344093D02*
X396720D01*
X396064D01*
Y340813D01*
X396720Y340158D01*
X397375D01*
X398031Y340813D01*
X394096Y343437D02*
X393440Y344093D01*
X392128D01*
X391472Y343437D01*
Y342781D01*
X392128Y342125D01*
X391472Y341469D01*
Y340813D01*
X392128Y340158D01*
X393440D01*
X394096Y340813D01*
Y341469D01*
X393440Y342125D01*
X394096Y342781D01*
Y343437D01*
X393440Y342125D02*
X392128D01*
X163912Y211547D02*
X164568Y212204D01*
X165879D01*
X166535Y211547D01*
Y208924D01*
X165879Y208268D01*
X164568D01*
X163912Y208924D01*
X162600Y208268D02*
X161288D01*
X161944D01*
Y212204D01*
X162600Y211547D01*
X159320Y210892D02*
Y208924D01*
X158664Y208268D01*
X156696D01*
Y210892D01*
X80447Y387007D02*
X81759D01*
X81103D01*
Y383727D01*
X81759Y383071D01*
X82415D01*
X83071Y383727D01*
X79135Y383071D02*
X77823D01*
X78479D01*
Y387007D01*
X79135Y386351D01*
X73232Y385695D02*
X75199D01*
X75855Y385039D01*
Y383727D01*
X75199Y383071D01*
X73232D01*
X371786Y211416D02*
X373097D01*
X372442D01*
Y208136D01*
X373097Y207480D01*
X373753D01*
X374410Y208136D01*
X368506Y207480D02*
Y211416D01*
X370474Y209448D01*
X367850D01*
X330447Y314959D02*
X331759D01*
X331103D01*
Y311680D01*
X331759Y311024D01*
X332415D01*
X333071Y311680D01*
X326511Y314959D02*
X329135D01*
Y312991D01*
X327823Y313647D01*
X327167D01*
X326511Y312991D01*
Y311680D01*
X327167Y311024D01*
X328479D01*
X329135Y311680D01*
X322576Y313647D02*
X324543D01*
X325199Y312991D01*
Y311680D01*
X324543Y311024D01*
X322576D01*
X346195Y292518D02*
X347507D01*
X346851D01*
Y289239D01*
X347507Y288583D01*
X348163D01*
X348819Y289239D01*
X342259Y292518D02*
X344883D01*
Y290550D01*
X343571Y291207D01*
X342915D01*
X342259Y290550D01*
Y289239D01*
X342915Y288583D01*
X344227D01*
X344883Y289239D01*
X312731Y339369D02*
X314042D01*
X313387D01*
Y336089D01*
X314042Y335433D01*
X314698D01*
X315354Y336089D01*
X311419Y338713D02*
X310763Y339369D01*
X309451D01*
X308795Y338713D01*
Y338057D01*
X309451Y337401D01*
X310107D01*
X309451D01*
X308795Y336745D01*
Y336089D01*
X309451Y335433D01*
X310763D01*
X311419Y336089D01*
X304859Y338057D02*
X306827D01*
X307483Y337401D01*
Y336089D01*
X306827Y335433D01*
X304859D01*
X68636Y144093D02*
X69948D01*
X69292D01*
Y140813D01*
X69948Y140157D01*
X70604D01*
X71260Y140813D01*
X64700Y144093D02*
X66012Y143437D01*
X67324Y142125D01*
Y140813D01*
X66668Y140157D01*
X65356D01*
X64700Y140813D01*
Y141469D01*
X65356Y142125D01*
X67324D01*
X343045Y106298D02*
X344357D01*
X343701D01*
Y103018D01*
X344357Y102362D01*
X345013D01*
X345669Y103018D01*
X341734Y106298D02*
X339110D01*
Y105642D01*
X341734Y103018D01*
Y102362D01*
X234252Y213778D02*
Y209842D01*
X231628D01*
X230316D02*
X229004D01*
X229660D01*
Y213778D01*
X230316Y213122D01*
X227036Y212466D02*
Y210498D01*
X226380Y209842D01*
X224413D01*
Y212466D01*
X363324Y341511D02*
X363980Y342166D01*
X365292D01*
X365948Y341511D01*
Y340855D01*
X365292Y340199D01*
X363980D01*
X363324Y339543D01*
Y338887D01*
X363980Y338231D01*
X365292D01*
X365948Y338887D01*
X362012Y342166D02*
Y338231D01*
X360700Y339543D01*
X359388Y338231D01*
Y342166D01*
X358077Y338231D02*
X356765D01*
X357421D01*
Y342166D01*
X358077Y341511D01*
X352173Y340855D02*
X354141D01*
X354797Y340199D01*
Y338887D01*
X354141Y338231D01*
X352173D01*
X229266Y387007D02*
X230578D01*
X229922D01*
Y383727D01*
X230578Y383071D01*
X231234D01*
X231890Y383727D01*
X227954Y383071D02*
X226642D01*
X227298D01*
Y387007D01*
X227954Y386351D01*
X378479Y33463D02*
X379790D01*
X379134D01*
Y30184D01*
X379790Y29528D01*
X380446D01*
X381102Y30184D01*
X374543Y29528D02*
X377167D01*
X374543Y32151D01*
Y32807D01*
X375199Y33463D01*
X376511D01*
X377167Y32807D01*
X69423Y42125D02*
X70735D01*
X70079D01*
Y38845D01*
X70735Y38189D01*
X71391D01*
X72047Y38845D01*
X68111Y41469D02*
X67456Y42125D01*
X66144D01*
X65488Y41469D01*
Y40813D01*
X66144Y40157D01*
X66800D01*
X66144D01*
X65488Y39501D01*
Y38845D01*
X66144Y38189D01*
X67456D01*
X68111Y38845D01*
X381102Y92913D02*
Y96849D01*
X379134D01*
X378479Y96193D01*
Y94881D01*
X379134Y94225D01*
X381102D01*
X379790D02*
X378479Y92913D01*
X374543Y96849D02*
X377167D01*
Y92913D01*
X374543D01*
X377167Y94881D02*
X375855D01*
X373231Y92913D02*
X371919D01*
X372575D01*
Y96849D01*
X373231Y96193D01*
X369951Y95537D02*
Y92913D01*
Y94225D01*
X369295Y94881D01*
X368639Y95537D01*
X367983D01*
X78347Y81890D02*
Y85826D01*
X76379D01*
X75723Y85170D01*
Y83858D01*
X76379Y83202D01*
X78347D01*
X77034D02*
X75723Y81890D01*
X71787Y85826D02*
X74411D01*
Y81890D01*
X71787D01*
X74411Y83858D02*
X73099D01*
X67851Y81890D02*
X70475D01*
X67851Y84514D01*
Y85170D01*
X68507Y85826D01*
X69819D01*
X70475Y85170D01*
X66539Y84514D02*
Y81890D01*
Y83202D01*
X65883Y83858D01*
X65227Y84514D01*
X64571D01*
X14961Y197638D02*
Y201573D01*
X13649Y200262D01*
X12337Y201573D01*
Y197638D01*
X11025D02*
X9713D01*
X10369D01*
Y201573D01*
X11025Y200918D01*
X162524Y318611D02*
X163180Y319266D01*
X164492D01*
X165148Y318611D01*
Y317954D01*
X164492Y317299D01*
X163180D01*
X162524Y316643D01*
Y315987D01*
X163180Y315331D01*
X164492D01*
X165148Y315987D01*
X161212Y319266D02*
Y315331D01*
X159900Y316643D01*
X158589Y315331D01*
Y319266D01*
X157276Y315331D02*
X155965D01*
X156621D01*
Y319266D01*
X157276Y318611D01*
X153341Y315331D02*
X152029D01*
X151373Y315987D01*
Y317299D01*
X152029Y317954D01*
X153341D01*
X153997Y317299D01*
Y315987D01*
X153341Y315331D01*
X389762Y267584D02*
Y266272D01*
Y266929D01*
X386483D01*
X385827Y266272D01*
Y265617D01*
X386483Y264961D01*
X385827Y271520D02*
Y268896D01*
X388451Y271520D01*
X389107D01*
X389762Y270864D01*
Y269552D01*
X389107Y268896D01*
X388451Y275456D02*
Y273488D01*
X387795Y272832D01*
X386483D01*
X385827Y273488D01*
Y275456D01*
X389762Y251049D02*
Y249737D01*
Y250393D01*
X386483D01*
X385827Y249737D01*
Y249081D01*
X386483Y248425D01*
X385827Y254329D02*
X389762D01*
X387795Y252361D01*
Y254985D01*
X388451Y258921D02*
Y256953D01*
X387795Y256297D01*
X386483D01*
X385827Y256953D01*
Y258921D01*
X570555Y359449D02*
G03*
X576854Y359449I3150J0D01*
G01*
X562681Y362598D02*
G03*
X565830Y359449I3150J0D01*
G01*
X581578Y359449D02*
G03*
X584728Y362598I0J3150D01*
G01*
X584728Y378346D02*
G03*
X581578Y381496I-3150J0D01*
G01*
X565830Y381496D02*
G03*
X562681Y378346I0J-3150D01*
G01*
X576854Y381496D02*
G03*
X570555Y381496I-3150J0D01*
G01*
X720555D02*
G03*
X714256Y381496I-3150J0D01*
G01*
X728429Y378346D02*
G03*
X725279Y381496I-3150J0D01*
G01*
X709531Y381496D02*
G03*
X706382Y378346I0J-3150D01*
G01*
X706382Y362598D02*
G03*
X709531Y359449I3150J0D01*
G01*
X725279Y359449D02*
G03*
X728429Y362598I0J3150D01*
G01*
X714256Y359449D02*
G03*
X720555Y359449I3150J0D01*
G01*
X446063Y71653D02*
G03*
X446063Y77953I0J3150D01*
G01*
X442913Y63779D02*
G03*
X446063Y66929I0J3150D01*
G01*
X446063Y82677D02*
G03*
X442913Y85827I-3150J0D01*
G01*
X427165Y85827D02*
G03*
X424016Y82677I0J-3150D01*
G01*
X424016Y66929D02*
G03*
X427165Y63779I3150J0D01*
G01*
X424016Y77953D02*
G03*
X424016Y71653I0J-3150D01*
G01*
Y322047D02*
G03*
X424016Y315748I0J-3150D01*
G01*
X427165Y329921D02*
G03*
X424016Y326772I0J-3150D01*
G01*
X424016Y311024D02*
G03*
X427165Y307874I3150J0D01*
G01*
X442913Y307874D02*
G03*
X446063Y311024I0J3150D01*
G01*
X446063Y326772D02*
G03*
X442913Y329921I-3150J0D01*
G01*
X446063Y315748D02*
G03*
X446063Y322047I0J3150D01*
G01*
X648032Y152362D02*
G03*
X643307Y152362I-2362J0D01*
G01*
X643307D02*
G03*
X638583Y152362I-2362J0D01*
G01*
X638583D02*
G03*
X633858Y152362I-2362J0D01*
G01*
X633858D02*
G03*
X629134Y152362I-2362J0D01*
G01*
Y192520D02*
G03*
X633858Y192520I2362J0D01*
G01*
X633858D02*
G03*
X638583Y192520I2362J0D01*
G01*
X638583D02*
G03*
X643307Y192520I2362J0D01*
G01*
X643307D02*
G03*
X648032Y192520I2362J0D01*
G01*
X562681Y362598D02*
Y378346D01*
X565830Y381496D02*
X570555D01*
Y381496D02*
Y381496D01*
X576854Y381496D02*
X581578D01*
X584728Y362598D02*
Y378346D01*
X565830Y359449D02*
X570555D01*
X576854Y359449D02*
X581578D01*
X576854D02*
Y359449D01*
X560712Y366535D02*
Y374409D01*
X554413Y382283D02*
X570161D01*
X554413Y358661D02*
X570161D01*
X558744Y366535D02*
X562287Y366535D01*
X558744Y374409D02*
X562287D01*
X585319Y366535D02*
X600082D01*
X585515Y374409D02*
X600082D01*
X577838Y358661D02*
X600082D01*
X577641Y382283D02*
X600082D01*
X558744Y366535D02*
Y374409D01*
X554413Y358661D02*
Y382283D01*
X540240Y354724D02*
Y386221D01*
X600082Y354724D02*
Y386221D01*
X540240Y354724D02*
X600082D01*
X540240Y386221D02*
X600082D01*
X555791Y376772D02*
X560712D01*
X559137Y378150D02*
X560712Y376772D01*
X559137Y375394D02*
X560712Y376772D01*
X559137Y365551D02*
X560712Y364173D01*
X559137Y362795D02*
X560712Y364173D01*
X555791D02*
X560712D01*
X728429Y362598D02*
Y378346D01*
X720555Y359449D02*
X725279D01*
X720555D02*
Y359449D01*
X709531D02*
X714256D01*
X706382Y362598D02*
Y378346D01*
X720555Y381496D02*
X725279D01*
X709531Y381496D02*
X714256D01*
Y381496D02*
Y381496D01*
X730397Y366535D02*
Y374409D01*
X720949Y358661D02*
X736697D01*
X720949Y382283D02*
X736697D01*
X728823Y374409D02*
X732366Y374409D01*
X728823Y366535D02*
X732366D01*
X691027Y374409D02*
X705791D01*
X691027Y366535D02*
X705594D01*
X691027Y382283D02*
X713271D01*
X691027Y358661D02*
X713468D01*
X732366Y366535D02*
Y374409D01*
X736697Y358661D02*
Y382283D01*
X750870Y354724D02*
Y386221D01*
X691027Y354724D02*
Y386221D01*
X750870D01*
X691027Y354724D02*
X750870D01*
X730397Y364173D02*
X735319D01*
X730397D02*
X731972Y362795D01*
X730397Y364173D02*
X731972Y365551D01*
X730397Y376772D02*
X731972Y375394D01*
X730397Y376772D02*
X731972Y378150D01*
X730397Y376772D02*
X735319D01*
X427165Y63779D02*
X442913D01*
X424016Y66929D02*
Y71653D01*
X424016D01*
Y77953D02*
Y82677D01*
X427165Y85827D02*
X442913D01*
X446063Y66929D02*
Y71653D01*
X446063Y77953D02*
Y82677D01*
X446063Y77953D02*
X446063D01*
X431102Y61811D02*
X438976D01*
X423228Y55512D02*
Y71260D01*
X446850Y55512D02*
Y71260D01*
X438976Y59842D02*
X438976Y63386D01*
X431102Y59842D02*
Y63386D01*
X438976Y86417D02*
Y101181D01*
X431102Y86614D02*
Y101181D01*
X446850Y78937D02*
Y101181D01*
X423228Y78740D02*
Y101181D01*
X431102Y59842D02*
X438976D01*
X423228Y55512D02*
X446850D01*
X419291Y41339D02*
X450787D01*
X419291Y101181D02*
X450787D01*
Y41339D02*
Y101181D01*
X419291Y41339D02*
Y101181D01*
X428740Y56890D02*
Y61811D01*
X427362Y60236D02*
X428740Y61811D01*
X430118Y60236D01*
X439961D02*
X441339Y61811D01*
X442717Y60236D01*
X441339Y56890D02*
Y61811D01*
X427165Y329921D02*
X442913D01*
X446063Y322047D02*
Y326772D01*
X446063Y322047D02*
X446063D01*
X446063Y311024D02*
Y315748D01*
X427165Y307874D02*
X442913D01*
X424016Y322047D02*
Y326772D01*
X424016Y311024D02*
Y315748D01*
X424016D01*
X431102Y331890D02*
X438976D01*
X446850Y322441D02*
Y338189D01*
X423228Y322441D02*
Y338189D01*
X431102Y330315D02*
X431102Y333858D01*
X438976Y330315D02*
Y333858D01*
X431102Y292520D02*
Y307283D01*
X438976Y292520D02*
Y307087D01*
X423228Y292520D02*
Y314764D01*
X446850Y292520D02*
Y314961D01*
X431102Y333858D02*
X438976D01*
X423228Y338189D02*
X446850D01*
X419291Y352362D02*
X450787D01*
X419291Y292520D02*
X450787D01*
X419291D02*
Y352362D01*
X450787Y292520D02*
Y352362D01*
X441339Y331890D02*
Y336811D01*
Y331890D02*
X442717Y333465D01*
X439961D02*
X441339Y331890D01*
X428740D02*
X430118Y333465D01*
X427362D02*
X428740Y331890D01*
Y336811D01*
X685397Y351791D02*
Y367146D01*
X605397Y351791D02*
Y367146D01*
Y351791D02*
X685397D01*
X730397Y367146D02*
Y373622D01*
X560712Y367146D02*
X730397D01*
X560712D02*
Y373622D01*
X730397D01*
X453130Y111894D02*
X458839D01*
X470256D02*
X475965D01*
X453130Y1657D02*
Y111894D01*
Y1657D02*
X475965D01*
Y111894D01*
X798630Y148394D02*
X804339D01*
X815756D02*
X821465D01*
X798630Y38157D02*
Y148394D01*
Y38157D02*
X821465D01*
Y148394D01*
X438386Y237244D02*
X448228D01*
X438386Y157244D02*
X448228D01*
Y237244D01*
X431909Y332283D02*
X438386D01*
Y62205D02*
Y332283D01*
X431909Y62205D02*
X438386D01*
X431909D02*
Y332283D01*
X648032Y152362D02*
X652362D01*
X624803D02*
X629134D01*
X624803Y192520D02*
X629134D01*
X648032D02*
X652362D01*
X663779Y137402D02*
Y207480D01*
X613386Y137402D02*
X663779D01*
X613386D02*
Y207480D01*
X663779D01*
X467082Y329526D02*
X468394D01*
X467738D01*
Y326247D01*
X468394Y325590D01*
X469050D01*
X469706Y326247D01*
X465770D02*
X465114Y325590D01*
X463803D01*
X463147Y326247D01*
Y328870D01*
X463803Y329526D01*
X465114D01*
X465770Y328870D01*
Y328214D01*
X465114Y327558D01*
X463147D01*
X808794Y344093D02*
X810105D01*
X809449D01*
Y340813D01*
X810105Y340158D01*
X810761D01*
X811417Y340813D01*
X807482Y343437D02*
X806826Y344093D01*
X805514D01*
X804858Y343437D01*
Y342781D01*
X805514Y342125D01*
X804858Y341469D01*
Y340813D01*
X805514Y340158D01*
X806826D01*
X807482Y340813D01*
Y341469D01*
X806826Y342125D01*
X807482Y342781D01*
Y343437D01*
X806826Y342125D02*
X805514D01*
X577297Y211547D02*
X577953Y212204D01*
X579265D01*
X579921Y211547D01*
Y208924D01*
X579265Y208268D01*
X577953D01*
X577297Y208924D01*
X575985Y208268D02*
X574674D01*
X575330D01*
Y212204D01*
X575985Y211547D01*
X572706Y210892D02*
Y208924D01*
X572050Y208268D01*
X570082D01*
Y210892D01*
X493833Y387007D02*
X495145D01*
X494489D01*
Y383727D01*
X495145Y383071D01*
X495801D01*
X496457Y383727D01*
X492521Y383071D02*
X491209D01*
X491865D01*
Y387007D01*
X492521Y386351D01*
X486617Y385695D02*
X488585D01*
X489241Y385039D01*
Y383727D01*
X488585Y383071D01*
X486617D01*
X785172Y211416D02*
X786483D01*
X785827D01*
Y208136D01*
X786483Y207480D01*
X787139D01*
X787795Y208136D01*
X781892Y207480D02*
Y211416D01*
X783859Y209448D01*
X781236D01*
X743833Y314959D02*
X745145D01*
X744489D01*
Y311680D01*
X745145Y311024D01*
X745801D01*
X746457Y311680D01*
X739897Y314959D02*
X742521D01*
Y312991D01*
X741209Y313647D01*
X740553D01*
X739897Y312991D01*
Y311680D01*
X740553Y311024D01*
X741865D01*
X742521Y311680D01*
X735961Y313647D02*
X737929D01*
X738585Y312991D01*
Y311680D01*
X737929Y311024D01*
X735961D01*
X759581Y292518D02*
X760893D01*
X760237D01*
Y289239D01*
X760893Y288583D01*
X761549D01*
X762205Y289239D01*
X755645Y292518D02*
X758269D01*
Y290550D01*
X756957Y291207D01*
X756301D01*
X755645Y290550D01*
Y289239D01*
X756301Y288583D01*
X757613D01*
X758269Y289239D01*
X726116Y339369D02*
X727428D01*
X726772D01*
Y336089D01*
X727428Y335433D01*
X728084D01*
X728740Y336089D01*
X724804Y338713D02*
X724149Y339369D01*
X722836D01*
X722181Y338713D01*
Y338057D01*
X722836Y337401D01*
X723492D01*
X722836D01*
X722181Y336745D01*
Y336089D01*
X722836Y335433D01*
X724149D01*
X724804Y336089D01*
X718245Y338057D02*
X720213D01*
X720869Y337401D01*
Y336089D01*
X720213Y335433D01*
X718245D01*
X482022Y144093D02*
X483334D01*
X482678D01*
Y140813D01*
X483334Y140157D01*
X483990D01*
X484646Y140813D01*
X478086Y144093D02*
X479398Y143437D01*
X480710Y142125D01*
Y140813D01*
X480054Y140157D01*
X478742D01*
X478086Y140813D01*
Y141469D01*
X478742Y142125D01*
X480710D01*
X756431Y106298D02*
X757743D01*
X757087D01*
Y103018D01*
X757743Y102362D01*
X758399D01*
X759055Y103018D01*
X755119Y106298D02*
X752496D01*
Y105642D01*
X755119Y103018D01*
Y102362D01*
X647638Y213778D02*
Y209842D01*
X645014D01*
X643702D02*
X642390D01*
X643046D01*
Y213778D01*
X643702Y213122D01*
X640422Y212466D02*
Y210498D01*
X639766Y209842D01*
X637799D01*
Y212466D01*
X776710Y341511D02*
X777366Y342166D01*
X778678D01*
X779334Y341511D01*
Y340855D01*
X778678Y340199D01*
X777366D01*
X776710Y339543D01*
Y338887D01*
X777366Y338231D01*
X778678D01*
X779334Y338887D01*
X775398Y342166D02*
Y338231D01*
X774086Y339543D01*
X772774Y338231D01*
Y342166D01*
X771462Y338231D02*
X770151D01*
X770806D01*
Y342166D01*
X771462Y341511D01*
X765559Y340855D02*
X767527D01*
X768183Y340199D01*
Y338887D01*
X767527Y338231D01*
X765559D01*
X642652Y387007D02*
X643964D01*
X643308D01*
Y383727D01*
X643964Y383071D01*
X644620D01*
X645276Y383727D01*
X641340Y383071D02*
X640028D01*
X640684D01*
Y387007D01*
X641340Y386351D01*
X791864Y33463D02*
X793176D01*
X792520D01*
Y30184D01*
X793176Y29528D01*
X793832D01*
X794488Y30184D01*
X787929Y29528D02*
X790553D01*
X787929Y32151D01*
Y32807D01*
X788585Y33463D01*
X789896D01*
X790553Y32807D01*
X482809Y42125D02*
X484121D01*
X483465D01*
Y38845D01*
X484121Y38189D01*
X484777D01*
X485433Y38845D01*
X481497Y41469D02*
X480841Y42125D01*
X479529D01*
X478873Y41469D01*
Y40813D01*
X479529Y40157D01*
X480185D01*
X479529D01*
X478873Y39501D01*
Y38845D01*
X479529Y38189D01*
X480841D01*
X481497Y38845D01*
X794488Y92913D02*
Y96849D01*
X792520D01*
X791864Y96193D01*
Y94881D01*
X792520Y94225D01*
X794488D01*
X793176D02*
X791864Y92913D01*
X787929Y96849D02*
X790553D01*
Y92913D01*
X787929D01*
X790553Y94881D02*
X789241D01*
X786617Y92913D02*
X785305D01*
X785961D01*
Y96849D01*
X786617Y96193D01*
X783337Y95537D02*
Y92913D01*
Y94225D01*
X782681Y94881D01*
X782025Y95537D01*
X781369D01*
X491732Y81890D02*
Y85826D01*
X489764D01*
X489109Y85170D01*
Y83858D01*
X489764Y83202D01*
X491732D01*
X490420D02*
X489109Y81890D01*
X485173Y85826D02*
X487796D01*
Y81890D01*
X485173D01*
X487796Y83858D02*
X486485D01*
X481237Y81890D02*
X483861D01*
X481237Y84514D01*
Y85170D01*
X481893Y85826D01*
X483205D01*
X483861Y85170D01*
X479925Y84514D02*
Y81890D01*
Y83202D01*
X479269Y83858D01*
X478613Y84514D01*
X477957D01*
X428346Y197638D02*
Y201573D01*
X427035Y200262D01*
X425723Y201573D01*
Y197638D01*
X424411D02*
X423099D01*
X423755D01*
Y201573D01*
X424411Y200918D01*
X575910Y318611D02*
X576566Y319266D01*
X577878D01*
X578534Y318611D01*
Y317954D01*
X577878Y317299D01*
X576566D01*
X575910Y316643D01*
Y315987D01*
X576566Y315331D01*
X577878D01*
X578534Y315987D01*
X574598Y319266D02*
Y315331D01*
X573286Y316643D01*
X571974Y315331D01*
Y319266D01*
X570662Y315331D02*
X569350D01*
X570006D01*
Y319266D01*
X570662Y318611D01*
X566727Y315331D02*
X565415D01*
X564759Y315987D01*
Y317299D01*
X565415Y317954D01*
X566727D01*
X567383Y317299D01*
Y315987D01*
X566727Y315331D01*
X803148Y267584D02*
Y266272D01*
Y266929D01*
X799869D01*
X799213Y266272D01*
Y265617D01*
X799869Y264961D01*
X799213Y271520D02*
Y268896D01*
X801836Y271520D01*
X802492D01*
X803148Y270864D01*
Y269552D01*
X802492Y268896D01*
X801836Y275456D02*
Y273488D01*
X801180Y272832D01*
X799869D01*
X799213Y273488D01*
Y275456D01*
X803148Y251049D02*
Y249737D01*
Y250393D01*
X799869D01*
X799213Y249737D01*
Y249081D01*
X799869Y248425D01*
X799213Y254329D02*
X803148D01*
X801180Y252361D01*
Y254985D01*
X801836Y258921D02*
Y256953D01*
X801180Y256297D01*
X799869D01*
X799213Y256953D01*
Y258921D01*
X157169Y753150D02*
G03*
X163468Y753150I3150J0D01*
G01*
X149295Y756299D02*
G03*
X152445Y753150I3150J0D01*
G01*
X168193Y753150D02*
G03*
X171342Y756299I0J3150D01*
G01*
X171342Y772047D02*
G03*
X168193Y775197I-3150J0D01*
G01*
X152445Y775197D02*
G03*
X149295Y772047I0J-3150D01*
G01*
X163468Y775197D02*
G03*
X157169Y775197I-3150J0D01*
G01*
X307169D02*
G03*
X300870Y775197I-3150J0D01*
G01*
X315043Y772047D02*
G03*
X311893Y775197I-3150J0D01*
G01*
X296145Y775197D02*
G03*
X292996Y772047I0J-3150D01*
G01*
X292996Y756299D02*
G03*
X296145Y753150I3150J0D01*
G01*
X311893Y753150D02*
G03*
X315043Y756299I0J3150D01*
G01*
X300870Y753150D02*
G03*
X307169Y753150I3150J0D01*
G01*
X32677Y465354D02*
G03*
X32677Y471654I0J3150D01*
G01*
X29528Y457480D02*
G03*
X32677Y460630I0J3150D01*
G01*
X32677Y476378D02*
G03*
X29528Y479528I-3150J0D01*
G01*
X13780Y479528D02*
G03*
X10630Y476378I0J-3150D01*
G01*
X10630Y460630D02*
G03*
X13780Y457480I3150J0D01*
G01*
X10630Y471654D02*
G03*
X10630Y465354I0J-3150D01*
G01*
Y715748D02*
G03*
X10630Y709449I0J-3150D01*
G01*
X13780Y723622D02*
G03*
X10630Y720472I0J-3150D01*
G01*
X10630Y704724D02*
G03*
X13780Y701575I3150J0D01*
G01*
X29528Y701575D02*
G03*
X32677Y704724I0J3150D01*
G01*
X32677Y720472D02*
G03*
X29528Y723622I-3150J0D01*
G01*
X32677Y709449D02*
G03*
X32677Y715748I0J3150D01*
G01*
X234646Y546063D02*
G03*
X229921Y546063I-2362J0D01*
G01*
X229921D02*
G03*
X225197Y546063I-2362J0D01*
G01*
X225197D02*
G03*
X220472Y546063I-2362J0D01*
G01*
X220472D02*
G03*
X215748Y546063I-2362J0D01*
G01*
Y586221D02*
G03*
X220472Y586221I2362J0D01*
G01*
X220472D02*
G03*
X225197Y586221I2362J0D01*
G01*
X225197D02*
G03*
X229921Y586221I2362J0D01*
G01*
X229921D02*
G03*
X234646Y586221I2362J0D01*
G01*
X149295Y756299D02*
Y772047D01*
X152445Y775197D02*
X157169D01*
Y775197D02*
Y775197D01*
X163468Y775197D02*
X168193D01*
X171342Y756299D02*
Y772047D01*
X152445Y753150D02*
X157169D01*
X163468Y753150D02*
X168193D01*
X163468D02*
Y753150D01*
X147327Y760236D02*
Y768110D01*
X141027Y775984D02*
X156775D01*
X141027Y752362D02*
X156775D01*
X145358Y760236D02*
X148901Y760236D01*
X145358Y768110D02*
X148901D01*
X171933Y760236D02*
X186697D01*
X172130Y768110D02*
X186697D01*
X164453Y752362D02*
X186697D01*
X164256Y775984D02*
X186697D01*
X145358Y760236D02*
Y768110D01*
X141027Y752362D02*
Y775984D01*
X126854Y748425D02*
Y779921D01*
X186697Y748425D02*
Y779921D01*
X126854Y748425D02*
X186697D01*
X126854Y779921D02*
X186697D01*
X142405Y770472D02*
X147327D01*
X145752Y771850D02*
X147327Y770472D01*
X145752Y769095D02*
X147327Y770472D01*
X145752Y759252D02*
X147327Y757874D01*
X145752Y756496D02*
X147327Y757874D01*
X142405D02*
X147327D01*
X315043Y756299D02*
Y772047D01*
X307169Y753150D02*
X311893D01*
X307169D02*
Y753150D01*
X296145D02*
X300870D01*
X292996Y756299D02*
Y772047D01*
X307169Y775197D02*
X311893D01*
X296145Y775197D02*
X300870D01*
Y775197D02*
Y775197D01*
X317011Y760236D02*
Y768110D01*
X307563Y752362D02*
X323311D01*
X307563Y775984D02*
X323311D01*
X315437Y768110D02*
X318980Y768110D01*
X315437Y760236D02*
X318980D01*
X277641Y768110D02*
X292405D01*
X277641Y760236D02*
X292208D01*
X277641Y775984D02*
X299886D01*
X277641Y752362D02*
X300082D01*
X318980Y760236D02*
Y768110D01*
X323311Y752362D02*
Y775984D01*
X337484Y748425D02*
Y779921D01*
X277641Y748425D02*
Y779921D01*
X337484D01*
X277641Y748425D02*
X337484D01*
X317011Y757874D02*
X321933D01*
X317011D02*
X318586Y756496D01*
X317011Y757874D02*
X318586Y759252D01*
X317011Y770472D02*
X318586Y769095D01*
X317011Y770472D02*
X318586Y771850D01*
X317011Y770472D02*
X321933D01*
X13780Y457480D02*
X29528D01*
X10630Y460630D02*
Y465354D01*
X10630D01*
Y471654D02*
Y476378D01*
X13780Y479528D02*
X29528D01*
X32677Y460630D02*
Y465354D01*
X32677Y471654D02*
Y476378D01*
X32677Y471654D02*
X32677D01*
X17717Y455512D02*
X25591D01*
X9843Y449213D02*
Y464961D01*
X33465Y449213D02*
Y464961D01*
X25591Y453543D02*
X25591Y457087D01*
X17717Y453543D02*
Y457087D01*
X25591Y480118D02*
Y494882D01*
X17717Y480315D02*
Y494882D01*
X33465Y472638D02*
Y494882D01*
X9843Y472441D02*
Y494882D01*
X17717Y453543D02*
X25591D01*
X9843Y449213D02*
X33465D01*
X5906Y435039D02*
X37402D01*
X5906Y494882D02*
X37402D01*
Y435039D02*
Y494882D01*
X5906Y435039D02*
Y494882D01*
X15354Y450591D02*
Y455512D01*
X13976Y453937D02*
X15354Y455512D01*
X16732Y453937D01*
X26575D02*
X27953Y455512D01*
X29331Y453937D01*
X27953Y450591D02*
Y455512D01*
X13780Y723622D02*
X29528D01*
X32677Y715748D02*
Y720472D01*
X32677Y715748D02*
X32677D01*
X32677Y704724D02*
Y709449D01*
X13780Y701575D02*
X29528D01*
X10630Y715748D02*
Y720472D01*
X10630Y704724D02*
Y709449D01*
X10630D01*
X17717Y725591D02*
X25591D01*
X33465Y716142D02*
Y731890D01*
X9843Y716142D02*
Y731890D01*
X17717Y724016D02*
X17717Y727559D01*
X25591Y724016D02*
Y727559D01*
X17717Y686221D02*
Y700984D01*
X25591Y686221D02*
Y700787D01*
X9843Y686221D02*
Y708465D01*
X33465Y686221D02*
Y708661D01*
X17717Y727559D02*
X25591D01*
X9843Y731890D02*
X33465D01*
X5906Y746063D02*
X37402D01*
X5906Y686221D02*
X37402D01*
X5906D02*
Y746063D01*
X37402Y686221D02*
Y746063D01*
X27953Y725591D02*
Y730512D01*
Y725591D02*
X29331Y727165D01*
X26575D02*
X27953Y725591D01*
X15354D02*
X16732Y727165D01*
X13976D02*
X15354Y725591D01*
Y730512D01*
X272011Y745492D02*
Y760847D01*
X192011Y745492D02*
Y760847D01*
Y745492D02*
X272011D01*
X317011Y760847D02*
Y767323D01*
X147327Y760847D02*
X317011D01*
X147327D02*
Y767323D01*
X317011D01*
X39744Y505594D02*
X45453D01*
X56870D02*
X62579D01*
X39744Y395358D02*
Y505594D01*
Y395358D02*
X62579D01*
Y505594D01*
X385244Y542095D02*
X390953D01*
X402370D02*
X408079D01*
X385244Y431858D02*
Y542095D01*
Y431858D02*
X408079D01*
Y542095D01*
X25000Y630945D02*
X34843D01*
X25000Y550945D02*
X34843D01*
Y630945D01*
X18524Y725984D02*
X25000D01*
Y455905D02*
Y725984D01*
X18524Y455905D02*
X25000D01*
X18524D02*
Y725984D01*
X234646Y546063D02*
X238976D01*
X211417D02*
X215748D01*
X211417Y586221D02*
X215748D01*
X234646D02*
X238976D01*
X250394Y531102D02*
Y601181D01*
X200000Y531102D02*
X250394D01*
X200000D02*
Y601181D01*
X250394D01*
X53697Y723227D02*
X55009D01*
X54352D01*
Y719947D01*
X55009Y719291D01*
X55664D01*
X56320Y719947D01*
X52385D02*
X51729Y719291D01*
X50417D01*
X49761Y719947D01*
Y722571D01*
X50417Y723227D01*
X51729D01*
X52385Y722571D01*
Y721915D01*
X51729Y721259D01*
X49761D01*
X395408Y737794D02*
X396720D01*
X396064D01*
Y734514D01*
X396720Y733858D01*
X397375D01*
X398031Y734514D01*
X394096Y737138D02*
X393440Y737794D01*
X392128D01*
X391472Y737138D01*
Y736482D01*
X392128Y735826D01*
X391472Y735170D01*
Y734514D01*
X392128Y733858D01*
X393440D01*
X394096Y734514D01*
Y735170D01*
X393440Y735826D01*
X394096Y736482D01*
Y737138D01*
X393440Y735826D02*
X392128D01*
X163912Y605248D02*
X164568Y605904D01*
X165879D01*
X166535Y605248D01*
Y602625D01*
X165879Y601968D01*
X164568D01*
X163912Y602625D01*
X162600Y601968D02*
X161288D01*
X161944D01*
Y605904D01*
X162600Y605248D01*
X159320Y604592D02*
Y602625D01*
X158664Y601968D01*
X156696D01*
Y604592D01*
X80447Y780707D02*
X81759D01*
X81103D01*
Y777428D01*
X81759Y776772D01*
X82415D01*
X83071Y777428D01*
X79135Y776772D02*
X77823D01*
X78479D01*
Y780707D01*
X79135Y780051D01*
X73232Y779395D02*
X75199D01*
X75855Y778740D01*
Y777428D01*
X75199Y776772D01*
X73232D01*
X371786Y605117D02*
X373097D01*
X372442D01*
Y601837D01*
X373097Y601181D01*
X373753D01*
X374410Y601837D01*
X368506Y601181D02*
Y605117D01*
X370474Y603149D01*
X367850D01*
X330447Y708660D02*
X331759D01*
X331103D01*
Y705380D01*
X331759Y704724D01*
X332415D01*
X333071Y705380D01*
X326511Y708660D02*
X329135D01*
Y706692D01*
X327823Y707348D01*
X327167D01*
X326511Y706692D01*
Y705380D01*
X327167Y704724D01*
X328479D01*
X329135Y705380D01*
X322576Y707348D02*
X324543D01*
X325199Y706692D01*
Y705380D01*
X324543Y704724D01*
X322576D01*
X346195Y686219D02*
X347507D01*
X346851D01*
Y682939D01*
X347507Y682283D01*
X348163D01*
X348819Y682939D01*
X342259Y686219D02*
X344883D01*
Y684251D01*
X343571Y684907D01*
X342915D01*
X342259Y684251D01*
Y682939D01*
X342915Y682283D01*
X344227D01*
X344883Y682939D01*
X312731Y733070D02*
X314042D01*
X313387D01*
Y729790D01*
X314042Y729134D01*
X314698D01*
X315354Y729790D01*
X311419Y732414D02*
X310763Y733070D01*
X309451D01*
X308795Y732414D01*
Y731758D01*
X309451Y731102D01*
X310107D01*
X309451D01*
X308795Y730446D01*
Y729790D01*
X309451Y729134D01*
X310763D01*
X311419Y729790D01*
X304859Y731758D02*
X306827D01*
X307483Y731102D01*
Y729790D01*
X306827Y729134D01*
X304859D01*
X68636Y537794D02*
X69948D01*
X69292D01*
Y534514D01*
X69948Y533858D01*
X70604D01*
X71260Y534514D01*
X64700Y537794D02*
X66012Y537138D01*
X67324Y535826D01*
Y534514D01*
X66668Y533858D01*
X65356D01*
X64700Y534514D01*
Y535170D01*
X65356Y535826D01*
X67324D01*
X343045Y499999D02*
X344357D01*
X343701D01*
Y496719D01*
X344357Y496063D01*
X345013D01*
X345669Y496719D01*
X341734Y499999D02*
X339110D01*
Y499343D01*
X341734Y496719D01*
Y496063D01*
X234252Y607479D02*
Y603543D01*
X231628D01*
X230316D02*
X229004D01*
X229660D01*
Y607479D01*
X230316Y606823D01*
X227036Y606167D02*
Y604199D01*
X226380Y603543D01*
X224413D01*
Y606167D01*
X363324Y735211D02*
X363980Y735867D01*
X365292D01*
X365948Y735211D01*
Y734555D01*
X365292Y733899D01*
X363980D01*
X363324Y733243D01*
Y732587D01*
X363980Y731931D01*
X365292D01*
X365948Y732587D01*
X362012Y735867D02*
Y731931D01*
X360700Y733243D01*
X359388Y731931D01*
Y735867D01*
X358077Y731931D02*
X356765D01*
X357421D01*
Y735867D01*
X358077Y735211D01*
X352173Y734555D02*
X354141D01*
X354797Y733899D01*
Y732587D01*
X354141Y731931D01*
X352173D01*
X229266Y780707D02*
X230578D01*
X229922D01*
Y777428D01*
X230578Y776772D01*
X231234D01*
X231890Y777428D01*
X227954Y776772D02*
X226642D01*
X227298D01*
Y780707D01*
X227954Y780051D01*
X378479Y427164D02*
X379790D01*
X379134D01*
Y423884D01*
X379790Y423228D01*
X380446D01*
X381102Y423884D01*
X374543Y423228D02*
X377167D01*
X374543Y425852D01*
Y426508D01*
X375199Y427164D01*
X376511D01*
X377167Y426508D01*
X69423Y435825D02*
X70735D01*
X70079D01*
Y432546D01*
X70735Y431890D01*
X71391D01*
X72047Y432546D01*
X68111Y435170D02*
X67456Y435825D01*
X66144D01*
X65488Y435170D01*
Y434514D01*
X66144Y433858D01*
X66800D01*
X66144D01*
X65488Y433202D01*
Y432546D01*
X66144Y431890D01*
X67456D01*
X68111Y432546D01*
X381102Y486614D02*
Y490550D01*
X379134D01*
X378479Y489894D01*
Y488582D01*
X379134Y487926D01*
X381102D01*
X379790D02*
X378479Y486614D01*
X374543Y490550D02*
X377167D01*
Y486614D01*
X374543D01*
X377167Y488582D02*
X375855D01*
X373231Y486614D02*
X371919D01*
X372575D01*
Y490550D01*
X373231Y489894D01*
X369951Y489238D02*
Y486614D01*
Y487926D01*
X369295Y488582D01*
X368639Y489238D01*
X367983D01*
X78347Y475591D02*
Y479526D01*
X76379D01*
X75723Y478870D01*
Y477558D01*
X76379Y476902D01*
X78347D01*
X77034D02*
X75723Y475591D01*
X71787Y479526D02*
X74411D01*
Y475591D01*
X71787D01*
X74411Y477558D02*
X73099D01*
X67851Y475591D02*
X70475D01*
X67851Y478214D01*
Y478870D01*
X68507Y479526D01*
X69819D01*
X70475Y478870D01*
X66539Y478214D02*
Y475591D01*
Y476902D01*
X65883Y477558D01*
X65227Y478214D01*
X64571D01*
X14961Y591339D02*
Y595274D01*
X13649Y593962D01*
X12337Y595274D01*
Y591339D01*
X11025D02*
X9713D01*
X10369D01*
Y595274D01*
X11025Y594618D01*
X162524Y712311D02*
X163180Y712967D01*
X164492D01*
X165148Y712311D01*
Y711655D01*
X164492Y710999D01*
X163180D01*
X162524Y710343D01*
Y709687D01*
X163180Y709031D01*
X164492D01*
X165148Y709687D01*
X161212Y712967D02*
Y709031D01*
X159900Y710343D01*
X158589Y709031D01*
Y712967D01*
X157276Y709031D02*
X155965D01*
X156621D01*
Y712967D01*
X157276Y712311D01*
X153341Y709031D02*
X152029D01*
X151373Y709687D01*
Y710999D01*
X152029Y711655D01*
X153341D01*
X153997Y710999D01*
Y709687D01*
X153341Y709031D01*
X389762Y661285D02*
Y659973D01*
Y660629D01*
X386483D01*
X385827Y659973D01*
Y659317D01*
X386483Y658661D01*
X385827Y665221D02*
Y662597D01*
X388451Y665221D01*
X389107D01*
X389762Y664565D01*
Y663253D01*
X389107Y662597D01*
X388451Y669157D02*
Y667189D01*
X387795Y666533D01*
X386483D01*
X385827Y667189D01*
Y669157D01*
X389762Y644750D02*
Y643438D01*
Y644094D01*
X386483D01*
X385827Y643438D01*
Y642782D01*
X386483Y642126D01*
X385827Y648030D02*
X389762D01*
X387795Y646062D01*
Y648686D01*
X388451Y652621D02*
Y650653D01*
X387795Y649998D01*
X386483D01*
X385827Y650653D01*
Y652621D01*
X570555Y753150D02*
G03*
X576854Y753150I3150J0D01*
G01*
X562681Y756299D02*
G03*
X565830Y753150I3150J0D01*
G01*
X581578Y753150D02*
G03*
X584728Y756299I0J3150D01*
G01*
X584728Y772047D02*
G03*
X581578Y775197I-3150J0D01*
G01*
X565830Y775197D02*
G03*
X562681Y772047I0J-3150D01*
G01*
X576854Y775197D02*
G03*
X570555Y775197I-3150J0D01*
G01*
X720555D02*
G03*
X714256Y775197I-3150J0D01*
G01*
X728429Y772047D02*
G03*
X725279Y775197I-3150J0D01*
G01*
X709531Y775197D02*
G03*
X706382Y772047I0J-3150D01*
G01*
X706382Y756299D02*
G03*
X709531Y753150I3150J0D01*
G01*
X725279Y753150D02*
G03*
X728429Y756299I0J3150D01*
G01*
X714256Y753150D02*
G03*
X720555Y753150I3150J0D01*
G01*
X446063Y465354D02*
G03*
X446063Y471654I0J3150D01*
G01*
X442913Y457480D02*
G03*
X446063Y460630I0J3150D01*
G01*
X446063Y476378D02*
G03*
X442913Y479528I-3150J0D01*
G01*
X427165Y479528D02*
G03*
X424016Y476378I0J-3150D01*
G01*
X424016Y460630D02*
G03*
X427165Y457480I3150J0D01*
G01*
X424016Y471654D02*
G03*
X424016Y465354I0J-3150D01*
G01*
Y715748D02*
G03*
X424016Y709449I0J-3150D01*
G01*
X427165Y723622D02*
G03*
X424016Y720472I0J-3150D01*
G01*
X424016Y704724D02*
G03*
X427165Y701575I3150J0D01*
G01*
X442913Y701575D02*
G03*
X446063Y704724I0J3150D01*
G01*
X446063Y720472D02*
G03*
X442913Y723622I-3150J0D01*
G01*
X446063Y709449D02*
G03*
X446063Y715748I0J3150D01*
G01*
X648032Y546063D02*
G03*
X643307Y546063I-2362J0D01*
G01*
X643307D02*
G03*
X638583Y546063I-2362J0D01*
G01*
X638583D02*
G03*
X633858Y546063I-2362J0D01*
G01*
X633858D02*
G03*
X629134Y546063I-2362J0D01*
G01*
Y586221D02*
G03*
X633858Y586221I2362J0D01*
G01*
X633858D02*
G03*
X638583Y586221I2362J0D01*
G01*
X638583D02*
G03*
X643307Y586221I2362J0D01*
G01*
X643307D02*
G03*
X648032Y586221I2362J0D01*
G01*
X562681Y756299D02*
Y772047D01*
X565830Y775197D02*
X570555D01*
Y775197D02*
Y775197D01*
X576854Y775197D02*
X581578D01*
X584728Y756299D02*
Y772047D01*
X565830Y753150D02*
X570555D01*
X576854Y753150D02*
X581578D01*
X576854D02*
Y753150D01*
X560712Y760236D02*
Y768110D01*
X554413Y775984D02*
X570161D01*
X554413Y752362D02*
X570161D01*
X558744Y760236D02*
X562287Y760236D01*
X558744Y768110D02*
X562287D01*
X585319Y760236D02*
X600082D01*
X585515Y768110D02*
X600082D01*
X577838Y752362D02*
X600082D01*
X577641Y775984D02*
X600082D01*
X558744Y760236D02*
Y768110D01*
X554413Y752362D02*
Y775984D01*
X540240Y748425D02*
Y779921D01*
X600082Y748425D02*
Y779921D01*
X540240Y748425D02*
X600082D01*
X540240Y779921D02*
X600082D01*
X555791Y770472D02*
X560712D01*
X559137Y771850D02*
X560712Y770472D01*
X559137Y769095D02*
X560712Y770472D01*
X559137Y759252D02*
X560712Y757874D01*
X559137Y756496D02*
X560712Y757874D01*
X555791D02*
X560712D01*
X728429Y756299D02*
Y772047D01*
X720555Y753150D02*
X725279D01*
X720555D02*
Y753150D01*
X709531D02*
X714256D01*
X706382Y756299D02*
Y772047D01*
X720555Y775197D02*
X725279D01*
X709531Y775197D02*
X714256D01*
Y775197D02*
Y775197D01*
X730397Y760236D02*
Y768110D01*
X720949Y752362D02*
X736697D01*
X720949Y775984D02*
X736697D01*
X728823Y768110D02*
X732366Y768110D01*
X728823Y760236D02*
X732366D01*
X691027Y768110D02*
X705791D01*
X691027Y760236D02*
X705594D01*
X691027Y775984D02*
X713271D01*
X691027Y752362D02*
X713468D01*
X732366Y760236D02*
Y768110D01*
X736697Y752362D02*
Y775984D01*
X750870Y748425D02*
Y779921D01*
X691027Y748425D02*
Y779921D01*
X750870D01*
X691027Y748425D02*
X750870D01*
X730397Y757874D02*
X735319D01*
X730397D02*
X731972Y756496D01*
X730397Y757874D02*
X731972Y759252D01*
X730397Y770472D02*
X731972Y769095D01*
X730397Y770472D02*
X731972Y771850D01*
X730397Y770472D02*
X735319D01*
X427165Y457480D02*
X442913D01*
X424016Y460630D02*
Y465354D01*
X424016D01*
Y471654D02*
Y476378D01*
X427165Y479528D02*
X442913D01*
X446063Y460630D02*
Y465354D01*
X446063Y471654D02*
Y476378D01*
X446063Y471654D02*
X446063D01*
X431102Y455512D02*
X438976D01*
X423228Y449213D02*
Y464961D01*
X446850Y449213D02*
Y464961D01*
X438976Y453543D02*
X438976Y457087D01*
X431102Y453543D02*
Y457087D01*
X438976Y480118D02*
Y494882D01*
X431102Y480315D02*
Y494882D01*
X446850Y472638D02*
Y494882D01*
X423228Y472441D02*
Y494882D01*
X431102Y453543D02*
X438976D01*
X423228Y449213D02*
X446850D01*
X419291Y435039D02*
X450787D01*
X419291Y494882D02*
X450787D01*
Y435039D02*
Y494882D01*
X419291Y435039D02*
Y494882D01*
X428740Y450591D02*
Y455512D01*
X427362Y453937D02*
X428740Y455512D01*
X430118Y453937D01*
X439961D02*
X441339Y455512D01*
X442717Y453937D01*
X441339Y450591D02*
Y455512D01*
X427165Y723622D02*
X442913D01*
X446063Y715748D02*
Y720472D01*
X446063Y715748D02*
X446063D01*
X446063Y704724D02*
Y709449D01*
X427165Y701575D02*
X442913D01*
X424016Y715748D02*
Y720472D01*
X424016Y704724D02*
Y709449D01*
X424016D01*
X431102Y725591D02*
X438976D01*
X446850Y716142D02*
Y731890D01*
X423228Y716142D02*
Y731890D01*
X431102Y724016D02*
X431102Y727559D01*
X438976Y724016D02*
Y727559D01*
X431102Y686221D02*
Y700984D01*
X438976Y686221D02*
Y700787D01*
X423228Y686221D02*
Y708465D01*
X446850Y686221D02*
Y708661D01*
X431102Y727559D02*
X438976D01*
X423228Y731890D02*
X446850D01*
X419291Y746063D02*
X450787D01*
X419291Y686221D02*
X450787D01*
X419291D02*
Y746063D01*
X450787Y686221D02*
Y746063D01*
X441339Y725591D02*
Y730512D01*
Y725591D02*
X442717Y727165D01*
X439961D02*
X441339Y725591D01*
X428740D02*
X430118Y727165D01*
X427362D02*
X428740Y725591D01*
Y730512D01*
X685397Y745492D02*
Y760847D01*
X605397Y745492D02*
Y760847D01*
Y745492D02*
X685397D01*
X730397Y760847D02*
Y767323D01*
X560712Y760847D02*
X730397D01*
X560712D02*
Y767323D01*
X730397D01*
X453130Y505594D02*
X458839D01*
X470256D02*
X475965D01*
X453130Y395358D02*
Y505594D01*
Y395358D02*
X475965D01*
Y505594D01*
X798630Y542095D02*
X804339D01*
X815756D02*
X821465D01*
X798630Y431858D02*
Y542095D01*
Y431858D02*
X821465D01*
Y542095D01*
X438386Y630945D02*
X448228D01*
X438386Y550945D02*
X448228D01*
Y630945D01*
X431909Y725984D02*
X438386D01*
Y455905D02*
Y725984D01*
X431909Y455905D02*
X438386D01*
X431909D02*
Y725984D01*
X648032Y546063D02*
X652362D01*
X624803D02*
X629134D01*
X624803Y586221D02*
X629134D01*
X648032D02*
X652362D01*
X663779Y531102D02*
Y601181D01*
X613386Y531102D02*
X663779D01*
X613386D02*
Y601181D01*
X663779D01*
X467082Y723227D02*
X468394D01*
X467738D01*
Y719947D01*
X468394Y719291D01*
X469050D01*
X469706Y719947D01*
X465770D02*
X465114Y719291D01*
X463803D01*
X463147Y719947D01*
Y722571D01*
X463803Y723227D01*
X465114D01*
X465770Y722571D01*
Y721915D01*
X465114Y721259D01*
X463147D01*
X808794Y737794D02*
X810105D01*
X809449D01*
Y734514D01*
X810105Y733858D01*
X810761D01*
X811417Y734514D01*
X807482Y737138D02*
X806826Y737794D01*
X805514D01*
X804858Y737138D01*
Y736482D01*
X805514Y735826D01*
X804858Y735170D01*
Y734514D01*
X805514Y733858D01*
X806826D01*
X807482Y734514D01*
Y735170D01*
X806826Y735826D01*
X807482Y736482D01*
Y737138D01*
X806826Y735826D02*
X805514D01*
X577297Y605248D02*
X577953Y605904D01*
X579265D01*
X579921Y605248D01*
Y602625D01*
X579265Y601968D01*
X577953D01*
X577297Y602625D01*
X575985Y601968D02*
X574674D01*
X575330D01*
Y605904D01*
X575985Y605248D01*
X572706Y604592D02*
Y602625D01*
X572050Y601968D01*
X570082D01*
Y604592D01*
X493833Y780707D02*
X495145D01*
X494489D01*
Y777428D01*
X495145Y776772D01*
X495801D01*
X496457Y777428D01*
X492521Y776772D02*
X491209D01*
X491865D01*
Y780707D01*
X492521Y780051D01*
X486617Y779395D02*
X488585D01*
X489241Y778740D01*
Y777428D01*
X488585Y776772D01*
X486617D01*
X785172Y605117D02*
X786483D01*
X785827D01*
Y601837D01*
X786483Y601181D01*
X787139D01*
X787795Y601837D01*
X781892Y601181D02*
Y605117D01*
X783859Y603149D01*
X781236D01*
X743833Y708660D02*
X745145D01*
X744489D01*
Y705380D01*
X745145Y704724D01*
X745801D01*
X746457Y705380D01*
X739897Y708660D02*
X742521D01*
Y706692D01*
X741209Y707348D01*
X740553D01*
X739897Y706692D01*
Y705380D01*
X740553Y704724D01*
X741865D01*
X742521Y705380D01*
X735961Y707348D02*
X737929D01*
X738585Y706692D01*
Y705380D01*
X737929Y704724D01*
X735961D01*
X759581Y686219D02*
X760893D01*
X760237D01*
Y682939D01*
X760893Y682283D01*
X761549D01*
X762205Y682939D01*
X755645Y686219D02*
X758269D01*
Y684251D01*
X756957Y684907D01*
X756301D01*
X755645Y684251D01*
Y682939D01*
X756301Y682283D01*
X757613D01*
X758269Y682939D01*
X726116Y733070D02*
X727428D01*
X726772D01*
Y729790D01*
X727428Y729134D01*
X728084D01*
X728740Y729790D01*
X724804Y732414D02*
X724149Y733070D01*
X722836D01*
X722181Y732414D01*
Y731758D01*
X722836Y731102D01*
X723492D01*
X722836D01*
X722181Y730446D01*
Y729790D01*
X722836Y729134D01*
X724149D01*
X724804Y729790D01*
X718245Y731758D02*
X720213D01*
X720869Y731102D01*
Y729790D01*
X720213Y729134D01*
X718245D01*
X482022Y537794D02*
X483334D01*
X482678D01*
Y534514D01*
X483334Y533858D01*
X483990D01*
X484646Y534514D01*
X478086Y537794D02*
X479398Y537138D01*
X480710Y535826D01*
Y534514D01*
X480054Y533858D01*
X478742D01*
X478086Y534514D01*
Y535170D01*
X478742Y535826D01*
X480710D01*
X756431Y499999D02*
X757743D01*
X757087D01*
Y496719D01*
X757743Y496063D01*
X758399D01*
X759055Y496719D01*
X755119Y499999D02*
X752496D01*
Y499343D01*
X755119Y496719D01*
Y496063D01*
X647638Y607479D02*
Y603543D01*
X645014D01*
X643702D02*
X642390D01*
X643046D01*
Y607479D01*
X643702Y606823D01*
X640422Y606167D02*
Y604199D01*
X639766Y603543D01*
X637799D01*
Y606167D01*
X776710Y735211D02*
X777366Y735867D01*
X778678D01*
X779334Y735211D01*
Y734555D01*
X778678Y733899D01*
X777366D01*
X776710Y733243D01*
Y732587D01*
X777366Y731931D01*
X778678D01*
X779334Y732587D01*
X775398Y735867D02*
Y731931D01*
X774086Y733243D01*
X772774Y731931D01*
Y735867D01*
X771462Y731931D02*
X770151D01*
X770806D01*
Y735867D01*
X771462Y735211D01*
X765559Y734555D02*
X767527D01*
X768183Y733899D01*
Y732587D01*
X767527Y731931D01*
X765559D01*
X642652Y780707D02*
X643964D01*
X643308D01*
Y777428D01*
X643964Y776772D01*
X644620D01*
X645276Y777428D01*
X641340Y776772D02*
X640028D01*
X640684D01*
Y780707D01*
X641340Y780051D01*
X791864Y427164D02*
X793176D01*
X792520D01*
Y423884D01*
X793176Y423228D01*
X793832D01*
X794488Y423884D01*
X787929Y423228D02*
X790553D01*
X787929Y425852D01*
Y426508D01*
X788585Y427164D01*
X789896D01*
X790553Y426508D01*
X482809Y435825D02*
X484121D01*
X483465D01*
Y432546D01*
X484121Y431890D01*
X484777D01*
X485433Y432546D01*
X481497Y435170D02*
X480841Y435825D01*
X479529D01*
X478873Y435170D01*
Y434514D01*
X479529Y433858D01*
X480185D01*
X479529D01*
X478873Y433202D01*
Y432546D01*
X479529Y431890D01*
X480841D01*
X481497Y432546D01*
X794488Y486614D02*
Y490550D01*
X792520D01*
X791864Y489894D01*
Y488582D01*
X792520Y487926D01*
X794488D01*
X793176D02*
X791864Y486614D01*
X787929Y490550D02*
X790553D01*
Y486614D01*
X787929D01*
X790553Y488582D02*
X789241D01*
X786617Y486614D02*
X785305D01*
X785961D01*
Y490550D01*
X786617Y489894D01*
X783337Y489238D02*
Y486614D01*
Y487926D01*
X782681Y488582D01*
X782025Y489238D01*
X781369D01*
X491732Y475591D02*
Y479526D01*
X489764D01*
X489109Y478870D01*
Y477558D01*
X489764Y476902D01*
X491732D01*
X490420D02*
X489109Y475591D01*
X485173Y479526D02*
X487796D01*
Y475591D01*
X485173D01*
X487796Y477558D02*
X486485D01*
X481237Y475591D02*
X483861D01*
X481237Y478214D01*
Y478870D01*
X481893Y479526D01*
X483205D01*
X483861Y478870D01*
X479925Y478214D02*
Y475591D01*
Y476902D01*
X479269Y477558D01*
X478613Y478214D01*
X477957D01*
X428346Y591339D02*
Y595274D01*
X427035Y593962D01*
X425723Y595274D01*
Y591339D01*
X424411D02*
X423099D01*
X423755D01*
Y595274D01*
X424411Y594618D01*
X575910Y712311D02*
X576566Y712967D01*
X577878D01*
X578534Y712311D01*
Y711655D01*
X577878Y710999D01*
X576566D01*
X575910Y710343D01*
Y709687D01*
X576566Y709031D01*
X577878D01*
X578534Y709687D01*
X574598Y712967D02*
Y709031D01*
X573286Y710343D01*
X571974Y709031D01*
Y712967D01*
X570662Y709031D02*
X569350D01*
X570006D01*
Y712967D01*
X570662Y712311D01*
X566727Y709031D02*
X565415D01*
X564759Y709687D01*
Y710999D01*
X565415Y711655D01*
X566727D01*
X567383Y710999D01*
Y709687D01*
X566727Y709031D01*
X803148Y661285D02*
Y659973D01*
Y660629D01*
X799869D01*
X799213Y659973D01*
Y659317D01*
X799869Y658661D01*
X799213Y665221D02*
Y662597D01*
X801836Y665221D01*
X802492D01*
X803148Y664565D01*
Y663253D01*
X802492Y662597D01*
X801836Y669157D02*
Y667189D01*
X801180Y666533D01*
X799869D01*
X799213Y667189D01*
Y669157D01*
X803148Y644750D02*
Y643438D01*
Y644094D01*
X799869D01*
X799213Y643438D01*
Y642782D01*
X799869Y642126D01*
X799213Y648030D02*
X803148D01*
X801180Y646062D01*
Y648686D01*
X801836Y652621D02*
Y650653D01*
X801180Y649998D01*
X799869D01*
X799213Y650653D01*
Y652621D01*
X-31496Y-31496D02*
X858268D01*
Y818898D01*
X-31496D02*
X858268D01*
X-31496Y-31496D02*
Y818898D01*
X157169Y359449D02*
G03*
X163468Y359449I3150J0D01*
G01*
X149295Y362598D02*
G03*
X152445Y359449I3150J0D01*
G01*
X168193Y359449D02*
G03*
X171342Y362598I0J3150D01*
G01*
X171342Y378346D02*
G03*
X168193Y381496I-3150J0D01*
G01*
X152445Y381496D02*
G03*
X149295Y378346I0J-3150D01*
G01*
X163468Y381496D02*
G03*
X157169Y381496I-3150J0D01*
G01*
X307169D02*
G03*
X300870Y381496I-3150J0D01*
G01*
X315043Y378346D02*
G03*
X311893Y381496I-3150J0D01*
G01*
X296145Y381496D02*
G03*
X292996Y378346I0J-3150D01*
G01*
X292996Y362598D02*
G03*
X296145Y359449I3150J0D01*
G01*
X311893Y359449D02*
G03*
X315043Y362598I0J3150D01*
G01*
X300870Y359449D02*
G03*
X307169Y359449I3150J0D01*
G01*
X32677Y71653D02*
G03*
X32677Y77953I0J3150D01*
G01*
X29528Y63779D02*
G03*
X32677Y66929I0J3150D01*
G01*
X32677Y82677D02*
G03*
X29528Y85827I-3150J0D01*
G01*
X13780Y85827D02*
G03*
X10630Y82677I0J-3150D01*
G01*
X10630Y66929D02*
G03*
X13780Y63779I3150J0D01*
G01*
X10630Y77953D02*
G03*
X10630Y71653I0J-3150D01*
G01*
Y322047D02*
G03*
X10630Y315748I0J-3150D01*
G01*
X13780Y329921D02*
G03*
X10630Y326772I0J-3150D01*
G01*
X10630Y311024D02*
G03*
X13780Y307874I3150J0D01*
G01*
X29528Y307874D02*
G03*
X32677Y311024I0J3150D01*
G01*
X32677Y326772D02*
G03*
X29528Y329921I-3150J0D01*
G01*
X32677Y315748D02*
G03*
X32677Y322047I0J3150D01*
G01*
X149295Y362598D02*
Y378346D01*
X152445Y381496D02*
X157169D01*
X163468Y381496D02*
X168193D01*
X171342Y362598D02*
Y378346D01*
X152445Y359449D02*
X157169D01*
X163468Y359449D02*
X168193D01*
X315043Y362598D02*
Y378346D01*
X307169Y359449D02*
X311893D01*
X296145Y359449D02*
X300870D01*
X292996Y362598D02*
Y378346D01*
X307169Y381496D02*
X311893D01*
X296145Y381496D02*
X300870D01*
X13780Y63779D02*
X29528D01*
X10630Y66929D02*
Y71653D01*
X10630Y77953D02*
Y82677D01*
X13780Y85827D02*
X29528D01*
X32677Y66929D02*
Y71653D01*
X32677Y77953D02*
Y82677D01*
X13780Y329921D02*
X29528D01*
X32677Y322047D02*
Y326772D01*
X32677Y311024D02*
Y315748D01*
X13780Y307874D02*
X29528D01*
X10630Y322047D02*
Y326772D01*
X10630Y311024D02*
Y315748D01*
X570555Y359449D02*
G03*
X576854Y359449I3150J0D01*
G01*
X562681Y362598D02*
G03*
X565830Y359449I3150J0D01*
G01*
X581578Y359449D02*
G03*
X584728Y362598I0J3150D01*
G01*
X584728Y378346D02*
G03*
X581578Y381496I-3150J0D01*
G01*
X565830Y381496D02*
G03*
X562681Y378346I0J-3150D01*
G01*
X576854Y381496D02*
G03*
X570555Y381496I-3150J0D01*
G01*
X720555D02*
G03*
X714256Y381496I-3150J0D01*
G01*
X728429Y378346D02*
G03*
X725279Y381496I-3150J0D01*
G01*
X709531Y381496D02*
G03*
X706382Y378346I0J-3150D01*
G01*
X706382Y362598D02*
G03*
X709531Y359449I3150J0D01*
G01*
X725279Y359449D02*
G03*
X728429Y362598I0J3150D01*
G01*
X714256Y359449D02*
G03*
X720555Y359449I3150J0D01*
G01*
X446063Y71653D02*
G03*
X446063Y77953I0J3150D01*
G01*
X442913Y63779D02*
G03*
X446063Y66929I0J3150D01*
G01*
X446063Y82677D02*
G03*
X442913Y85827I-3150J0D01*
G01*
X427165Y85827D02*
G03*
X424016Y82677I0J-3150D01*
G01*
X424016Y66929D02*
G03*
X427165Y63779I3150J0D01*
G01*
X424016Y77953D02*
G03*
X424016Y71653I0J-3150D01*
G01*
Y322047D02*
G03*
X424016Y315748I0J-3150D01*
G01*
X427165Y329921D02*
G03*
X424016Y326772I0J-3150D01*
G01*
X424016Y311024D02*
G03*
X427165Y307874I3150J0D01*
G01*
X442913Y307874D02*
G03*
X446063Y311024I0J3150D01*
G01*
X446063Y326772D02*
G03*
X442913Y329921I-3150J0D01*
G01*
X446063Y315748D02*
G03*
X446063Y322047I0J3150D01*
G01*
X562681Y362598D02*
Y378346D01*
X565830Y381496D02*
X570555D01*
X576854Y381496D02*
X581578D01*
X584728Y362598D02*
Y378346D01*
X565830Y359449D02*
X570555D01*
X576854Y359449D02*
X581578D01*
X728429Y362598D02*
Y378346D01*
X720555Y359449D02*
X725279D01*
X709531Y359449D02*
X714256D01*
X706382Y362598D02*
Y378346D01*
X720555Y381496D02*
X725279D01*
X709531Y381496D02*
X714256D01*
X427165Y63779D02*
X442913D01*
X424016Y66929D02*
Y71653D01*
X424016Y77953D02*
Y82677D01*
X427165Y85827D02*
X442913D01*
X446063Y66929D02*
Y71653D01*
X446063Y77953D02*
Y82677D01*
X427165Y329921D02*
X442913D01*
X446063Y322047D02*
Y326772D01*
X446063Y311024D02*
Y315748D01*
X427165Y307874D02*
X442913D01*
X424016Y322047D02*
Y326772D01*
X424016Y311024D02*
Y315748D01*
X157169Y753150D02*
G03*
X163468Y753150I3150J0D01*
G01*
X149295Y756299D02*
G03*
X152445Y753150I3150J0D01*
G01*
X168193Y753150D02*
G03*
X171342Y756299I0J3150D01*
G01*
X171342Y772047D02*
G03*
X168193Y775197I-3150J0D01*
G01*
X152445Y775197D02*
G03*
X149295Y772047I0J-3150D01*
G01*
X163468Y775197D02*
G03*
X157169Y775197I-3150J0D01*
G01*
X307169D02*
G03*
X300870Y775197I-3150J0D01*
G01*
X315043Y772047D02*
G03*
X311893Y775197I-3150J0D01*
G01*
X296145Y775197D02*
G03*
X292996Y772047I0J-3150D01*
G01*
X292996Y756299D02*
G03*
X296145Y753150I3150J0D01*
G01*
X311893Y753150D02*
G03*
X315043Y756299I0J3150D01*
G01*
X300870Y753150D02*
G03*
X307169Y753150I3150J0D01*
G01*
X32677Y465354D02*
G03*
X32677Y471654I0J3150D01*
G01*
X29528Y457480D02*
G03*
X32677Y460630I0J3150D01*
G01*
X32677Y476378D02*
G03*
X29528Y479528I-3150J0D01*
G01*
X13780Y479528D02*
G03*
X10630Y476378I0J-3150D01*
G01*
X10630Y460630D02*
G03*
X13780Y457480I3150J0D01*
G01*
X10630Y471654D02*
G03*
X10630Y465354I0J-3150D01*
G01*
Y715748D02*
G03*
X10630Y709449I0J-3150D01*
G01*
X13780Y723622D02*
G03*
X10630Y720472I0J-3150D01*
G01*
X10630Y704724D02*
G03*
X13780Y701575I3150J0D01*
G01*
X29528Y701575D02*
G03*
X32677Y704724I0J3150D01*
G01*
X32677Y720472D02*
G03*
X29528Y723622I-3150J0D01*
G01*
X32677Y709449D02*
G03*
X32677Y715748I0J3150D01*
G01*
X149295Y756299D02*
Y772047D01*
X152445Y775197D02*
X157169D01*
X163468Y775197D02*
X168193D01*
X171342Y756299D02*
Y772047D01*
X152445Y753150D02*
X157169D01*
X163468Y753150D02*
X168193D01*
X315043Y756299D02*
Y772047D01*
X307169Y753150D02*
X311893D01*
X296145Y753150D02*
X300870D01*
X292996Y756299D02*
Y772047D01*
X307169Y775197D02*
X311893D01*
X296145Y775197D02*
X300870D01*
X13780Y457480D02*
X29528D01*
X10630Y460630D02*
Y465354D01*
X10630Y471654D02*
Y476378D01*
X13780Y479528D02*
X29528D01*
X32677Y460630D02*
Y465354D01*
X32677Y471654D02*
Y476378D01*
X13780Y723622D02*
X29528D01*
X32677Y715748D02*
Y720472D01*
X32677Y704724D02*
Y709449D01*
X13780Y701575D02*
X29528D01*
X10630Y715748D02*
Y720472D01*
X10630Y704724D02*
Y709449D01*
X570555Y753150D02*
G03*
X576854Y753150I3150J0D01*
G01*
X562681Y756299D02*
G03*
X565830Y753150I3150J0D01*
G01*
X581578Y753150D02*
G03*
X584728Y756299I0J3150D01*
G01*
X584728Y772047D02*
G03*
X581578Y775197I-3150J0D01*
G01*
X565830Y775197D02*
G03*
X562681Y772047I0J-3150D01*
G01*
X576854Y775197D02*
G03*
X570555Y775197I-3150J0D01*
G01*
X720555D02*
G03*
X714256Y775197I-3150J0D01*
G01*
X728429Y772047D02*
G03*
X725279Y775197I-3150J0D01*
G01*
X709531Y775197D02*
G03*
X706382Y772047I0J-3150D01*
G01*
X706382Y756299D02*
G03*
X709531Y753150I3150J0D01*
G01*
X725279Y753150D02*
G03*
X728429Y756299I0J3150D01*
G01*
X714256Y753150D02*
G03*
X720555Y753150I3150J0D01*
G01*
X446063Y465354D02*
G03*
X446063Y471654I0J3150D01*
G01*
X442913Y457480D02*
G03*
X446063Y460630I0J3150D01*
G01*
X446063Y476378D02*
G03*
X442913Y479528I-3150J0D01*
G01*
X427165Y479528D02*
G03*
X424016Y476378I0J-3150D01*
G01*
X424016Y460630D02*
G03*
X427165Y457480I3150J0D01*
G01*
X424016Y471654D02*
G03*
X424016Y465354I0J-3150D01*
G01*
Y715748D02*
G03*
X424016Y709449I0J-3150D01*
G01*
X427165Y723622D02*
G03*
X424016Y720472I0J-3150D01*
G01*
X424016Y704724D02*
G03*
X427165Y701575I3150J0D01*
G01*
X442913Y701575D02*
G03*
X446063Y704724I0J3150D01*
G01*
X446063Y720472D02*
G03*
X442913Y723622I-3150J0D01*
G01*
X446063Y709449D02*
G03*
X446063Y715748I0J3150D01*
G01*
X562681Y756299D02*
Y772047D01*
X565830Y775197D02*
X570555D01*
X576854Y775197D02*
X581578D01*
X584728Y756299D02*
Y772047D01*
X565830Y753150D02*
X570555D01*
X576854Y753150D02*
X581578D01*
X728429Y756299D02*
Y772047D01*
X720555Y753150D02*
X725279D01*
X709531Y753150D02*
X714256D01*
X706382Y756299D02*
Y772047D01*
X720555Y775197D02*
X725279D01*
X709531Y775197D02*
X714256D01*
X427165Y457480D02*
X442913D01*
X424016Y460630D02*
Y465354D01*
X424016Y471654D02*
Y476378D01*
X427165Y479528D02*
X442913D01*
X446063Y460630D02*
Y465354D01*
X446063Y471654D02*
Y476378D01*
X427165Y723622D02*
X442913D01*
X446063Y715748D02*
Y720472D01*
X446063Y704724D02*
Y709449D01*
X427165Y701575D02*
X442913D01*
X424016Y715748D02*
Y720472D01*
X424016Y704724D02*
Y709449D01*
D11*
X174630Y192496D02*
G03*
X174630Y192496I-14000J0D01*
G01*
X92126Y383484D02*
X114126D01*
Y388484D01*
X92126Y383484D02*
Y388484D01*
X86126Y364484D02*
X117126D01*
Y388484D01*
X86126D02*
X117126D01*
X311696Y127953D02*
X325197D01*
Y120079D02*
Y127953D01*
X311696Y120079D02*
X325197D01*
X311696Y147638D02*
X325197D01*
Y139764D02*
Y147638D01*
X311696Y139764D02*
X325197D01*
X311696Y159449D02*
X325197D01*
Y167323D01*
X311696D02*
X325197D01*
X370866Y109252D02*
Y179724D01*
X311696Y109252D02*
X370866D01*
X311696D02*
Y179724D01*
X370866D01*
X318016Y233661D02*
X366535D01*
X318016Y185236D02*
Y233661D01*
Y185236D02*
X366535D01*
Y233661D01*
X318016Y228150D02*
X330709D01*
Y222638D02*
Y228150D01*
X318110Y222638D02*
X330709D01*
X318110Y212795D02*
X330709D01*
Y218307D01*
X318016D02*
X330709D01*
X318110Y202953D02*
X330709D01*
Y208465D01*
X318016D02*
X330709D01*
X318110Y193110D02*
X330709D01*
Y198622D01*
X318016D02*
X330709D01*
X318016Y286024D02*
X366535D01*
X318016Y237598D02*
Y286024D01*
Y237598D02*
X366535D01*
Y286024D01*
X318016Y280512D02*
X330709D01*
Y275000D02*
Y280512D01*
X318110Y275000D02*
X330709D01*
X318110Y265158D02*
X330709D01*
Y270669D01*
X318016D02*
X330709D01*
X318110Y255315D02*
X330709D01*
Y260827D01*
X318016D02*
X330709D01*
X318110Y245472D02*
X330709D01*
Y250984D01*
X318016D02*
X330709D01*
X399232Y319528D02*
Y329528D01*
Y319528D02*
X404232D01*
X399232Y329528D02*
X404232D01*
X380232Y314528D02*
Y337028D01*
Y314528D02*
X404232D01*
Y337028D01*
X39075Y282583D02*
Y323583D01*
X63075D01*
Y282583D02*
Y323583D01*
X39075Y288583D02*
X44075D01*
X39075Y318583D02*
X44075D01*
Y288583D02*
Y318583D01*
X119291Y54331D02*
X132792D01*
X119291D02*
Y62205D01*
X132792D01*
X119291Y34646D02*
X132792D01*
X119291D02*
Y42520D01*
X132792D01*
X119291Y22835D02*
X132792D01*
X119291Y14961D02*
Y22835D01*
Y14961D02*
X132792D01*
X73622Y2559D02*
Y73032D01*
X132792D01*
Y2559D02*
Y73032D01*
X73622Y2559D02*
X132792D01*
X119291Y159055D02*
X132792D01*
X119291D02*
Y166929D01*
X132792D01*
X119291Y139370D02*
X132792D01*
X119291D02*
Y147244D01*
X132792D01*
X119291Y127559D02*
X132792D01*
X119291Y119685D02*
Y127559D01*
Y119685D02*
X132792D01*
X73622Y107283D02*
Y177756D01*
X132792D01*
Y107283D02*
Y177756D01*
X73622Y107283D02*
X132792D01*
X329921Y326378D02*
Y331890D01*
X306299Y326378D02*
X307087Y325197D01*
X313386D01*
X314173Y326378D01*
X314961Y325197D01*
X321260D01*
X322047Y326378D01*
X322047D02*
X322835Y325197D01*
X329134D01*
X329921Y326378D01*
X329134Y333071D02*
X329921Y331890D01*
X322835Y333071D02*
X329134D01*
X322047Y331890D02*
X322835Y333071D01*
X321260D02*
X322047Y331890D01*
X314961Y333071D02*
X321260D01*
X314173Y331890D02*
X314961Y333071D01*
X313386D02*
X314173Y331890D01*
X307087Y333071D02*
X313386D01*
X306299Y331890D02*
X307087Y333071D01*
X304528Y333661D02*
X306299Y331890D01*
X304528Y324606D02*
X306299Y326378D01*
X311519Y22024D02*
X325020D01*
Y14150D02*
Y22024D01*
X311519Y14150D02*
X325020D01*
X311519Y41709D02*
X325020D01*
Y33835D02*
Y41709D01*
X311519Y33835D02*
X325020D01*
X311519Y53520D02*
X325020D01*
Y61394D01*
X311519D02*
X325020D01*
X370689Y3323D02*
Y73795D01*
X311519Y3323D02*
X370689D01*
X311519D02*
Y73795D01*
X370689D01*
X177316Y140945D02*
X180315Y143944D01*
X177316Y146943D01*
X174317Y143944D02*
X170318D01*
X168319D02*
X164320D01*
X162321D02*
X158322D01*
X152324Y145943D02*
X153324Y146943D01*
X155323D01*
X156323Y145943D01*
Y144944D01*
X155323Y143944D01*
X153324D01*
X152324Y142944D01*
Y141945D01*
X153324Y140945D01*
X155323D01*
X156323Y141945D01*
X149325Y140945D02*
X147326D01*
X146326Y141945D01*
Y143944D01*
X147326Y144944D01*
X149325D01*
X150325Y143944D01*
Y141945D01*
X149325Y140945D01*
X144327Y144944D02*
Y141945D01*
X143327Y140945D01*
X140328D01*
Y144944D01*
X137329Y145943D02*
Y144944D01*
X138329D01*
X136329D01*
X137329D01*
Y141945D01*
X136329Y140945D01*
X305056Y145550D02*
X306056Y146549D01*
X308055D01*
X309055Y145550D01*
Y144550D01*
X308055Y143550D01*
X306056D01*
X305056Y142551D01*
Y141551D01*
X306056Y140551D01*
X308055D01*
X309055Y141551D01*
X303057Y140551D02*
X301058D01*
X302057D01*
Y144550D01*
X303057D01*
X298059Y140551D02*
Y144550D01*
X295060D01*
X294060Y143550D01*
Y140551D01*
X289062D02*
X292061Y143550D01*
X289062Y146549D01*
X286063Y143550D02*
X282064D01*
X280065D02*
X276066D01*
X274066D02*
X270068D01*
X309055Y160630D02*
Y166628D01*
X306056D01*
X305056Y165628D01*
Y163629D01*
X306056Y162629D01*
X309055D01*
X303057Y166628D02*
Y160630D01*
X299058D01*
X297059Y166628D02*
Y161630D01*
X296059Y160630D01*
X294060D01*
X293060Y161630D01*
Y166628D01*
X287062Y165628D02*
X288062Y166628D01*
X290061D01*
X291061Y165628D01*
Y164629D01*
X290061Y163629D01*
X288062D01*
X287062Y162629D01*
Y161630D01*
X288062Y160630D01*
X290061D01*
X291061Y161630D01*
X158268Y159843D02*
Y165841D01*
X155269D01*
X154269Y164841D01*
Y162842D01*
X155269Y161842D01*
X158268D01*
X152270Y165841D02*
Y159843D01*
X148271D01*
X146272Y165841D02*
Y160842D01*
X145272Y159843D01*
X143273D01*
X142273Y160842D01*
Y165841D01*
X136275Y164841D02*
X137275Y165841D01*
X139274D01*
X140273Y164841D01*
Y163841D01*
X139274Y162842D01*
X137275D01*
X136275Y161842D01*
Y160842D01*
X137275Y159843D01*
X139274D01*
X140273Y160842D01*
X162992Y120866D02*
Y126864D01*
X160993Y124865D01*
X158993Y126864D01*
Y120866D01*
X156994Y126864D02*
X154995D01*
X155994D01*
Y120866D01*
X156994D01*
X154995D01*
X151996D02*
Y126864D01*
X147997Y120866D01*
Y126864D01*
X145998D02*
Y121866D01*
X144998Y120866D01*
X142999D01*
X141999Y121866D01*
Y126864D01*
X136001Y125865D02*
X137001Y126864D01*
X139000D01*
X140000Y125865D01*
Y124865D01*
X139000Y123865D01*
X137001D01*
X136001Y122865D01*
Y121866D01*
X137001Y120866D01*
X139000D01*
X140000Y121866D01*
X307874Y121260D02*
Y127258D01*
X305875Y125259D01*
X303875Y127258D01*
Y121260D01*
X301876Y127258D02*
X299877D01*
X300876D01*
Y121260D01*
X301876D01*
X299877D01*
X296878D02*
Y127258D01*
X292879Y121260D01*
Y127258D01*
X290880D02*
Y122259D01*
X289880Y121260D01*
X287880D01*
X286881Y122259D01*
Y127258D01*
X280883Y126258D02*
X281882Y127258D01*
X283882D01*
X284881Y126258D01*
Y125259D01*
X283882Y124259D01*
X281882D01*
X280883Y123259D01*
Y122259D01*
X281882Y121260D01*
X283882D01*
X284881Y122259D01*
X307874Y54331D02*
Y60329D01*
X303875Y54331D01*
Y60329D01*
X297877Y59329D02*
X298877Y60329D01*
X300876D01*
X301876Y59329D01*
Y55330D01*
X300876Y54331D01*
X298877D01*
X297877Y55330D01*
X304269Y39644D02*
X305269Y40644D01*
X307268D01*
X308268Y39644D01*
Y35645D01*
X307268Y34646D01*
X305269D01*
X304269Y35645D01*
X299271Y40644D02*
X301270D01*
X302270Y39644D01*
Y35645D01*
X301270Y34646D01*
X299271D01*
X298271Y35645D01*
Y39644D01*
X299271Y40644D01*
X296272Y34646D02*
Y40644D01*
X294272Y38644D01*
X292273Y40644D01*
Y34646D01*
X308661Y15354D02*
Y21352D01*
X304663Y15354D01*
Y21352D01*
X299664D02*
X301664D01*
X302663Y20353D01*
Y16354D01*
X301664Y15354D01*
X299664D01*
X298665Y16354D01*
Y20353D01*
X299664Y21352D01*
X146850Y15748D02*
Y21746D01*
X142852Y15748D01*
Y21746D01*
X137853D02*
X139853D01*
X140852Y20746D01*
Y16748D01*
X139853Y15748D01*
X137853D01*
X136854Y16748D01*
Y20746D01*
X137853Y21746D01*
X147576Y40431D02*
X148576Y41431D01*
X150575D01*
X151575Y40431D01*
Y36433D01*
X150575Y35433D01*
X148576D01*
X147576Y36433D01*
X142578Y41431D02*
X144577D01*
X145577Y40431D01*
Y36433D01*
X144577Y35433D01*
X142578D01*
X141578Y36433D01*
Y40431D01*
X142578Y41431D01*
X139579Y35433D02*
Y41431D01*
X137579Y39432D01*
X135580Y41431D01*
Y35433D01*
X148031Y55118D02*
Y61116D01*
X144033Y55118D01*
Y61116D01*
X138035Y60116D02*
X139034Y61116D01*
X141034D01*
X142033Y60116D01*
Y56118D01*
X141034Y55118D01*
X139034D01*
X138035Y56118D01*
X313779Y274410D02*
Y280408D01*
X310781D01*
X309781Y279408D01*
Y277409D01*
X310781Y276409D01*
X313779D01*
X307782Y280408D02*
Y274410D01*
X303783D01*
X301783Y280408D02*
Y275409D01*
X300784Y274410D01*
X298784D01*
X297785Y275409D01*
Y280408D01*
X291787Y279408D02*
X292786Y280408D01*
X294786D01*
X295785Y279408D01*
Y278408D01*
X294786Y277409D01*
X292786D01*
X291787Y276409D01*
Y275409D01*
X292786Y274410D01*
X294786D01*
X295785Y275409D01*
X312205Y222441D02*
Y228439D01*
X309206D01*
X308206Y227439D01*
Y225440D01*
X309206Y224440D01*
X312205D01*
X306207Y228439D02*
Y222441D01*
X302208D01*
X300209Y228439D02*
Y223441D01*
X299209Y222441D01*
X297210D01*
X296210Y223441D01*
Y228439D01*
X290212Y227439D02*
X291212Y228439D01*
X293211D01*
X294211Y227439D01*
Y226440D01*
X293211Y225440D01*
X291212D01*
X290212Y224440D01*
Y223441D01*
X291212Y222441D01*
X293211D01*
X294211Y223441D01*
X311417Y245669D02*
Y251667D01*
X309418Y249668D01*
X307419Y251667D01*
Y245669D01*
X305419Y251667D02*
X303420D01*
X304420D01*
Y245669D01*
X305419D01*
X303420D01*
X300421D02*
Y251667D01*
X296422Y245669D01*
Y251667D01*
X294423D02*
Y246669D01*
X293423Y245669D01*
X291424D01*
X290424Y246669D01*
Y251667D01*
X284426Y250668D02*
X285426Y251667D01*
X287425D01*
X288425Y250668D01*
Y249668D01*
X287425Y248668D01*
X285426D01*
X284426Y247669D01*
Y246669D01*
X285426Y245669D01*
X287425D01*
X288425Y246669D01*
X314567Y193307D02*
Y199305D01*
X312568Y197306D01*
X310568Y199305D01*
Y193307D01*
X308569Y199305D02*
X306570D01*
X307569D01*
Y193307D01*
X308569D01*
X306570D01*
X303571D02*
Y199305D01*
X299572Y193307D01*
Y199305D01*
X297572D02*
Y194307D01*
X296573Y193307D01*
X294573D01*
X293574Y194307D01*
Y199305D01*
X287576Y198305D02*
X288575Y199305D01*
X290575D01*
X291574Y198305D01*
Y197306D01*
X290575Y196306D01*
X288575D01*
X287576Y195306D01*
Y194307D01*
X288575Y193307D01*
X290575D01*
X291574Y194307D01*
X314567Y212992D02*
Y216991D01*
X312568Y218990D01*
X310568Y216991D01*
Y212992D01*
Y215991D01*
X314567D01*
X308569D02*
X304570D01*
X306570Y217990D02*
Y213992D01*
X314961Y265354D02*
Y269353D01*
X312961Y271352D01*
X310962Y269353D01*
Y265354D01*
Y268353D01*
X314961D01*
X308963D02*
X304964D01*
X306963Y270353D02*
Y266354D01*
X315354Y261116D02*
Y255118D01*
X312355D01*
X311356Y256118D01*
Y257118D01*
X312355Y258117D01*
X315354D01*
X312355D01*
X311356Y259117D01*
Y260117D01*
X312355Y261116D01*
X315354D01*
X309356Y258117D02*
X305358D01*
X314567Y209148D02*
Y203150D01*
X311568D01*
X310568Y204149D01*
Y205149D01*
X311568Y206149D01*
X314567D01*
X311568D01*
X310568Y207148D01*
Y208148D01*
X311568Y209148D01*
X314567D01*
X308569Y206149D02*
X304570D01*
X167323Y337888D02*
X163324D01*
X165323D01*
Y331890D01*
X157326Y337888D02*
X161325D01*
Y331890D01*
X157326D01*
X161325Y334889D02*
X159325D01*
X151328Y336888D02*
X152328Y337888D01*
X154327D01*
X155327Y336888D01*
Y335889D01*
X154327Y334889D01*
X152328D01*
X151328Y333889D01*
Y332889D01*
X152328Y331890D01*
X154327D01*
X155327Y332889D01*
X149329Y337888D02*
X145330D01*
X147329D01*
Y331890D01*
X371654Y355906D02*
Y361904D01*
X368654D01*
X367655Y360904D01*
Y358905D01*
X368654Y357905D01*
X371654D01*
X369654D02*
X367655Y355906D01*
X361657Y361904D02*
X365655D01*
Y355906D01*
X361657D01*
X365655Y358905D02*
X363656D01*
X355659Y360904D02*
X356658Y361904D01*
X358658D01*
X359657Y360904D01*
Y359904D01*
X358658Y358905D01*
X356658D01*
X355659Y357905D01*
Y356905D01*
X356658Y355906D01*
X358658D01*
X359657Y356905D01*
X349661Y361904D02*
X353659D01*
Y355906D01*
X349661D01*
X353659Y358905D02*
X351660D01*
X347661Y361904D02*
X343663D01*
X345662D01*
Y355906D01*
X171897Y178740D02*
Y182739D01*
X173896Y180739D02*
X169897D01*
X588016Y192496D02*
G03*
X588016Y192496I-14000J0D01*
G01*
X505512Y383484D02*
X527512D01*
Y388484D01*
X505512Y383484D02*
Y388484D01*
X499512Y364484D02*
X530512D01*
Y388484D01*
X499512D02*
X530512D01*
X725081Y127953D02*
X738583D01*
Y120079D02*
Y127953D01*
X725081Y120079D02*
X738583D01*
X725081Y147638D02*
X738583D01*
Y139764D02*
Y147638D01*
X725081Y139764D02*
X738583D01*
X725081Y159449D02*
X738583D01*
Y167323D01*
X725081D02*
X738583D01*
X784252Y109252D02*
Y179724D01*
X725081Y109252D02*
X784252D01*
X725081D02*
Y179724D01*
X784252D01*
X731402Y233661D02*
X779921D01*
X731402Y185236D02*
Y233661D01*
Y185236D02*
X779921D01*
Y233661D01*
X731402Y228150D02*
X744095D01*
Y222638D02*
Y228150D01*
X731496Y222638D02*
X744095D01*
X731496Y212795D02*
X744095D01*
Y218307D01*
X731402D02*
X744095D01*
X731496Y202953D02*
X744095D01*
Y208465D01*
X731402D02*
X744095D01*
X731496Y193110D02*
X744095D01*
Y198622D01*
X731402D02*
X744095D01*
X731402Y286024D02*
X779921D01*
X731402Y237598D02*
Y286024D01*
Y237598D02*
X779921D01*
Y286024D01*
X731402Y280512D02*
X744095D01*
Y275000D02*
Y280512D01*
X731496Y275000D02*
X744095D01*
X731496Y265158D02*
X744095D01*
Y270669D01*
X731402D02*
X744095D01*
X731496Y255315D02*
X744095D01*
Y260827D01*
X731402D02*
X744095D01*
X731496Y245472D02*
X744095D01*
Y250984D01*
X731402D02*
X744095D01*
X812618Y319528D02*
Y329528D01*
Y319528D02*
X817618D01*
X812618Y329528D02*
X817618D01*
X793618Y314528D02*
Y337028D01*
Y314528D02*
X817618D01*
Y337028D01*
X452461Y282583D02*
Y323583D01*
X476461D01*
Y282583D02*
Y323583D01*
X452461Y288583D02*
X457461D01*
X452461Y318583D02*
X457461D01*
Y288583D02*
Y318583D01*
X532677Y54331D02*
X546178D01*
X532677D02*
Y62205D01*
X546178D01*
X532677Y34646D02*
X546178D01*
X532677D02*
Y42520D01*
X546178D01*
X532677Y22835D02*
X546178D01*
X532677Y14961D02*
Y22835D01*
Y14961D02*
X546178D01*
X487008Y2559D02*
Y73032D01*
X546178D01*
Y2559D02*
Y73032D01*
X487008Y2559D02*
X546178D01*
X532677Y159055D02*
X546178D01*
X532677D02*
Y166929D01*
X546178D01*
X532677Y139370D02*
X546178D01*
X532677D02*
Y147244D01*
X546178D01*
X532677Y127559D02*
X546178D01*
X532677Y119685D02*
Y127559D01*
Y119685D02*
X546178D01*
X487008Y107283D02*
Y177756D01*
X546178D01*
Y107283D02*
Y177756D01*
X487008Y107283D02*
X546178D01*
X743307Y326378D02*
Y331890D01*
X719685Y326378D02*
X720472Y325197D01*
X726772D01*
X727559Y326378D01*
X728346Y325197D01*
X734646D01*
X735433Y326378D01*
X735433D02*
X736221Y325197D01*
X742520D01*
X743307Y326378D01*
X742520Y333071D02*
X743307Y331890D01*
X736221Y333071D02*
X742520D01*
X735433Y331890D02*
X736221Y333071D01*
X734646D02*
X735433Y331890D01*
X728346Y333071D02*
X734646D01*
X727559Y331890D02*
X728346Y333071D01*
X726772D02*
X727559Y331890D01*
X720472Y333071D02*
X726772D01*
X719685Y331890D02*
X720472Y333071D01*
X717913Y333661D02*
X719685Y331890D01*
X717913Y324606D02*
X719685Y326378D01*
X724904Y22024D02*
X738406D01*
Y14150D02*
Y22024D01*
X724904Y14150D02*
X738406D01*
X724904Y41709D02*
X738406D01*
Y33835D02*
Y41709D01*
X724904Y33835D02*
X738406D01*
X724904Y53520D02*
X738406D01*
Y61394D01*
X724904D02*
X738406D01*
X784075Y3323D02*
Y73795D01*
X724904Y3323D02*
X784075D01*
X724904D02*
Y73795D01*
X784075D01*
X590702Y140945D02*
X593701Y143944D01*
X590702Y146943D01*
X587703Y143944D02*
X583704D01*
X581705D02*
X577706D01*
X575707D02*
X571708D01*
X565710Y145943D02*
X566710Y146943D01*
X568709D01*
X569709Y145943D01*
Y144944D01*
X568709Y143944D01*
X566710D01*
X565710Y142944D01*
Y141945D01*
X566710Y140945D01*
X568709D01*
X569709Y141945D01*
X562711Y140945D02*
X560711D01*
X559712Y141945D01*
Y143944D01*
X560711Y144944D01*
X562711D01*
X563710Y143944D01*
Y141945D01*
X562711Y140945D01*
X557712Y144944D02*
Y141945D01*
X556713Y140945D01*
X553714D01*
Y144944D01*
X550715Y145943D02*
Y144944D01*
X551714D01*
X549715D01*
X550715D01*
Y141945D01*
X549715Y140945D01*
X718442Y145550D02*
X719442Y146549D01*
X721441D01*
X722441Y145550D01*
Y144550D01*
X721441Y143550D01*
X719442D01*
X718442Y142551D01*
Y141551D01*
X719442Y140551D01*
X721441D01*
X722441Y141551D01*
X716443Y140551D02*
X714443D01*
X715443D01*
Y144550D01*
X716443D01*
X711445Y140551D02*
Y144550D01*
X708446D01*
X707446Y143550D01*
Y140551D01*
X702447D02*
X705446Y143550D01*
X702447Y146549D01*
X699448Y143550D02*
X695450D01*
X693450D02*
X689452D01*
X687452D02*
X683454D01*
X722441Y160630D02*
Y166628D01*
X719442D01*
X718442Y165628D01*
Y163629D01*
X719442Y162629D01*
X722441D01*
X716443Y166628D02*
Y160630D01*
X712444D01*
X710445Y166628D02*
Y161630D01*
X709445Y160630D01*
X707446D01*
X706446Y161630D01*
Y166628D01*
X700448Y165628D02*
X701448Y166628D01*
X703447D01*
X704447Y165628D01*
Y164629D01*
X703447Y163629D01*
X701448D01*
X700448Y162629D01*
Y161630D01*
X701448Y160630D01*
X703447D01*
X704447Y161630D01*
X571654Y159843D02*
Y165841D01*
X568654D01*
X567655Y164841D01*
Y162842D01*
X568654Y161842D01*
X571654D01*
X565656Y165841D02*
Y159843D01*
X561657D01*
X559657Y165841D02*
Y160842D01*
X558658Y159843D01*
X556658D01*
X555659Y160842D01*
Y165841D01*
X549661Y164841D02*
X550660Y165841D01*
X552660D01*
X553659Y164841D01*
Y163841D01*
X552660Y162842D01*
X550660D01*
X549661Y161842D01*
Y160842D01*
X550660Y159843D01*
X552660D01*
X553659Y160842D01*
X576378Y120866D02*
Y126864D01*
X574379Y124865D01*
X572379Y126864D01*
Y120866D01*
X570380Y126864D02*
X568380D01*
X569380D01*
Y120866D01*
X570380D01*
X568380D01*
X565381D02*
Y126864D01*
X561383Y120866D01*
Y126864D01*
X559383D02*
Y121866D01*
X558384Y120866D01*
X556384D01*
X555385Y121866D01*
Y126864D01*
X549387Y125865D02*
X550386Y126864D01*
X552386D01*
X553385Y125865D01*
Y124865D01*
X552386Y123865D01*
X550386D01*
X549387Y122865D01*
Y121866D01*
X550386Y120866D01*
X552386D01*
X553385Y121866D01*
X721260Y121260D02*
Y127258D01*
X719261Y125259D01*
X717261Y127258D01*
Y121260D01*
X715262Y127258D02*
X713262D01*
X714262D01*
Y121260D01*
X715262D01*
X713262D01*
X710263D02*
Y127258D01*
X706265Y121260D01*
Y127258D01*
X704265D02*
Y122259D01*
X703266Y121260D01*
X701266D01*
X700267Y122259D01*
Y127258D01*
X694269Y126258D02*
X695268Y127258D01*
X697268D01*
X698267Y126258D01*
Y125259D01*
X697268Y124259D01*
X695268D01*
X694269Y123259D01*
Y122259D01*
X695268Y121260D01*
X697268D01*
X698267Y122259D01*
X721260Y54331D02*
Y60329D01*
X717261Y54331D01*
Y60329D01*
X711263Y59329D02*
X712263Y60329D01*
X714262D01*
X715262Y59329D01*
Y55330D01*
X714262Y54331D01*
X712263D01*
X711263Y55330D01*
X717655Y39644D02*
X718654Y40644D01*
X720654D01*
X721654Y39644D01*
Y35645D01*
X720654Y34646D01*
X718654D01*
X717655Y35645D01*
X712656Y40644D02*
X714656D01*
X715656Y39644D01*
Y35645D01*
X714656Y34646D01*
X712656D01*
X711657Y35645D01*
Y39644D01*
X712656Y40644D01*
X709657Y34646D02*
Y40644D01*
X707658Y38644D01*
X705659Y40644D01*
Y34646D01*
X722047Y15354D02*
Y21352D01*
X718048Y15354D01*
Y21352D01*
X713050D02*
X715050D01*
X716049Y20353D01*
Y16354D01*
X715050Y15354D01*
X713050D01*
X712050Y16354D01*
Y20353D01*
X713050Y21352D01*
X560236Y15748D02*
Y21746D01*
X556238Y15748D01*
Y21746D01*
X551239D02*
X553238D01*
X554238Y20746D01*
Y16748D01*
X553238Y15748D01*
X551239D01*
X550240Y16748D01*
Y20746D01*
X551239Y21746D01*
X560962Y40431D02*
X561962Y41431D01*
X563961D01*
X564961Y40431D01*
Y36433D01*
X563961Y35433D01*
X561962D01*
X560962Y36433D01*
X555964Y41431D02*
X557963D01*
X558963Y40431D01*
Y36433D01*
X557963Y35433D01*
X555964D01*
X554964Y36433D01*
Y40431D01*
X555964Y41431D01*
X552964Y35433D02*
Y41431D01*
X550965Y39432D01*
X548966Y41431D01*
Y35433D01*
X561417Y55118D02*
Y61116D01*
X557419Y55118D01*
Y61116D01*
X551421Y60116D02*
X552420Y61116D01*
X554420D01*
X555419Y60116D01*
Y56118D01*
X554420Y55118D01*
X552420D01*
X551421Y56118D01*
X727165Y274410D02*
Y280408D01*
X724166D01*
X723167Y279408D01*
Y277409D01*
X724166Y276409D01*
X727165D01*
X721167Y280408D02*
Y274410D01*
X717169D01*
X715169Y280408D02*
Y275409D01*
X714170Y274410D01*
X712170D01*
X711170Y275409D01*
Y280408D01*
X705172Y279408D02*
X706172Y280408D01*
X708172D01*
X709171Y279408D01*
Y278408D01*
X708172Y277409D01*
X706172D01*
X705172Y276409D01*
Y275409D01*
X706172Y274410D01*
X708172D01*
X709171Y275409D01*
X725591Y222441D02*
Y228439D01*
X722591D01*
X721592Y227439D01*
Y225440D01*
X722591Y224440D01*
X725591D01*
X719593Y228439D02*
Y222441D01*
X715594D01*
X713594Y228439D02*
Y223441D01*
X712595Y222441D01*
X710595D01*
X709596Y223441D01*
Y228439D01*
X703598Y227439D02*
X704597Y228439D01*
X706597D01*
X707596Y227439D01*
Y226440D01*
X706597Y225440D01*
X704597D01*
X703598Y224440D01*
Y223441D01*
X704597Y222441D01*
X706597D01*
X707596Y223441D01*
X724803Y245669D02*
Y251667D01*
X722804Y249668D01*
X720804Y251667D01*
Y245669D01*
X718805Y251667D02*
X716806D01*
X717805D01*
Y245669D01*
X718805D01*
X716806D01*
X713807D02*
Y251667D01*
X709808Y245669D01*
Y251667D01*
X707809D02*
Y246669D01*
X706809Y245669D01*
X704810D01*
X703810Y246669D01*
Y251667D01*
X697812Y250668D02*
X698812Y251667D01*
X700811D01*
X701811Y250668D01*
Y249668D01*
X700811Y248668D01*
X698812D01*
X697812Y247669D01*
Y246669D01*
X698812Y245669D01*
X700811D01*
X701811Y246669D01*
X727953Y193307D02*
Y199305D01*
X725953Y197306D01*
X723954Y199305D01*
Y193307D01*
X721955Y199305D02*
X719955D01*
X720955D01*
Y193307D01*
X721955D01*
X719955D01*
X716956D02*
Y199305D01*
X712958Y193307D01*
Y199305D01*
X710958D02*
Y194307D01*
X709959Y193307D01*
X707959D01*
X706960Y194307D01*
Y199305D01*
X700961Y198305D02*
X701961Y199305D01*
X703961D01*
X704960Y198305D01*
Y197306D01*
X703961Y196306D01*
X701961D01*
X700961Y195306D01*
Y194307D01*
X701961Y193307D01*
X703961D01*
X704960Y194307D01*
X727953Y212992D02*
Y216991D01*
X725953Y218990D01*
X723954Y216991D01*
Y212992D01*
Y215991D01*
X727953D01*
X721955D02*
X717956D01*
X719955Y217990D02*
Y213992D01*
X728346Y265354D02*
Y269353D01*
X726347Y271352D01*
X724348Y269353D01*
Y265354D01*
Y268353D01*
X728346D01*
X722348D02*
X718350D01*
X720349Y270353D02*
Y266354D01*
X728740Y261116D02*
Y255118D01*
X725741D01*
X724741Y256118D01*
Y257118D01*
X725741Y258117D01*
X728740D01*
X725741D01*
X724741Y259117D01*
Y260117D01*
X725741Y261116D01*
X728740D01*
X722742Y258117D02*
X718743D01*
X727953Y209148D02*
Y203150D01*
X724954D01*
X723954Y204149D01*
Y205149D01*
X724954Y206149D01*
X727953D01*
X724954D01*
X723954Y207148D01*
Y208148D01*
X724954Y209148D01*
X727953D01*
X721955Y206149D02*
X717956D01*
X580709Y337888D02*
X576710D01*
X578709D01*
Y331890D01*
X570712Y337888D02*
X574711D01*
Y331890D01*
X570712D01*
X574711Y334889D02*
X572711D01*
X564714Y336888D02*
X565714Y337888D01*
X567713D01*
X568713Y336888D01*
Y335889D01*
X567713Y334889D01*
X565714D01*
X564714Y333889D01*
Y332889D01*
X565714Y331890D01*
X567713D01*
X568713Y332889D01*
X562714Y337888D02*
X558716D01*
X560715D01*
Y331890D01*
X785039Y355906D02*
Y361904D01*
X782040D01*
X781041Y360904D01*
Y358905D01*
X782040Y357905D01*
X785039D01*
X783040D02*
X781041Y355906D01*
X775043Y361904D02*
X779041D01*
Y355906D01*
X775043D01*
X779041Y358905D02*
X777042D01*
X769044Y360904D02*
X770044Y361904D01*
X772044D01*
X773043Y360904D01*
Y359904D01*
X772044Y358905D01*
X770044D01*
X769044Y357905D01*
Y356905D01*
X770044Y355906D01*
X772044D01*
X773043Y356905D01*
X763047Y361904D02*
X767045D01*
Y355906D01*
X763047D01*
X767045Y358905D02*
X765046D01*
X761047Y361904D02*
X757048D01*
X759048D01*
Y355906D01*
X585283Y178740D02*
Y182739D01*
X587282Y180739D02*
X583283D01*
X174630Y586197D02*
G03*
X174630Y586197I-14000J0D01*
G01*
X92126Y777185D02*
X114126D01*
Y782185D01*
X92126Y777185D02*
Y782185D01*
X86126Y758185D02*
X117126D01*
Y782185D01*
X86126D02*
X117126D01*
X311696Y521654D02*
X325197D01*
Y513779D02*
Y521654D01*
X311696Y513779D02*
X325197D01*
X311696Y541339D02*
X325197D01*
Y533465D02*
Y541339D01*
X311696Y533465D02*
X325197D01*
X311696Y553150D02*
X325197D01*
Y561024D01*
X311696D02*
X325197D01*
X370866Y502953D02*
Y573425D01*
X311696Y502953D02*
X370866D01*
X311696D02*
Y573425D01*
X370866D01*
X318016Y627362D02*
X366535D01*
X318016Y578937D02*
Y627362D01*
Y578937D02*
X366535D01*
Y627362D01*
X318016Y621850D02*
X330709D01*
Y616339D02*
Y621850D01*
X318110Y616339D02*
X330709D01*
X318110Y606496D02*
X330709D01*
Y612008D01*
X318016D02*
X330709D01*
X318110Y596654D02*
X330709D01*
Y602165D01*
X318016D02*
X330709D01*
X318110Y586811D02*
X330709D01*
Y592323D01*
X318016D02*
X330709D01*
X318016Y679724D02*
X366535D01*
X318016Y631299D02*
Y679724D01*
Y631299D02*
X366535D01*
Y679724D01*
X318016Y674213D02*
X330709D01*
Y668701D02*
Y674213D01*
X318110Y668701D02*
X330709D01*
X318110Y658858D02*
X330709D01*
Y664370D01*
X318016D02*
X330709D01*
X318110Y649016D02*
X330709D01*
Y654528D01*
X318016D02*
X330709D01*
X318110Y639173D02*
X330709D01*
Y644685D01*
X318016D02*
X330709D01*
X399232Y713228D02*
Y723228D01*
Y713228D02*
X404232D01*
X399232Y723228D02*
X404232D01*
X380232Y708228D02*
Y730728D01*
Y708228D02*
X404232D01*
Y730728D01*
X39075Y676284D02*
Y717283D01*
X63075D01*
Y676284D02*
Y717283D01*
X39075Y682283D02*
X44075D01*
X39075Y712284D02*
X44075D01*
Y682283D02*
Y712284D01*
X119291Y448032D02*
X132792D01*
X119291D02*
Y455905D01*
X132792D01*
X119291Y428346D02*
X132792D01*
X119291D02*
Y436221D01*
X132792D01*
X119291Y416535D02*
X132792D01*
X119291Y408661D02*
Y416535D01*
Y408661D02*
X132792D01*
X73622Y396260D02*
Y466732D01*
X132792D01*
Y396260D02*
Y466732D01*
X73622Y396260D02*
X132792D01*
X119291Y552756D02*
X132792D01*
X119291D02*
Y560630D01*
X132792D01*
X119291Y533071D02*
X132792D01*
X119291D02*
Y540945D01*
X132792D01*
X119291Y521260D02*
X132792D01*
X119291Y513386D02*
Y521260D01*
Y513386D02*
X132792D01*
X73622Y500984D02*
Y571457D01*
X132792D01*
Y500984D02*
Y571457D01*
X73622Y500984D02*
X132792D01*
X329921Y720079D02*
Y725591D01*
X306299Y720079D02*
X307087Y718898D01*
X313386D01*
X314173Y720079D01*
X314961Y718898D01*
X321260D01*
X322047Y720079D01*
X322047D02*
X322835Y718898D01*
X329134D01*
X329921Y720079D01*
X329134Y726772D02*
X329921Y725591D01*
X322835Y726772D02*
X329134D01*
X322047Y725591D02*
X322835Y726772D01*
X321260D02*
X322047Y725591D01*
X314961Y726772D02*
X321260D01*
X314173Y725591D02*
X314961Y726772D01*
X313386D02*
X314173Y725591D01*
X307087Y726772D02*
X313386D01*
X306299Y725591D02*
X307087Y726772D01*
X304528Y727362D02*
X306299Y725591D01*
X304528Y718307D02*
X306299Y720079D01*
X311519Y415724D02*
X325020D01*
Y407850D02*
Y415724D01*
X311519Y407850D02*
X325020D01*
X311519Y435409D02*
X325020D01*
Y427535D02*
Y435409D01*
X311519Y427535D02*
X325020D01*
X311519Y447221D02*
X325020D01*
Y455094D01*
X311519D02*
X325020D01*
X370689Y397024D02*
Y467496D01*
X311519Y397024D02*
X370689D01*
X311519D02*
Y467496D01*
X370689D01*
X177316Y534646D02*
X180315Y537645D01*
X177316Y540644D01*
X174317Y537645D02*
X170318D01*
X168319D02*
X164320D01*
X162321D02*
X158322D01*
X152324Y539644D02*
X153324Y540644D01*
X155323D01*
X156323Y539644D01*
Y538644D01*
X155323Y537645D01*
X153324D01*
X152324Y536645D01*
Y535645D01*
X153324Y534646D01*
X155323D01*
X156323Y535645D01*
X149325Y534646D02*
X147326D01*
X146326Y535645D01*
Y537645D01*
X147326Y538644D01*
X149325D01*
X150325Y537645D01*
Y535645D01*
X149325Y534646D01*
X144327Y538644D02*
Y535645D01*
X143327Y534646D01*
X140328D01*
Y538644D01*
X137329Y539644D02*
Y538644D01*
X138329D01*
X136329D01*
X137329D01*
Y535645D01*
X136329Y534646D01*
X305056Y539250D02*
X306056Y540250D01*
X308055D01*
X309055Y539250D01*
Y538251D01*
X308055Y537251D01*
X306056D01*
X305056Y536251D01*
Y535252D01*
X306056Y534252D01*
X308055D01*
X309055Y535252D01*
X303057Y534252D02*
X301058D01*
X302057D01*
Y538251D01*
X303057D01*
X298059Y534252D02*
Y538251D01*
X295060D01*
X294060Y537251D01*
Y534252D01*
X289062D02*
X292061Y537251D01*
X289062Y540250D01*
X286063Y537251D02*
X282064D01*
X280065D02*
X276066D01*
X274066D02*
X270068D01*
X309055Y554331D02*
Y560329D01*
X306056D01*
X305056Y559329D01*
Y557330D01*
X306056Y556330D01*
X309055D01*
X303057Y560329D02*
Y554331D01*
X299058D01*
X297059Y560329D02*
Y555330D01*
X296059Y554331D01*
X294060D01*
X293060Y555330D01*
Y560329D01*
X287062Y559329D02*
X288062Y560329D01*
X290061D01*
X291061Y559329D01*
Y558329D01*
X290061Y557330D01*
X288062D01*
X287062Y556330D01*
Y555330D01*
X288062Y554331D01*
X290061D01*
X291061Y555330D01*
X158268Y553543D02*
Y559541D01*
X155269D01*
X154269Y558542D01*
Y556542D01*
X155269Y555543D01*
X158268D01*
X152270Y559541D02*
Y553543D01*
X148271D01*
X146272Y559541D02*
Y554543D01*
X145272Y553543D01*
X143273D01*
X142273Y554543D01*
Y559541D01*
X136275Y558542D02*
X137275Y559541D01*
X139274D01*
X140273Y558542D01*
Y557542D01*
X139274Y556542D01*
X137275D01*
X136275Y555543D01*
Y554543D01*
X137275Y553543D01*
X139274D01*
X140273Y554543D01*
X162992Y514567D02*
Y520565D01*
X160993Y518566D01*
X158993Y520565D01*
Y514567D01*
X156994Y520565D02*
X154995D01*
X155994D01*
Y514567D01*
X156994D01*
X154995D01*
X151996D02*
Y520565D01*
X147997Y514567D01*
Y520565D01*
X145998D02*
Y515567D01*
X144998Y514567D01*
X142999D01*
X141999Y515567D01*
Y520565D01*
X136001Y519565D02*
X137001Y520565D01*
X139000D01*
X140000Y519565D01*
Y518566D01*
X139000Y517566D01*
X137001D01*
X136001Y516566D01*
Y515567D01*
X137001Y514567D01*
X139000D01*
X140000Y515567D01*
X307874Y514961D02*
Y520959D01*
X305875Y518959D01*
X303875Y520959D01*
Y514961D01*
X301876Y520959D02*
X299877D01*
X300876D01*
Y514961D01*
X301876D01*
X299877D01*
X296878D02*
Y520959D01*
X292879Y514961D01*
Y520959D01*
X290880D02*
Y515960D01*
X289880Y514961D01*
X287880D01*
X286881Y515960D01*
Y520959D01*
X280883Y519959D02*
X281882Y520959D01*
X283882D01*
X284881Y519959D01*
Y518959D01*
X283882Y517960D01*
X281882D01*
X280883Y516960D01*
Y515960D01*
X281882Y514961D01*
X283882D01*
X284881Y515960D01*
X307874Y448032D02*
Y454030D01*
X303875Y448032D01*
Y454030D01*
X297877Y453030D02*
X298877Y454030D01*
X300876D01*
X301876Y453030D01*
Y449031D01*
X300876Y448032D01*
X298877D01*
X297877Y449031D01*
X304269Y433345D02*
X305269Y434344D01*
X307268D01*
X308268Y433345D01*
Y429346D01*
X307268Y428346D01*
X305269D01*
X304269Y429346D01*
X299271Y434344D02*
X301270D01*
X302270Y433345D01*
Y429346D01*
X301270Y428346D01*
X299271D01*
X298271Y429346D01*
Y433345D01*
X299271Y434344D01*
X296272Y428346D02*
Y434344D01*
X294272Y432345D01*
X292273Y434344D01*
Y428346D01*
X308661Y409055D02*
Y415053D01*
X304663Y409055D01*
Y415053D01*
X299664D02*
X301664D01*
X302663Y414053D01*
Y410055D01*
X301664Y409055D01*
X299664D01*
X298665Y410055D01*
Y414053D01*
X299664Y415053D01*
X146850Y409449D02*
Y415447D01*
X142852Y409449D01*
Y415447D01*
X137853D02*
X139853D01*
X140852Y414447D01*
Y410449D01*
X139853Y409449D01*
X137853D01*
X136854Y410449D01*
Y414447D01*
X137853Y415447D01*
X147576Y434132D02*
X148576Y435132D01*
X150575D01*
X151575Y434132D01*
Y430133D01*
X150575Y429134D01*
X148576D01*
X147576Y430133D01*
X142578Y435132D02*
X144577D01*
X145577Y434132D01*
Y430133D01*
X144577Y429134D01*
X142578D01*
X141578Y430133D01*
Y434132D01*
X142578Y435132D01*
X139579Y429134D02*
Y435132D01*
X137579Y433133D01*
X135580Y435132D01*
Y429134D01*
X148031Y448819D02*
Y454817D01*
X144033Y448819D01*
Y454817D01*
X138035Y453817D02*
X139034Y454817D01*
X141034D01*
X142033Y453817D01*
Y449819D01*
X141034Y448819D01*
X139034D01*
X138035Y449819D01*
X313779Y668110D02*
Y674108D01*
X310781D01*
X309781Y673109D01*
Y671109D01*
X310781Y670110D01*
X313779D01*
X307782Y674108D02*
Y668110D01*
X303783D01*
X301783Y674108D02*
Y669110D01*
X300784Y668110D01*
X298784D01*
X297785Y669110D01*
Y674108D01*
X291787Y673109D02*
X292786Y674108D01*
X294786D01*
X295785Y673109D01*
Y672109D01*
X294786Y671109D01*
X292786D01*
X291787Y670110D01*
Y669110D01*
X292786Y668110D01*
X294786D01*
X295785Y669110D01*
X312205Y616142D02*
Y622140D01*
X309206D01*
X308206Y621140D01*
Y619141D01*
X309206Y618141D01*
X312205D01*
X306207Y622140D02*
Y616142D01*
X302208D01*
X300209Y622140D02*
Y617141D01*
X299209Y616142D01*
X297210D01*
X296210Y617141D01*
Y622140D01*
X290212Y621140D02*
X291212Y622140D01*
X293211D01*
X294211Y621140D01*
Y620140D01*
X293211Y619141D01*
X291212D01*
X290212Y618141D01*
Y617141D01*
X291212Y616142D01*
X293211D01*
X294211Y617141D01*
X311417Y639370D02*
Y645368D01*
X309418Y643369D01*
X307419Y645368D01*
Y639370D01*
X305419Y645368D02*
X303420D01*
X304420D01*
Y639370D01*
X305419D01*
X303420D01*
X300421D02*
Y645368D01*
X296422Y639370D01*
Y645368D01*
X294423D02*
Y640370D01*
X293423Y639370D01*
X291424D01*
X290424Y640370D01*
Y645368D01*
X284426Y644369D02*
X285426Y645368D01*
X287425D01*
X288425Y644369D01*
Y643369D01*
X287425Y642369D01*
X285426D01*
X284426Y641369D01*
Y640370D01*
X285426Y639370D01*
X287425D01*
X288425Y640370D01*
X314567Y587008D02*
Y593006D01*
X312568Y591007D01*
X310568Y593006D01*
Y587008D01*
X308569Y593006D02*
X306570D01*
X307569D01*
Y587008D01*
X308569D01*
X306570D01*
X303571D02*
Y593006D01*
X299572Y587008D01*
Y593006D01*
X297572D02*
Y588007D01*
X296573Y587008D01*
X294573D01*
X293574Y588007D01*
Y593006D01*
X287576Y592006D02*
X288575Y593006D01*
X290575D01*
X291574Y592006D01*
Y591007D01*
X290575Y590007D01*
X288575D01*
X287576Y589007D01*
Y588007D01*
X288575Y587008D01*
X290575D01*
X291574Y588007D01*
X314567Y606693D02*
Y610692D01*
X312568Y612691D01*
X310568Y610692D01*
Y606693D01*
Y609692D01*
X314567D01*
X308569D02*
X304570D01*
X306570Y611691D02*
Y607693D01*
X314961Y659055D02*
Y663054D01*
X312961Y665053D01*
X310962Y663054D01*
Y659055D01*
Y662054D01*
X314961D01*
X308963D02*
X304964D01*
X306963Y664053D02*
Y660055D01*
X315354Y654817D02*
Y648819D01*
X312355D01*
X311356Y649819D01*
Y650818D01*
X312355Y651818D01*
X315354D01*
X312355D01*
X311356Y652818D01*
Y653817D01*
X312355Y654817D01*
X315354D01*
X309356Y651818D02*
X305358D01*
X314567Y602848D02*
Y596850D01*
X311568D01*
X310568Y597850D01*
Y598850D01*
X311568Y599849D01*
X314567D01*
X311568D01*
X310568Y600849D01*
Y601849D01*
X311568Y602848D01*
X314567D01*
X308569Y599849D02*
X304570D01*
X167323Y731589D02*
X163324D01*
X165323D01*
Y725591D01*
X157326Y731589D02*
X161325D01*
Y725591D01*
X157326D01*
X161325Y728590D02*
X159325D01*
X151328Y730589D02*
X152328Y731589D01*
X154327D01*
X155327Y730589D01*
Y729589D01*
X154327Y728590D01*
X152328D01*
X151328Y727590D01*
Y726590D01*
X152328Y725591D01*
X154327D01*
X155327Y726590D01*
X149329Y731589D02*
X145330D01*
X147329D01*
Y725591D01*
X371654Y749606D02*
Y755604D01*
X368654D01*
X367655Y754605D01*
Y752605D01*
X368654Y751606D01*
X371654D01*
X369654D02*
X367655Y749606D01*
X361657Y755604D02*
X365655D01*
Y749606D01*
X361657D01*
X365655Y752605D02*
X363656D01*
X355659Y754605D02*
X356658Y755604D01*
X358658D01*
X359657Y754605D01*
Y753605D01*
X358658Y752605D01*
X356658D01*
X355659Y751606D01*
Y750606D01*
X356658Y749606D01*
X358658D01*
X359657Y750606D01*
X349661Y755604D02*
X353659D01*
Y749606D01*
X349661D01*
X353659Y752605D02*
X351660D01*
X347661Y755604D02*
X343663D01*
X345662D01*
Y749606D01*
X171897Y572441D02*
Y576440D01*
X173896Y574440D02*
X169897D01*
X588016Y586197D02*
G03*
X588016Y586197I-14000J0D01*
G01*
X505512Y777185D02*
X527512D01*
Y782185D01*
X505512Y777185D02*
Y782185D01*
X499512Y758185D02*
X530512D01*
Y782185D01*
X499512D02*
X530512D01*
X725081Y521654D02*
X738583D01*
Y513779D02*
Y521654D01*
X725081Y513779D02*
X738583D01*
X725081Y541339D02*
X738583D01*
Y533465D02*
Y541339D01*
X725081Y533465D02*
X738583D01*
X725081Y553150D02*
X738583D01*
Y561024D01*
X725081D02*
X738583D01*
X784252Y502953D02*
Y573425D01*
X725081Y502953D02*
X784252D01*
X725081D02*
Y573425D01*
X784252D01*
X731402Y627362D02*
X779921D01*
X731402Y578937D02*
Y627362D01*
Y578937D02*
X779921D01*
Y627362D01*
X731402Y621850D02*
X744095D01*
Y616339D02*
Y621850D01*
X731496Y616339D02*
X744095D01*
X731496Y606496D02*
X744095D01*
Y612008D01*
X731402D02*
X744095D01*
X731496Y596654D02*
X744095D01*
Y602165D01*
X731402D02*
X744095D01*
X731496Y586811D02*
X744095D01*
Y592323D01*
X731402D02*
X744095D01*
X731402Y679724D02*
X779921D01*
X731402Y631299D02*
Y679724D01*
Y631299D02*
X779921D01*
Y679724D01*
X731402Y674213D02*
X744095D01*
Y668701D02*
Y674213D01*
X731496Y668701D02*
X744095D01*
X731496Y658858D02*
X744095D01*
Y664370D01*
X731402D02*
X744095D01*
X731496Y649016D02*
X744095D01*
Y654528D01*
X731402D02*
X744095D01*
X731496Y639173D02*
X744095D01*
Y644685D01*
X731402D02*
X744095D01*
X812618Y713228D02*
Y723228D01*
Y713228D02*
X817618D01*
X812618Y723228D02*
X817618D01*
X793618Y708228D02*
Y730728D01*
Y708228D02*
X817618D01*
Y730728D01*
X452461Y676284D02*
Y717283D01*
X476461D01*
Y676284D02*
Y717283D01*
X452461Y682283D02*
X457461D01*
X452461Y712284D02*
X457461D01*
Y682283D02*
Y712284D01*
X532677Y448032D02*
X546178D01*
X532677D02*
Y455905D01*
X546178D01*
X532677Y428346D02*
X546178D01*
X532677D02*
Y436221D01*
X546178D01*
X532677Y416535D02*
X546178D01*
X532677Y408661D02*
Y416535D01*
Y408661D02*
X546178D01*
X487008Y396260D02*
Y466732D01*
X546178D01*
Y396260D02*
Y466732D01*
X487008Y396260D02*
X546178D01*
X532677Y552756D02*
X546178D01*
X532677D02*
Y560630D01*
X546178D01*
X532677Y533071D02*
X546178D01*
X532677D02*
Y540945D01*
X546178D01*
X532677Y521260D02*
X546178D01*
X532677Y513386D02*
Y521260D01*
Y513386D02*
X546178D01*
X487008Y500984D02*
Y571457D01*
X546178D01*
Y500984D02*
Y571457D01*
X487008Y500984D02*
X546178D01*
X743307Y720079D02*
Y725591D01*
X719685Y720079D02*
X720472Y718898D01*
X726772D01*
X727559Y720079D01*
X728346Y718898D01*
X734646D01*
X735433Y720079D01*
X735433D02*
X736221Y718898D01*
X742520D01*
X743307Y720079D01*
X742520Y726772D02*
X743307Y725591D01*
X736221Y726772D02*
X742520D01*
X735433Y725591D02*
X736221Y726772D01*
X734646D02*
X735433Y725591D01*
X728346Y726772D02*
X734646D01*
X727559Y725591D02*
X728346Y726772D01*
X726772D02*
X727559Y725591D01*
X720472Y726772D02*
X726772D01*
X719685Y725591D02*
X720472Y726772D01*
X717913Y727362D02*
X719685Y725591D01*
X717913Y718307D02*
X719685Y720079D01*
X724904Y415724D02*
X738406D01*
Y407850D02*
Y415724D01*
X724904Y407850D02*
X738406D01*
X724904Y435409D02*
X738406D01*
Y427535D02*
Y435409D01*
X724904Y427535D02*
X738406D01*
X724904Y447221D02*
X738406D01*
Y455094D01*
X724904D02*
X738406D01*
X784075Y397024D02*
Y467496D01*
X724904Y397024D02*
X784075D01*
X724904D02*
Y467496D01*
X784075D01*
X590702Y534646D02*
X593701Y537645D01*
X590702Y540644D01*
X587703Y537645D02*
X583704D01*
X581705D02*
X577706D01*
X575707D02*
X571708D01*
X565710Y539644D02*
X566710Y540644D01*
X568709D01*
X569709Y539644D01*
Y538644D01*
X568709Y537645D01*
X566710D01*
X565710Y536645D01*
Y535645D01*
X566710Y534646D01*
X568709D01*
X569709Y535645D01*
X562711Y534646D02*
X560711D01*
X559712Y535645D01*
Y537645D01*
X560711Y538644D01*
X562711D01*
X563710Y537645D01*
Y535645D01*
X562711Y534646D01*
X557712Y538644D02*
Y535645D01*
X556713Y534646D01*
X553714D01*
Y538644D01*
X550715Y539644D02*
Y538644D01*
X551714D01*
X549715D01*
X550715D01*
Y535645D01*
X549715Y534646D01*
X718442Y539250D02*
X719442Y540250D01*
X721441D01*
X722441Y539250D01*
Y538251D01*
X721441Y537251D01*
X719442D01*
X718442Y536251D01*
Y535252D01*
X719442Y534252D01*
X721441D01*
X722441Y535252D01*
X716443Y534252D02*
X714443D01*
X715443D01*
Y538251D01*
X716443D01*
X711445Y534252D02*
Y538251D01*
X708446D01*
X707446Y537251D01*
Y534252D01*
X702447D02*
X705446Y537251D01*
X702447Y540250D01*
X699448Y537251D02*
X695450D01*
X693450D02*
X689452D01*
X687452D02*
X683454D01*
X722441Y554331D02*
Y560329D01*
X719442D01*
X718442Y559329D01*
Y557330D01*
X719442Y556330D01*
X722441D01*
X716443Y560329D02*
Y554331D01*
X712444D01*
X710445Y560329D02*
Y555330D01*
X709445Y554331D01*
X707446D01*
X706446Y555330D01*
Y560329D01*
X700448Y559329D02*
X701448Y560329D01*
X703447D01*
X704447Y559329D01*
Y558329D01*
X703447Y557330D01*
X701448D01*
X700448Y556330D01*
Y555330D01*
X701448Y554331D01*
X703447D01*
X704447Y555330D01*
X571654Y553543D02*
Y559541D01*
X568654D01*
X567655Y558542D01*
Y556542D01*
X568654Y555543D01*
X571654D01*
X565656Y559541D02*
Y553543D01*
X561657D01*
X559657Y559541D02*
Y554543D01*
X558658Y553543D01*
X556658D01*
X555659Y554543D01*
Y559541D01*
X549661Y558542D02*
X550660Y559541D01*
X552660D01*
X553659Y558542D01*
Y557542D01*
X552660Y556542D01*
X550660D01*
X549661Y555543D01*
Y554543D01*
X550660Y553543D01*
X552660D01*
X553659Y554543D01*
X576378Y514567D02*
Y520565D01*
X574379Y518566D01*
X572379Y520565D01*
Y514567D01*
X570380Y520565D02*
X568380D01*
X569380D01*
Y514567D01*
X570380D01*
X568380D01*
X565381D02*
Y520565D01*
X561383Y514567D01*
Y520565D01*
X559383D02*
Y515567D01*
X558384Y514567D01*
X556384D01*
X555385Y515567D01*
Y520565D01*
X549387Y519565D02*
X550386Y520565D01*
X552386D01*
X553385Y519565D01*
Y518566D01*
X552386Y517566D01*
X550386D01*
X549387Y516566D01*
Y515567D01*
X550386Y514567D01*
X552386D01*
X553385Y515567D01*
X721260Y514961D02*
Y520959D01*
X719261Y518959D01*
X717261Y520959D01*
Y514961D01*
X715262Y520959D02*
X713262D01*
X714262D01*
Y514961D01*
X715262D01*
X713262D01*
X710263D02*
Y520959D01*
X706265Y514961D01*
Y520959D01*
X704265D02*
Y515960D01*
X703266Y514961D01*
X701266D01*
X700267Y515960D01*
Y520959D01*
X694269Y519959D02*
X695268Y520959D01*
X697268D01*
X698267Y519959D01*
Y518959D01*
X697268Y517960D01*
X695268D01*
X694269Y516960D01*
Y515960D01*
X695268Y514961D01*
X697268D01*
X698267Y515960D01*
X721260Y448032D02*
Y454030D01*
X717261Y448032D01*
Y454030D01*
X711263Y453030D02*
X712263Y454030D01*
X714262D01*
X715262Y453030D01*
Y449031D01*
X714262Y448032D01*
X712263D01*
X711263Y449031D01*
X717655Y433345D02*
X718654Y434344D01*
X720654D01*
X721654Y433345D01*
Y429346D01*
X720654Y428346D01*
X718654D01*
X717655Y429346D01*
X712656Y434344D02*
X714656D01*
X715656Y433345D01*
Y429346D01*
X714656Y428346D01*
X712656D01*
X711657Y429346D01*
Y433345D01*
X712656Y434344D01*
X709657Y428346D02*
Y434344D01*
X707658Y432345D01*
X705659Y434344D01*
Y428346D01*
X722047Y409055D02*
Y415053D01*
X718048Y409055D01*
Y415053D01*
X713050D02*
X715050D01*
X716049Y414053D01*
Y410055D01*
X715050Y409055D01*
X713050D01*
X712050Y410055D01*
Y414053D01*
X713050Y415053D01*
X560236Y409449D02*
Y415447D01*
X556238Y409449D01*
Y415447D01*
X551239D02*
X553238D01*
X554238Y414447D01*
Y410449D01*
X553238Y409449D01*
X551239D01*
X550240Y410449D01*
Y414447D01*
X551239Y415447D01*
X560962Y434132D02*
X561962Y435132D01*
X563961D01*
X564961Y434132D01*
Y430133D01*
X563961Y429134D01*
X561962D01*
X560962Y430133D01*
X555964Y435132D02*
X557963D01*
X558963Y434132D01*
Y430133D01*
X557963Y429134D01*
X555964D01*
X554964Y430133D01*
Y434132D01*
X555964Y435132D01*
X552964Y429134D02*
Y435132D01*
X550965Y433133D01*
X548966Y435132D01*
Y429134D01*
X561417Y448819D02*
Y454817D01*
X557419Y448819D01*
Y454817D01*
X551421Y453817D02*
X552420Y454817D01*
X554420D01*
X555419Y453817D01*
Y449819D01*
X554420Y448819D01*
X552420D01*
X551421Y449819D01*
X727165Y668110D02*
Y674108D01*
X724166D01*
X723167Y673109D01*
Y671109D01*
X724166Y670110D01*
X727165D01*
X721167Y674108D02*
Y668110D01*
X717169D01*
X715169Y674108D02*
Y669110D01*
X714170Y668110D01*
X712170D01*
X711170Y669110D01*
Y674108D01*
X705172Y673109D02*
X706172Y674108D01*
X708172D01*
X709171Y673109D01*
Y672109D01*
X708172Y671109D01*
X706172D01*
X705172Y670110D01*
Y669110D01*
X706172Y668110D01*
X708172D01*
X709171Y669110D01*
X725591Y616142D02*
Y622140D01*
X722591D01*
X721592Y621140D01*
Y619141D01*
X722591Y618141D01*
X725591D01*
X719593Y622140D02*
Y616142D01*
X715594D01*
X713594Y622140D02*
Y617141D01*
X712595Y616142D01*
X710595D01*
X709596Y617141D01*
Y622140D01*
X703598Y621140D02*
X704597Y622140D01*
X706597D01*
X707596Y621140D01*
Y620140D01*
X706597Y619141D01*
X704597D01*
X703598Y618141D01*
Y617141D01*
X704597Y616142D01*
X706597D01*
X707596Y617141D01*
X724803Y639370D02*
Y645368D01*
X722804Y643369D01*
X720804Y645368D01*
Y639370D01*
X718805Y645368D02*
X716806D01*
X717805D01*
Y639370D01*
X718805D01*
X716806D01*
X713807D02*
Y645368D01*
X709808Y639370D01*
Y645368D01*
X707809D02*
Y640370D01*
X706809Y639370D01*
X704810D01*
X703810Y640370D01*
Y645368D01*
X697812Y644369D02*
X698812Y645368D01*
X700811D01*
X701811Y644369D01*
Y643369D01*
X700811Y642369D01*
X698812D01*
X697812Y641369D01*
Y640370D01*
X698812Y639370D01*
X700811D01*
X701811Y640370D01*
X727953Y587008D02*
Y593006D01*
X725953Y591007D01*
X723954Y593006D01*
Y587008D01*
X721955Y593006D02*
X719955D01*
X720955D01*
Y587008D01*
X721955D01*
X719955D01*
X716956D02*
Y593006D01*
X712958Y587008D01*
Y593006D01*
X710958D02*
Y588007D01*
X709959Y587008D01*
X707959D01*
X706960Y588007D01*
Y593006D01*
X700961Y592006D02*
X701961Y593006D01*
X703961D01*
X704960Y592006D01*
Y591007D01*
X703961Y590007D01*
X701961D01*
X700961Y589007D01*
Y588007D01*
X701961Y587008D01*
X703961D01*
X704960Y588007D01*
X727953Y606693D02*
Y610692D01*
X725953Y612691D01*
X723954Y610692D01*
Y606693D01*
Y609692D01*
X727953D01*
X721955D02*
X717956D01*
X719955Y611691D02*
Y607693D01*
X728346Y659055D02*
Y663054D01*
X726347Y665053D01*
X724348Y663054D01*
Y659055D01*
Y662054D01*
X728346D01*
X722348D02*
X718350D01*
X720349Y664053D02*
Y660055D01*
X728740Y654817D02*
Y648819D01*
X725741D01*
X724741Y649819D01*
Y650818D01*
X725741Y651818D01*
X728740D01*
X725741D01*
X724741Y652818D01*
Y653817D01*
X725741Y654817D01*
X728740D01*
X722742Y651818D02*
X718743D01*
X727953Y602848D02*
Y596850D01*
X724954D01*
X723954Y597850D01*
Y598850D01*
X724954Y599849D01*
X727953D01*
X724954D01*
X723954Y600849D01*
Y601849D01*
X724954Y602848D01*
X727953D01*
X721955Y599849D02*
X717956D01*
X580709Y731589D02*
X576710D01*
X578709D01*
Y725591D01*
X570712Y731589D02*
X574711D01*
Y725591D01*
X570712D01*
X574711Y728590D02*
X572711D01*
X564714Y730589D02*
X565714Y731589D01*
X567713D01*
X568713Y730589D01*
Y729589D01*
X567713Y728590D01*
X565714D01*
X564714Y727590D01*
Y726590D01*
X565714Y725591D01*
X567713D01*
X568713Y726590D01*
X562714Y731589D02*
X558716D01*
X560715D01*
Y725591D01*
X785039Y749606D02*
Y755604D01*
X782040D01*
X781041Y754605D01*
Y752605D01*
X782040Y751606D01*
X785039D01*
X783040D02*
X781041Y749606D01*
X775043Y755604D02*
X779041D01*
Y749606D01*
X775043D01*
X779041Y752605D02*
X777042D01*
X769044Y754605D02*
X770044Y755604D01*
X772044D01*
X773043Y754605D01*
Y753605D01*
X772044Y752605D01*
X770044D01*
X769044Y751606D01*
Y750606D01*
X770044Y749606D01*
X772044D01*
X773043Y750606D01*
X763047Y755604D02*
X767045D01*
Y749606D01*
X763047D01*
X767045Y752605D02*
X765046D01*
X761047Y755604D02*
X757048D01*
X759048D01*
Y749606D01*
X585283Y572441D02*
Y576440D01*
X587282Y574440D02*
X583283D01*
X0Y0D02*
Y393701D01*
X413386D01*
Y0D02*
Y393701D01*
X0Y0D02*
X413386D01*
X413386D02*
Y393701D01*
X826772D01*
Y0D02*
Y393701D01*
X413386Y0D02*
X826772D01*
X0Y393701D02*
Y787402D01*
X413386D01*
Y393701D02*
Y787402D01*
X0Y393701D02*
X413386D01*
X413386D02*
Y787402D01*
X826772D01*
Y393701D02*
Y787402D01*
X413386Y393701D02*
X826772D01*
D46*
X86126Y364484D02*
Y388484D01*
X380232Y337028D02*
X404232D01*
X298031Y325787D02*
X299213Y324606D01*
X298031Y325787D02*
Y332677D01*
X299016Y333661D01*
X304528D01*
X299213Y324606D02*
X304528D01*
X499512Y364484D02*
Y388484D01*
X793618Y337028D02*
X817618D01*
X711417Y325787D02*
X712598Y324606D01*
X711417Y325787D02*
Y332677D01*
X712402Y333661D01*
X717913D01*
X712598Y324606D02*
X717913D01*
X86126Y758185D02*
Y782185D01*
X380232Y730728D02*
X404232D01*
X298031Y719488D02*
X299213Y718307D01*
X298031Y719488D02*
Y726378D01*
X299016Y727362D01*
X304528D01*
X299213Y718307D02*
X304528D01*
X499512Y758185D02*
Y782185D01*
X793618Y730728D02*
X817618D01*
X711417Y719488D02*
X712598Y718307D01*
X711417Y719488D02*
Y726378D01*
X712402Y727362D01*
X717913D01*
X712598Y718307D02*
X717913D01*
D50*
X370866Y337008D02*
Y343307D01*
X353150Y328346D02*
X364961D01*
X353150Y351969D02*
X364961D01*
X347244Y337008D02*
Y343307D01*
X146457Y314173D02*
Y320472D01*
X152362Y329134D02*
X164173D01*
X152362Y305512D02*
X164173D01*
X170079Y314173D02*
Y320472D01*
X373740Y282716D02*
X383740D01*
X373740Y262717D02*
Y282716D01*
Y262717D02*
X383740D01*
Y282716D01*
X309567Y302716D02*
X319567D01*
Y322716D01*
X309567D02*
X319567D01*
X309567Y302716D02*
Y322716D01*
X373740Y242480D02*
X383740D01*
Y262480D01*
X373740D02*
X383740D01*
X373740Y242480D02*
Y262480D01*
X784252Y337008D02*
Y343307D01*
X766535Y328346D02*
X778346D01*
X766535Y351969D02*
X778346D01*
X760630Y337008D02*
Y343307D01*
X559842Y314173D02*
Y320472D01*
X565748Y329134D02*
X577559D01*
X565748Y305512D02*
X577559D01*
X583465Y314173D02*
Y320472D01*
X787126Y282716D02*
X797126D01*
X787126Y262717D02*
Y282716D01*
Y262717D02*
X797126D01*
Y282716D01*
X722953Y302716D02*
X732953D01*
Y322716D01*
X722953D02*
X732953D01*
X722953Y302716D02*
Y322716D01*
X787126Y242480D02*
X797126D01*
Y262480D01*
X787126D02*
X797126D01*
X787126Y242480D02*
Y262480D01*
X370866Y730709D02*
Y737008D01*
X353150Y722047D02*
X364961D01*
X353150Y745669D02*
X364961D01*
X347244Y730709D02*
Y737008D01*
X146457Y707874D02*
Y714173D01*
X152362Y722835D02*
X164173D01*
X152362Y699213D02*
X164173D01*
X170079Y707874D02*
Y714173D01*
X373740Y676417D02*
X383740D01*
X373740Y656417D02*
Y676417D01*
Y656417D02*
X383740D01*
Y676417D01*
X309567Y696417D02*
X319567D01*
Y716417D01*
X309567D02*
X319567D01*
X309567Y696417D02*
Y716417D01*
X373740Y636181D02*
X383740D01*
Y656181D01*
X373740D02*
X383740D01*
X373740Y636181D02*
Y656181D01*
X784252Y730709D02*
Y737008D01*
X766535Y722047D02*
X778346D01*
X766535Y745669D02*
X778346D01*
X760630Y730709D02*
Y737008D01*
X559842Y707874D02*
Y714173D01*
X565748Y722835D02*
X577559D01*
X565748Y699213D02*
X577559D01*
X583465Y707874D02*
Y714173D01*
X787126Y676417D02*
X797126D01*
X787126Y656417D02*
Y676417D01*
Y656417D02*
X797126D01*
Y676417D01*
X722953Y696417D02*
X732953D01*
Y716417D01*
X722953D02*
X732953D01*
X722953Y696417D02*
Y716417D01*
X787126Y636181D02*
X797126D01*
Y656181D01*
X787126D02*
X797126D01*
X787126Y636181D02*
Y656181D01*
D65*
X39075Y282583D02*
X63075D01*
X452461D02*
X476461D01*
X39075Y676284D02*
X63075D01*
X452461D02*
X476461D01*
M02*
