M48
;Layer_Color=9474304
;FILE_FORMAT=2:5
INCH,LZ
;TYPE=PLATED
T1F00S00C0.02362
T2F00S00C0.02800
T3F00S00C0.03150
T4F00S00C0.03200
T5F00S00C0.03937
T6F00S00C0.04000
T7F00S00C0.04724
T8F00S00C0.08268
T9F00S00C0.12598
%
T01
X0051575Y0157087
X0052362Y0222047
X0051181Y0266142
X002874Y027126
X0042913Y0286221
X0092126Y0307087
X0138976Y0301575
X0135039Y0284646
X0172835Y0290945
X017126Y0298031
X0183858Y0302362
X0183465Y0277953
X0179528Y0273622
X0175984Y0268898
X0170866Y0263779
X0187402Y0272835
X0200394Y0287008
X0203937Y0292913
X0211417Y0293701
X0221654Y0301969
X0238583Y0305118
X0239764Y0298031
Y0288583
X025315Y0288976
X0259842Y0287402
X025315Y0301575
X0265354Y0271654
X0272835Y0268504
X0273622Y0277953
X0277953Y0282677
X0280315Y0260236
X0272835Y0252756
X0267717Y0245276
X0245669Y0248819
X0247244Y0260236
X0245669Y0266535
X0249606Y0216142
X0240158Y021063
X0220866Y022559
X0212992Y0233858
X0213699Y0242045
X0199213Y0248819
Y0255906
X0177953Y0242126
X0170866Y0216142
X0162205Y0211417
X0180709Y0197244
X0140157Y0236614
X0284646Y0229921
X0285039Y0157087
X0314173Y0230315
X0314567Y0248819
X0298819Y0246063
X0305118Y0262992
X0297244Y0287402
Y0308661
X0314567Y0295276
X0333858Y0294882
X0383071Y0294094
X0386221Y0288976
X0385827Y0283071
X0395669Y0296457
X0398031Y0264961
Y025748
X0392126Y0233465
X0398031Y0225984
Y0194488
X0385827Y0202756
X0442126Y027126
X0464567Y0266142
X0456299Y0286221
X0505512Y0307087
X0552362Y0301575
X0548425Y0284646
X0586221Y0290945
X0584646Y0298031
X0597244Y0302362
X059685Y0277953
X0592913Y0273622
X058937Y0268898
X0584252Y0263779
X0600787Y0272835
X0591339Y0242126
X0584252Y0216142
X0575591Y0211417
X0594095Y0197244
X0553543Y0236614
X0465748Y0222047
X0464961Y0157087
X0698425
X0698032Y0229921
X0727559Y0230315
X0727953Y0248819
X0712205Y0246063
X0718504Y0262992
X0693701Y0260236
X0686221Y0252756
X0681102Y0245276
X0659055Y0248819
X066063Y0260236
X0659055Y0266535
X067874Y0271654
X0686221Y0268504
X0687008Y0277953
X0691339Y0282677
X0673228Y0287402
X0666535Y0288976
Y0301575
X065315Y0298031
X0651968Y0305118
X065315Y0288583
X0635039Y0301969
X0624803Y0293701
X0617323Y0292913
X0613779Y0287008
X0612598Y0255906
Y0248819
X0627085Y0242045
X0626378Y0233858
X0634252Y022559
X0653543Y021063
X0662992Y0216142
X071063Y0287402
Y0308661
X0727953Y0295276
X0747244Y0294882
X0796457Y0294094
X0799606Y0288976
X0799213Y0283071
X0809055Y0296457
X0811417Y0264961
Y025748
X0805512Y0233465
X0811417Y0225984
Y0194488
X0799213Y0202756
X0653937Y0318898
X0646063Y0316142
X0629921Y0318898
X0625984Y0311024
X0619291Y0339764
X0640551Y0348425
X0646457Y034685
X0598819Y0344488
X0584646Y0338189
X0550394Y0347244
X0525591Y0345276
X0496457Y0342913
X0233071Y034685
X0227165Y0348425
X0205906Y0339764
X0185433Y0344488
X017126Y0338189
X0216535Y0318898
X0212598Y0311024
X0232677Y0316142
X0240551Y0318898
X0137008Y0347244
X0112205Y0345276
X0083071Y0342913
X0051575Y0550787
X0052362Y0615748
X0162205Y0605118
X0170866Y0609842
X0180709Y0590945
X0220866Y0619291
X0240158Y0604331
X0249606Y0609842
X0285039Y0550787
X0385827Y0596457
X0398031Y0588189
Y0619685
X0465748Y0615748
X0464961Y0550787
X0575591Y0605118
X0584252Y0609842
X0594095Y0590945
X0634252Y0619291
X0653543Y0604331
X0662992Y0609842
X0698425Y0550787
X0799213Y0596457
X0811417Y0588189
Y0619685
X0805512Y0627165
X0811417Y0651181
Y0658661
X0799213Y0676772
X0799606Y0682677
X0796457Y0687795
X0809055Y0690158
X0747244Y0688583
X0727953Y0688976
X071063Y0681102
Y0702362
X0691339Y0676378
X0687008Y0671654
X0686221Y0662205
X067874Y0665354
X0673228Y0681102
X0666535Y0682677
Y0695276
X065315Y0691732
X0651968Y0698819
X0653937Y0712598
X0646063Y0709842
X0629921Y0712598
X0625984Y0704724
X0635039Y0695669
X0624803Y0687402
X0617323Y0686614
X0613779Y0680709
X0612598Y0649606
Y064252
X0627085Y0635746
X0626378Y0627559
X0659055Y064252
X066063Y0653937
X0659055Y0660236
X065315Y0682283
X0646457Y0740551
X0640551Y0742126
X0619291Y0733465
X0693701Y0653937
X0686221Y0646457
X0681102Y0638976
X0712205Y0639764
X0727953Y064252
X0727559Y0624016
X0698032Y0623622
X0718504Y0656693
X0600787Y0666535
X0592913Y0667323
X059685Y0671654
X058937Y0662598
X0584252Y065748
X0591339Y0635827
X0553543Y0630315
X0548425Y0678346
X0552362Y0695276
X0584646Y0691732
X0586221Y0684646
X0597244Y0696063
X0598819Y0738189
X0584646Y073189
X0550394Y0740945
X0525591Y0738976
X0496457Y0736614
X0505512Y0700787
X0456299Y0679921
X0464567Y0659842
X0442126Y0664961
X0398031Y0658661
Y0651181
X0392126Y0627165
X0385827Y0676772
X0386221Y0682677
X0383071Y0687795
X0395669Y0690158
X0333858Y0688583
X0314567Y0688976
X0297244Y0681102
Y0702362
X0305118Y0656693
X0298819Y0639764
X0314567Y064252
X0314173Y0624016
X0284646Y0623622
X0267717Y0638976
X0272835Y0646457
X0280315Y0653937
X0272835Y0662205
X0273622Y0671654
X0277953Y0676378
X0259842Y0681102
X025315Y0682677
Y0695276
X0239764Y0691732
X0238583Y0698819
X0240551Y0712598
X0232677Y0709842
X0216535Y0712598
X0212598Y0704724
X0221654Y0695669
X0211417Y0687402
X0203937Y0686614
X0200394Y0680709
X0183465Y0671654
X0179528Y0667323
X0175984Y0662598
X0170866Y065748
X0187402Y0666535
X0199213Y0649606
Y064252
X0213699Y0635746
X0212992Y0627559
X0177953Y0635827
X0140157Y0630315
X0172835Y0684646
X017126Y0691732
X0183858Y0696063
X0185433Y0738189
X017126Y073189
X0205906Y0733465
X0227165Y0742126
X0233071Y0740551
X0239764Y0682283
X0245669Y0660236
X0247244Y0653937
X0245669Y064252
X0265354Y0665354
X0135039Y0678346
X0138976Y0695276
X0137008Y0740945
X0112205Y0738976
X0083071Y0736614
X0092126Y0700787
X0042913Y0679921
X0051181Y0659842
X002874Y0664961
T02
X0715748Y0329134
X0723622
X0731496
X073937
X0511417Y0345669
X0325984Y0329134
X031811
X0310236
X0302362
X0098032Y0345669
X0715748Y0722835
X0723622
X0731496
X073937
X0511417Y073937
X0325984Y0722835
X031811
X0310236
X0302362
X0098032Y073937
T03
X0808079Y0129969
Y014485
X0462579Y010835
Y0093468
X0394693Y0129969
Y014485
X0049193Y010835
Y0093468
Y0487169
Y0502051
X0394693Y0523669
Y0538551
X0462579Y0502051
Y0487169
X0808079Y0523669
Y0538551
T04
X016063Y018752
Y019752
X0574016
Y018752
X016063Y058122
Y0591221
X0574016
Y058122
T05
X0618898Y0142913
X0658268
X0244882
X0205512
X0029921Y0162244
Y0172244
Y0182244
Y0192244
Y0202244
Y0212244
Y0222244
Y0232244
X0205512Y0201969
Y0182283
Y0162598
X0244882
Y0182283
Y0201969
X0337402Y0205709
Y0195866
X0357087
Y0205709
Y0215551
Y0225394
X0337402
Y0215551
Y0248228
Y0258071
Y0267913
Y0277756
X0357087
Y0267913
Y0258071
Y0248228
X0443307Y0232244
Y0222244
Y0212244
Y0202244
Y0192244
Y0182244
Y0172244
Y0162244
X0618898Y0162598
Y0182283
Y0201969
X0658268
Y0182283
Y0162598
X0750787Y0195866
Y0205709
Y0215551
Y0225394
Y0248228
Y0258071
Y0267913
Y0277756
X0770472
Y0267913
Y0258071
Y0248228
Y0225394
Y0215551
Y0205709
Y0195866
X0680397Y0357303
X0670397
X0660397
X0650397
X0640397
X0630397
X0620397
X0610397
X0267011
X0257012
X0247011
X0237012
X0227011
X0217011
X0207012
X0197011
X0029921Y0555945
Y0565945
Y0575945
Y0585945
Y0595945
Y0605945
Y0615945
X0205512Y0595669
Y0575984
Y0556299
Y0536614
X0244882
Y0556299
Y0575984
Y0595669
X0337402Y0599409
Y0589567
X0357087
Y0599409
Y0609252
Y0619095
X0337402
Y0609252
X0443307Y0605945
Y0595945
Y0585945
Y0575945
Y0565945
Y0555945
Y0615945
X0618898Y0595669
Y0575984
Y0556299
Y0536614
X0658268
Y0556299
Y0575984
Y0595669
X0750787Y0599409
Y0589567
Y0609252
Y0619095
X0770472
Y0609252
Y0599409
Y0589567
Y0641929
Y0651772
Y0661614
Y0671457
X0750787
Y0661614
Y0651772
Y0641929
X0680397Y0751004
X0670397
X0660397
X0650397
X0640397
X0630397
X0620397
X0610397
X0443307Y0625945
X0357087Y0641929
Y0651772
Y0661614
Y0671457
X0337402
Y0661614
Y0651772
Y0641929
X0267011Y0751004
X0257012
X0247011
X0237012
X0227011
X0217011
X0207012
X0197011
X0029921Y0625945
T06
X0051575Y0288583
Y0298583
Y0308583
X0145472Y0308465
X0171063
X0314567Y0307716
X037874Y0277716
Y0267717
Y025748
Y024748
X0464961Y0288583
Y0298583
Y0308583
X0558858Y0308465
X0584449
X0727953Y0307716
X0792126Y0277716
Y0267717
Y025748
Y024748
X0805118Y0319528
Y0329528
X0785236Y0331299
Y0349016
X0759646
Y0331299
X0727953Y0317717
X0584449Y0326181
X0558858
X0525512Y0375984
X0515512
X0505512
X0464961Y0318583
X0391732Y0319528
Y0329528
X037185Y0331299
Y0349016
X034626
Y0331299
X0314567Y0317717
X0171063Y0326181
X0145472
X0112126Y0375984
X0102126
X0092126
X0051575Y0318583
X0792126Y0641181
Y0651181
Y0661417
Y0671417
X0805118Y0713228
Y0723228
X0785236Y0725
Y0742717
X0759646
Y0725
X0727953Y0711417
Y0701417
X0584449Y0702165
Y0719882
X0558858
Y0702165
X0464961Y0702283
Y0692283
Y0682283
Y0712284
X0505512Y0769685
X0515512
X0525512
X0391732Y0723228
Y0713228
X037185Y0725
Y0742717
X034626
Y0725
X0314567Y0711417
Y0701417
X037874Y0671417
Y0661417
Y0651181
Y0641181
X0171063Y0702165
Y0719882
X0145472
Y0702165
X0051575Y0702283
Y0692283
Y0682283
Y0712284
X0092126Y0769685
X0102126
X0112126
T07
X076439Y0018087
Y0037772
Y0057457
X0808079Y006548
Y0045638
Y0085323
X0764567Y0124016
Y0143701
X0744882
Y0124016
X0744705Y0057457
Y0037772
Y0018087
X0526378Y0018898
X0506693
Y0038583
X0526378
Y0058268
X0506693
X0462579Y0048823
Y002898
Y0009138
X0506693Y0123622
X0526378
Y0143307
X0506693
X0351181Y0143701
X0331496
Y0124016
X0351181
X0351004Y0057457
X0331319
Y0037772
X0351004
Y0018087
X0331319
X0394693Y0045638
Y006548
Y0085323
X0112992Y0058268
Y0038583
Y0018898
X0093307
Y0038583
Y0058268
X0049193Y0048823
Y002898
Y0009138
X0093307Y0123622
X0112992
Y0143307
X0093307
Y0162992
X0112992
X0331496Y0163386
X0351181
X0506693Y0162992
X0526378
X0744882Y0163386
X0764567
X076439Y0411787
Y0431472
Y0451158
X0808079Y0459181
Y0439339
X0744705Y0431472
Y0451158
Y0411787
X0526378Y0412598
X0506693
Y0432283
X0526378
Y0451968
X0506693
X0462579Y0442524
Y0422681
Y0402839
X0394693Y0439339
Y0459181
X0351004Y0451158
X0331319
Y0431472
X0351004
Y0411787
X0331319
X0112992Y0412598
X0093307
Y0432283
X0112992
Y0451968
X0093307
X0049193Y0442524
Y0422681
Y0402839
X0093307Y0517323
X0112992
Y0537008
X0093307
Y0556693
X0112992
X0331496Y0557087
X0351181
Y0537402
X0331496
Y0517717
X0351181
X0394693Y0479024
X0506693Y0517323
X0526378
Y0537008
X0506693
Y0556693
X0526378
X0744882Y0557087
Y0537402
Y0517717
X0764567
Y0537402
Y0557087
X0808079Y0479024
T08
X-0015748Y-0015748
X084252Y080315
T09
X0811614Y001752
X0428543
X0398228
X0015157
X0811614Y0376181
Y0411221
X0428543
X0398228
Y0376181
X0428543
X0015157
Y0411221
X0811614Y0769882
X0428543
X0398228
X0015157
M30
