%FSLAX25Y25*%
%MOIN*%
G70*
G01*
G75*
G04 Layer_Color=32768*
%ADD10C,0.06299*%
D10*
X160319Y359646D02*
Y362598D01*
Y378346D02*
Y381299D01*
X152445Y378346D02*
X168193D01*
Y362598D02*
Y378346D01*
X152445Y362598D02*
Y378346D01*
Y362598D02*
X168193D01*
X304019Y378346D02*
Y381299D01*
Y359646D02*
Y362598D01*
X296145D02*
X311893D01*
X296145D02*
Y378346D01*
X311893Y362598D02*
Y378346D01*
X296145D02*
X311893D01*
X29528Y74803D02*
X32480D01*
X10827D02*
X13780D01*
Y66929D02*
Y82677D01*
X29528D01*
X13780Y66929D02*
X29528D01*
Y82677D01*
X10827Y318898D02*
X13780D01*
X29528D02*
X32480D01*
X29528Y311024D02*
Y326772D01*
X13780Y311024D02*
X29528D01*
X13780Y326772D02*
X29528D01*
X13780Y311024D02*
Y326772D01*
X573704Y359646D02*
Y362598D01*
Y378346D02*
Y381299D01*
X565830Y378346D02*
X581578D01*
Y362598D02*
Y378346D01*
X565830Y362598D02*
Y378346D01*
Y362598D02*
X581578D01*
X717405Y378346D02*
Y381299D01*
Y359646D02*
Y362598D01*
X709531D02*
X725279D01*
X709531D02*
Y378346D01*
X725279Y362598D02*
Y378346D01*
X709531D02*
X725279D01*
X442913Y74803D02*
X445866D01*
X424213D02*
X427165D01*
Y66929D02*
Y82677D01*
X442913D01*
X427165Y66929D02*
X442913D01*
Y82677D01*
X424213Y318898D02*
X427165D01*
X442913D02*
X445866D01*
X442913Y311024D02*
Y326772D01*
X427165Y311024D02*
X442913D01*
X427165Y326772D02*
X442913D01*
X427165Y311024D02*
Y326772D01*
X160319Y753346D02*
Y756299D01*
Y772047D02*
Y775000D01*
X152445Y772047D02*
X168193D01*
Y756299D02*
Y772047D01*
X152445Y756299D02*
Y772047D01*
Y756299D02*
X168193D01*
X304019Y772047D02*
Y775000D01*
Y753346D02*
Y756299D01*
X296145D02*
X311893D01*
X296145D02*
Y772047D01*
X311893Y756299D02*
Y772047D01*
X296145D02*
X311893D01*
X29528Y468504D02*
X32480D01*
X10827D02*
X13780D01*
Y460630D02*
Y476378D01*
X29528D01*
X13780Y460630D02*
X29528D01*
Y476378D01*
X10827Y712598D02*
X13780D01*
X29528D02*
X32480D01*
X29528Y704724D02*
Y720472D01*
X13780Y704724D02*
X29528D01*
X13780Y720472D02*
X29528D01*
X13780Y704724D02*
Y720472D01*
X573704Y753346D02*
Y756299D01*
Y772047D02*
Y775000D01*
X565830Y772047D02*
X581578D01*
Y756299D02*
Y772047D01*
X565830Y756299D02*
Y772047D01*
Y756299D02*
X581578D01*
X717405Y772047D02*
Y775000D01*
Y753346D02*
Y756299D01*
X709531D02*
X725279D01*
X709531D02*
Y772047D01*
X725279Y756299D02*
Y772047D01*
X709531D02*
X725279D01*
X442913Y468504D02*
X445866D01*
X424213D02*
X427165D01*
Y460630D02*
Y476378D01*
X442913D01*
X427165Y460630D02*
X442913D01*
Y476378D01*
X424213Y712598D02*
X427165D01*
X442913D02*
X445866D01*
X442913Y704724D02*
Y720472D01*
X427165Y704724D02*
X442913D01*
X427165Y720472D02*
X442913D01*
X427165Y704724D02*
Y720472D01*
M02*
