%FSLAX25Y25*%
%MOIN*%
G70*
G01*
G75*
G04 Layer_Color=30550*
%ADD10C,0.00787*%
%ADD11C,0.01000*%
%ADD12C,0.05906*%
%ADD13R,0.05000X0.05000*%
%ADD14R,0.03543X0.03543*%
%ADD15R,0.05000X0.08000*%
%ADD16R,0.07000X0.07000*%
%ADD17R,0.13780X0.07000*%
%ADD18R,0.38400X0.48000*%
%ADD19R,0.11800X0.06300*%
%ADD20R,0.24400X0.22800*%
%ADD21R,0.07087X0.06693*%
%ADD22R,0.22047X0.09055*%
%ADD23R,0.05000X0.03600*%
%ADD24R,0.03600X0.03600*%
%ADD25R,0.05000X0.05000*%
%ADD26O,0.07600X0.02400*%
%ADD27R,0.07600X0.02400*%
%ADD28O,0.04724X0.02362*%
%ADD29R,0.04724X0.02362*%
%ADD30R,0.10000X0.10000*%
%ADD31R,0.01181X0.05512*%
%ADD32R,0.05512X0.01181*%
%ADD33R,0.07000X0.06000*%
%ADD34R,0.08661X0.05512*%
%ADD35O,0.02400X0.07600*%
%ADD36R,0.02400X0.07600*%
%ADD37R,0.03600X0.05000*%
%ADD38R,0.03600X0.03600*%
%ADD39R,0.06693X0.07087*%
%ADD40R,0.07000X0.07000*%
%ADD41R,0.03543X0.03543*%
%ADD42R,0.10000X0.10000*%
%ADD43R,0.05906X0.05906*%
%ADD44R,0.05906X0.05906*%
%ADD45C,0.00984*%
%ADD46C,0.01969*%
%ADD47C,0.05906*%
%ADD48C,0.03937*%
%ADD49C,0.01575*%
%ADD50C,0.00800*%
%ADD51C,0.08268*%
%ADD52C,0.08000*%
%ADD53C,0.25197*%
%ADD54C,0.07000*%
%ADD55C,0.07087*%
%ADD56R,0.07087X0.07087*%
%ADD57O,0.09843X0.07874*%
%ADD58C,0.05906*%
%ADD59C,0.09843*%
%ADD60C,0.07874*%
%ADD61R,0.07087X0.07087*%
%ADD62C,0.05000*%
%ADD63C,0.06000*%
%ADD64C,0.04331*%
%ADD65C,0.02000*%
%ADD66C,0.01600*%
%ADD67C,0.11811*%
%ADD68R,0.05800X0.05800*%
%ADD69R,0.04343X0.04343*%
%ADD70R,0.05800X0.08800*%
%ADD71R,0.07800X0.07800*%
%ADD72R,0.14579X0.07800*%
%ADD73R,0.39200X0.48800*%
%ADD74R,0.12600X0.07100*%
%ADD75R,0.25200X0.23600*%
%ADD76R,0.07887X0.07493*%
%ADD77R,0.22847X0.09855*%
%ADD78R,0.05800X0.04400*%
%ADD79R,0.04400X0.04400*%
%ADD80R,0.05800X0.05800*%
%ADD81O,0.08400X0.03200*%
%ADD82R,0.08400X0.03200*%
%ADD83O,0.05524X0.03162*%
%ADD84R,0.05524X0.03162*%
%ADD85R,0.10800X0.10800*%
%ADD86R,0.01981X0.06312*%
%ADD87R,0.06312X0.01981*%
%ADD88R,0.07800X0.06800*%
%ADD89R,0.09461X0.06312*%
%ADD90O,0.03200X0.08400*%
%ADD91R,0.03200X0.08400*%
%ADD92R,0.04400X0.05800*%
%ADD93R,0.04400X0.04400*%
%ADD94R,0.07493X0.07887*%
%ADD95R,0.07800X0.07800*%
%ADD96R,0.04343X0.04343*%
%ADD97R,0.10800X0.10800*%
%ADD98R,0.06706X0.06706*%
%ADD99R,0.11811X0.11811*%
%ADD100C,0.09068*%
%ADD101C,0.08800*%
%ADD102C,0.25997*%
%ADD103C,0.07800*%
%ADD104C,0.07887*%
%ADD105R,0.07887X0.07887*%
%ADD106O,0.10642X0.08674*%
%ADD107C,0.06706*%
%ADD108C,0.10642*%
%ADD109C,0.08674*%
%ADD110R,0.07887X0.07887*%
%ADD111C,0.05800*%
%ADD112C,0.06800*%
%ADD113C,0.05131*%
%ADD114C,0.00600*%
D10*
X-31496Y-31496D02*
X858268D01*
Y818898D01*
X-31496D02*
X858268D01*
X-31496Y-31496D02*
Y818898D01*
X157169Y359449D02*
G03*
X163468Y359449I3150J0D01*
G01*
X149295Y362598D02*
G03*
X152445Y359449I3150J0D01*
G01*
X168193Y359449D02*
G03*
X171342Y362598I0J3150D01*
G01*
X171342Y378346D02*
G03*
X168193Y381496I-3150J0D01*
G01*
X152445Y381496D02*
G03*
X149295Y378346I0J-3150D01*
G01*
X163468Y381496D02*
G03*
X157169Y381496I-3150J0D01*
G01*
X307169D02*
G03*
X300870Y381496I-3150J0D01*
G01*
X315043Y378346D02*
G03*
X311893Y381496I-3150J0D01*
G01*
X296145Y381496D02*
G03*
X292996Y378346I0J-3150D01*
G01*
X292996Y362598D02*
G03*
X296145Y359449I3150J0D01*
G01*
X311893Y359449D02*
G03*
X315043Y362598I0J3150D01*
G01*
X300870Y359449D02*
G03*
X307169Y359449I3150J0D01*
G01*
X32677Y71653D02*
G03*
X32677Y77953I0J3150D01*
G01*
X29528Y63779D02*
G03*
X32677Y66929I0J3150D01*
G01*
X32677Y82677D02*
G03*
X29528Y85827I-3150J0D01*
G01*
X13780Y85827D02*
G03*
X10630Y82677I0J-3150D01*
G01*
X10630Y66929D02*
G03*
X13780Y63779I3150J0D01*
G01*
X10630Y77953D02*
G03*
X10630Y71653I0J-3150D01*
G01*
Y322047D02*
G03*
X10630Y315748I0J-3150D01*
G01*
X13780Y329921D02*
G03*
X10630Y326772I0J-3150D01*
G01*
X10630Y311024D02*
G03*
X13780Y307874I3150J0D01*
G01*
X29528Y307874D02*
G03*
X32677Y311024I0J3150D01*
G01*
X32677Y326772D02*
G03*
X29528Y329921I-3150J0D01*
G01*
X32677Y315748D02*
G03*
X32677Y322047I0J3150D01*
G01*
X149295Y362598D02*
Y378346D01*
X152445Y381496D02*
X157169D01*
X163468Y381496D02*
X168193D01*
X171342Y362598D02*
Y378346D01*
X152445Y359449D02*
X157169D01*
X163468Y359449D02*
X168193D01*
X315043Y362598D02*
Y378346D01*
X307169Y359449D02*
X311893D01*
X296145Y359449D02*
X300870D01*
X292996Y362598D02*
Y378346D01*
X307169Y381496D02*
X311893D01*
X296145Y381496D02*
X300870D01*
X13780Y63779D02*
X29528D01*
X10630Y66929D02*
Y71653D01*
X10630Y77953D02*
Y82677D01*
X13780Y85827D02*
X29528D01*
X32677Y66929D02*
Y71653D01*
X32677Y77953D02*
Y82677D01*
X13780Y329921D02*
X29528D01*
X32677Y322047D02*
Y326772D01*
X32677Y311024D02*
Y315748D01*
X13780Y307874D02*
X29528D01*
X10630Y322047D02*
Y326772D01*
X10630Y311024D02*
Y315748D01*
X570555Y359449D02*
G03*
X576854Y359449I3150J0D01*
G01*
X562681Y362598D02*
G03*
X565830Y359449I3150J0D01*
G01*
X581578Y359449D02*
G03*
X584728Y362598I0J3150D01*
G01*
X584728Y378346D02*
G03*
X581578Y381496I-3150J0D01*
G01*
X565830Y381496D02*
G03*
X562681Y378346I0J-3150D01*
G01*
X576854Y381496D02*
G03*
X570555Y381496I-3150J0D01*
G01*
X720555D02*
G03*
X714256Y381496I-3150J0D01*
G01*
X728429Y378346D02*
G03*
X725279Y381496I-3150J0D01*
G01*
X709531Y381496D02*
G03*
X706382Y378346I0J-3150D01*
G01*
X706382Y362598D02*
G03*
X709531Y359449I3150J0D01*
G01*
X725279Y359449D02*
G03*
X728429Y362598I0J3150D01*
G01*
X714256Y359449D02*
G03*
X720555Y359449I3150J0D01*
G01*
X446063Y71653D02*
G03*
X446063Y77953I0J3150D01*
G01*
X442913Y63779D02*
G03*
X446063Y66929I0J3150D01*
G01*
X446063Y82677D02*
G03*
X442913Y85827I-3150J0D01*
G01*
X427165Y85827D02*
G03*
X424016Y82677I0J-3150D01*
G01*
X424016Y66929D02*
G03*
X427165Y63779I3150J0D01*
G01*
X424016Y77953D02*
G03*
X424016Y71653I0J-3150D01*
G01*
Y322047D02*
G03*
X424016Y315748I0J-3150D01*
G01*
X427165Y329921D02*
G03*
X424016Y326772I0J-3150D01*
G01*
X424016Y311024D02*
G03*
X427165Y307874I3150J0D01*
G01*
X442913Y307874D02*
G03*
X446063Y311024I0J3150D01*
G01*
X446063Y326772D02*
G03*
X442913Y329921I-3150J0D01*
G01*
X446063Y315748D02*
G03*
X446063Y322047I0J3150D01*
G01*
X562681Y362598D02*
Y378346D01*
X565830Y381496D02*
X570555D01*
X576854Y381496D02*
X581578D01*
X584728Y362598D02*
Y378346D01*
X565830Y359449D02*
X570555D01*
X576854Y359449D02*
X581578D01*
X728429Y362598D02*
Y378346D01*
X720555Y359449D02*
X725279D01*
X709531Y359449D02*
X714256D01*
X706382Y362598D02*
Y378346D01*
X720555Y381496D02*
X725279D01*
X709531Y381496D02*
X714256D01*
X427165Y63779D02*
X442913D01*
X424016Y66929D02*
Y71653D01*
X424016Y77953D02*
Y82677D01*
X427165Y85827D02*
X442913D01*
X446063Y66929D02*
Y71653D01*
X446063Y77953D02*
Y82677D01*
X427165Y329921D02*
X442913D01*
X446063Y322047D02*
Y326772D01*
X446063Y311024D02*
Y315748D01*
X427165Y307874D02*
X442913D01*
X424016Y322047D02*
Y326772D01*
X424016Y311024D02*
Y315748D01*
X157169Y753150D02*
G03*
X163468Y753150I3150J0D01*
G01*
X149295Y756299D02*
G03*
X152445Y753150I3150J0D01*
G01*
X168193Y753150D02*
G03*
X171342Y756299I0J3150D01*
G01*
X171342Y772047D02*
G03*
X168193Y775197I-3150J0D01*
G01*
X152445Y775197D02*
G03*
X149295Y772047I0J-3150D01*
G01*
X163468Y775197D02*
G03*
X157169Y775197I-3150J0D01*
G01*
X307169D02*
G03*
X300870Y775197I-3150J0D01*
G01*
X315043Y772047D02*
G03*
X311893Y775197I-3150J0D01*
G01*
X296145Y775197D02*
G03*
X292996Y772047I0J-3150D01*
G01*
X292996Y756299D02*
G03*
X296145Y753150I3150J0D01*
G01*
X311893Y753150D02*
G03*
X315043Y756299I0J3150D01*
G01*
X300870Y753150D02*
G03*
X307169Y753150I3150J0D01*
G01*
X32677Y465354D02*
G03*
X32677Y471654I0J3150D01*
G01*
X29528Y457480D02*
G03*
X32677Y460630I0J3150D01*
G01*
X32677Y476378D02*
G03*
X29528Y479528I-3150J0D01*
G01*
X13780Y479528D02*
G03*
X10630Y476378I0J-3150D01*
G01*
X10630Y460630D02*
G03*
X13780Y457480I3150J0D01*
G01*
X10630Y471654D02*
G03*
X10630Y465354I0J-3150D01*
G01*
Y715748D02*
G03*
X10630Y709449I0J-3150D01*
G01*
X13780Y723622D02*
G03*
X10630Y720472I0J-3150D01*
G01*
X10630Y704724D02*
G03*
X13780Y701575I3150J0D01*
G01*
X29528Y701575D02*
G03*
X32677Y704724I0J3150D01*
G01*
X32677Y720472D02*
G03*
X29528Y723622I-3150J0D01*
G01*
X32677Y709449D02*
G03*
X32677Y715748I0J3150D01*
G01*
X149295Y756299D02*
Y772047D01*
X152445Y775197D02*
X157169D01*
X163468Y775197D02*
X168193D01*
X171342Y756299D02*
Y772047D01*
X152445Y753150D02*
X157169D01*
X163468Y753150D02*
X168193D01*
X315043Y756299D02*
Y772047D01*
X307169Y753150D02*
X311893D01*
X296145Y753150D02*
X300870D01*
X292996Y756299D02*
Y772047D01*
X307169Y775197D02*
X311893D01*
X296145Y775197D02*
X300870D01*
X13780Y457480D02*
X29528D01*
X10630Y460630D02*
Y465354D01*
X10630Y471654D02*
Y476378D01*
X13780Y479528D02*
X29528D01*
X32677Y460630D02*
Y465354D01*
X32677Y471654D02*
Y476378D01*
X13780Y723622D02*
X29528D01*
X32677Y715748D02*
Y720472D01*
X32677Y704724D02*
Y709449D01*
X13780Y701575D02*
X29528D01*
X10630Y715748D02*
Y720472D01*
X10630Y704724D02*
Y709449D01*
X570555Y753150D02*
G03*
X576854Y753150I3150J0D01*
G01*
X562681Y756299D02*
G03*
X565830Y753150I3150J0D01*
G01*
X581578Y753150D02*
G03*
X584728Y756299I0J3150D01*
G01*
X584728Y772047D02*
G03*
X581578Y775197I-3150J0D01*
G01*
X565830Y775197D02*
G03*
X562681Y772047I0J-3150D01*
G01*
X576854Y775197D02*
G03*
X570555Y775197I-3150J0D01*
G01*
X720555D02*
G03*
X714256Y775197I-3150J0D01*
G01*
X728429Y772047D02*
G03*
X725279Y775197I-3150J0D01*
G01*
X709531Y775197D02*
G03*
X706382Y772047I0J-3150D01*
G01*
X706382Y756299D02*
G03*
X709531Y753150I3150J0D01*
G01*
X725279Y753150D02*
G03*
X728429Y756299I0J3150D01*
G01*
X714256Y753150D02*
G03*
X720555Y753150I3150J0D01*
G01*
X446063Y465354D02*
G03*
X446063Y471654I0J3150D01*
G01*
X442913Y457480D02*
G03*
X446063Y460630I0J3150D01*
G01*
X446063Y476378D02*
G03*
X442913Y479528I-3150J0D01*
G01*
X427165Y479528D02*
G03*
X424016Y476378I0J-3150D01*
G01*
X424016Y460630D02*
G03*
X427165Y457480I3150J0D01*
G01*
X424016Y471654D02*
G03*
X424016Y465354I0J-3150D01*
G01*
Y715748D02*
G03*
X424016Y709449I0J-3150D01*
G01*
X427165Y723622D02*
G03*
X424016Y720472I0J-3150D01*
G01*
X424016Y704724D02*
G03*
X427165Y701575I3150J0D01*
G01*
X442913Y701575D02*
G03*
X446063Y704724I0J3150D01*
G01*
X446063Y720472D02*
G03*
X442913Y723622I-3150J0D01*
G01*
X446063Y709449D02*
G03*
X446063Y715748I0J3150D01*
G01*
X562681Y756299D02*
Y772047D01*
X565830Y775197D02*
X570555D01*
X576854Y775197D02*
X581578D01*
X584728Y756299D02*
Y772047D01*
X565830Y753150D02*
X570555D01*
X576854Y753150D02*
X581578D01*
X728429Y756299D02*
Y772047D01*
X720555Y753150D02*
X725279D01*
X709531Y753150D02*
X714256D01*
X706382Y756299D02*
Y772047D01*
X720555Y775197D02*
X725279D01*
X709531Y775197D02*
X714256D01*
X427165Y457480D02*
X442913D01*
X424016Y460630D02*
Y465354D01*
X424016Y471654D02*
Y476378D01*
X427165Y479528D02*
X442913D01*
X446063Y460630D02*
Y465354D01*
X446063Y471654D02*
Y476378D01*
X427165Y723622D02*
X442913D01*
X446063Y715748D02*
Y720472D01*
X446063Y704724D02*
Y709449D01*
X427165Y701575D02*
X442913D01*
X424016Y715748D02*
Y720472D01*
X424016Y704724D02*
Y709449D01*
D11*
X858268Y-44307D02*
Y-32890D01*
X-31496Y-44307D02*
Y-32890D01*
X430380Y-43307D02*
X858268D01*
X-31496D02*
X393191D01*
X852268Y-41307D02*
X858268Y-43307D01*
X852268Y-45307D02*
X858268Y-43307D01*
X-31496D02*
X-25496Y-45307D01*
X-31496Y-43307D02*
X-25496Y-41307D01*
X859661Y818898D02*
X875016D01*
X859661Y-31496D02*
X875016D01*
X874016Y410195D02*
Y818898D01*
Y-31496D02*
Y374006D01*
X872016Y812898D02*
X874016Y818898D01*
X876016Y812898D01*
X874016Y-31496D02*
X876016Y-25496D01*
X872016D02*
X874016Y-31496D01*
X374000Y287402D02*
X381677D01*
X374000Y393701D02*
X411886D01*
X375000Y287402D02*
Y323356D01*
Y354547D02*
Y393701D01*
Y287402D02*
X377000Y293402D01*
X373000D02*
X375000Y287402D01*
X373000Y387701D02*
X375000Y393701D01*
X377000Y387701D01*
X374000Y255906D02*
X381087D01*
X374000Y287402D02*
X381677D01*
X375000Y255906D02*
Y267888D01*
Y285519D02*
Y287402D01*
Y255906D02*
X377000Y261906D01*
X373000D02*
X375000Y255906D01*
X373000Y281402D02*
X375000Y287402D01*
X377000Y281402D01*
X413386Y-12811D02*
Y-1500D01*
X0Y-12811D02*
Y-1500D01*
X223188Y-11811D02*
X413386D01*
X0D02*
X186998D01*
X407386Y-9811D02*
X413386Y-11811D01*
X407386Y-13811D02*
X413386Y-11811D01*
X0D02*
X6000Y-13811D01*
X0Y-11811D02*
X6000Y-9811D01*
X414886Y393701D02*
X429740D01*
X413386Y0D02*
X429740D01*
X428740Y213345D02*
Y393701D01*
Y0D02*
Y177156D01*
X426740Y387701D02*
X428740Y393701D01*
X430740Y387701D01*
X428740Y0D02*
X430740Y6000D01*
X426740D02*
X428740Y0D01*
X420063Y287402D02*
X422228D01*
X412227Y376181D02*
X422063D01*
X421063Y287402D02*
Y314596D01*
Y345787D02*
Y376181D01*
Y287402D02*
X423063Y293402D01*
X419063D02*
X421063Y287402D01*
X419063Y370181D02*
X421063Y376181D01*
X423063Y370181D01*
X787386Y287402D02*
X795063D01*
X787386Y393701D02*
X825272D01*
X788386Y287402D02*
Y323356D01*
Y354547D02*
Y393701D01*
Y287402D02*
X790386Y293402D01*
X786386D02*
X788386Y287402D01*
X786386Y387701D02*
X788386Y393701D01*
X790386Y387701D01*
X787386Y255906D02*
X794472D01*
X787386Y287402D02*
X795063D01*
X788386Y255906D02*
Y267888D01*
Y285519D02*
Y287402D01*
Y255906D02*
X790386Y261906D01*
X786386D02*
X788386Y255906D01*
X786386Y281402D02*
X788386Y287402D01*
X790386Y281402D01*
X826772Y-12811D02*
Y-1500D01*
X413386Y-12811D02*
Y-1500D01*
X636573Y-11811D02*
X826772D01*
X413386D02*
X600384D01*
X820772Y-9811D02*
X826772Y-11811D01*
X820772Y-13811D02*
X826772Y-11811D01*
X413386D02*
X419386Y-13811D01*
X413386Y-11811D02*
X419386Y-9811D01*
X828272Y393701D02*
X843126D01*
X826772Y0D02*
X843126D01*
X842126Y213345D02*
Y393701D01*
Y0D02*
Y177156D01*
X840126Y387701D02*
X842126Y393701D01*
X844126Y387701D01*
X842126Y0D02*
X844126Y6000D01*
X840126D02*
X842126Y0D01*
X833449Y287402D02*
X835614D01*
X825613Y376181D02*
X835449D01*
X834449Y287402D02*
Y314596D01*
Y345787D02*
Y376181D01*
Y287402D02*
X836449Y293402D01*
X832449D02*
X834449Y287402D01*
X832449Y370181D02*
X834449Y376181D01*
X836449Y370181D01*
X374000Y681102D02*
X381677D01*
X374000Y787402D02*
X411886D01*
X375000Y681102D02*
Y717057D01*
Y748247D02*
Y787402D01*
Y681102D02*
X377000Y687102D01*
X373000D02*
X375000Y681102D01*
X373000Y781402D02*
X375000Y787402D01*
X377000Y781402D01*
X374000Y649606D02*
X381087D01*
X374000Y681102D02*
X381677D01*
X375000Y649606D02*
Y661589D01*
Y679220D02*
Y681102D01*
Y649606D02*
X377000Y655606D01*
X373000D02*
X375000Y649606D01*
X373000Y675102D02*
X375000Y681102D01*
X377000Y675102D01*
X413386Y380890D02*
Y392201D01*
X0Y380890D02*
Y392201D01*
X223188Y381890D02*
X413386D01*
X0D02*
X186998D01*
X407386Y383890D02*
X413386Y381890D01*
X407386Y379890D02*
X413386Y381890D01*
X0D02*
X6000Y379890D01*
X0Y381890D02*
X6000Y383890D01*
X414886Y787402D02*
X429740D01*
X413386Y393701D02*
X429740D01*
X428740Y607046D02*
Y787402D01*
Y393701D02*
Y570857D01*
X426740Y781402D02*
X428740Y787402D01*
X430740Y781402D01*
X428740Y393701D02*
X430740Y399701D01*
X426740D02*
X428740Y393701D01*
X420063Y681102D02*
X422228D01*
X412227Y769882D02*
X422063D01*
X421063Y681102D02*
Y708297D01*
Y739488D02*
Y769882D01*
Y681102D02*
X423063Y687102D01*
X419063D02*
X421063Y681102D01*
X419063Y763882D02*
X421063Y769882D01*
X423063Y763882D01*
X787386Y681102D02*
X795063D01*
X787386Y787402D02*
X825272D01*
X788386Y681102D02*
Y717057D01*
Y748247D02*
Y787402D01*
Y681102D02*
X790386Y687102D01*
X786386D02*
X788386Y681102D01*
X786386Y781402D02*
X788386Y787402D01*
X790386Y781402D01*
X787386Y649606D02*
X794472D01*
X787386Y681102D02*
X795063D01*
X788386Y649606D02*
Y661589D01*
Y679220D02*
Y681102D01*
Y649606D02*
X790386Y655606D01*
X786386D02*
X788386Y649606D01*
X786386Y675102D02*
X788386Y681102D01*
X790386Y675102D01*
X826772Y380890D02*
Y392201D01*
X413386Y380890D02*
Y392201D01*
X636573Y381890D02*
X826772D01*
X413386D02*
X600384D01*
X820772Y383890D02*
X826772Y381890D01*
X820772Y379890D02*
X826772Y381890D01*
X413386D02*
X419386Y379890D01*
X413386Y381890D02*
X419386Y383890D01*
X828272Y787402D02*
X843126D01*
X826772Y393701D02*
X843126D01*
X842126Y607046D02*
Y787402D01*
Y393701D02*
Y570857D01*
X840126Y781402D02*
X842126Y787402D01*
X844126Y781402D01*
X842126Y393701D02*
X844126Y399701D01*
X840126D02*
X842126Y393701D01*
X833449Y681102D02*
X835614D01*
X825613Y769882D02*
X835449D01*
X834449Y681102D02*
Y708297D01*
Y739488D02*
Y769882D01*
Y681102D02*
X836449Y687102D01*
X832449D02*
X834449Y681102D01*
X832449Y763882D02*
X834449Y769882D01*
X836449Y763882D01*
X0Y0D02*
Y393701D01*
X413386D01*
Y0D02*
Y393701D01*
X0Y0D02*
X413386D01*
X413386D02*
Y393701D01*
X826772D01*
Y0D02*
Y393701D01*
X413386Y0D02*
X826772D01*
X0Y393701D02*
Y787402D01*
X413386D01*
Y393701D02*
Y787402D01*
X0Y393701D02*
X413386D01*
X413386D02*
Y787402D01*
X826772D01*
Y393701D02*
Y787402D01*
X413386Y393701D02*
X826772D01*
D114*
X398790Y-47906D02*
X394791D01*
X398790Y-43907D01*
Y-42907D01*
X397790Y-41908D01*
X395791D01*
X394791Y-42907D01*
X404788Y-47906D02*
X400789D01*
X404788Y-43907D01*
Y-42907D01*
X403788Y-41908D01*
X401789D01*
X400789Y-42907D01*
X410786Y-41908D02*
X408787Y-42907D01*
X406787Y-44907D01*
Y-46906D01*
X407787Y-47906D01*
X409787D01*
X410786Y-46906D01*
Y-45906D01*
X409787Y-44907D01*
X406787D01*
X413785Y-48906D02*
X414785Y-47906D01*
Y-46906D01*
X413785D01*
Y-47906D01*
X414785D01*
X413785Y-48906D01*
X412785Y-49905D01*
X418784Y-42907D02*
X419783Y-41908D01*
X421783D01*
X422782Y-42907D01*
Y-46906D01*
X421783Y-47906D01*
X419783D01*
X418784Y-46906D01*
Y-42907D01*
X424782D02*
X425781Y-41908D01*
X427781D01*
X428780Y-42907D01*
Y-46906D01*
X427781Y-47906D01*
X425781D01*
X424782Y-46906D01*
Y-42907D01*
X878615Y379605D02*
Y375606D01*
X874616Y379605D01*
X873616D01*
X872616Y378605D01*
Y376606D01*
X873616Y375606D01*
X878615Y381604D02*
Y383604D01*
Y382604D01*
X872616D01*
X873616Y381604D01*
X872616Y390601D02*
X873616Y388602D01*
X875615Y386603D01*
X877615D01*
X878615Y387602D01*
Y389602D01*
X877615Y390601D01*
X876615D01*
X875615Y389602D01*
Y386603D01*
X879614Y393600D02*
X878615Y394600D01*
X877615D01*
Y393600D01*
X878615D01*
Y394600D01*
X879614Y393600D01*
X880614Y392601D01*
X873616Y398599D02*
X872616Y399598D01*
Y401598D01*
X873616Y402597D01*
X877615D01*
X878615Y401598D01*
Y399598D01*
X877615Y398599D01*
X873616D01*
Y404597D02*
X872616Y405596D01*
Y407596D01*
X873616Y408595D01*
X877615D01*
X878615Y407596D01*
Y405596D01*
X877615Y404597D01*
X873616D01*
X379599Y328954D02*
Y324956D01*
X375600Y328954D01*
X374600D01*
X373601Y327955D01*
Y325955D01*
X374600Y324956D01*
X373601Y330954D02*
Y334952D01*
X374600D01*
X378599Y330954D01*
X379599D01*
X380598Y337951D02*
X379599Y338951D01*
X378599D01*
Y337951D01*
X379599D01*
Y338951D01*
X380598Y337951D01*
X381598Y336952D01*
X374600Y342950D02*
X373601Y343950D01*
Y345949D01*
X374600Y346949D01*
X378599D01*
X379599Y345949D01*
Y343950D01*
X378599Y342950D01*
X374600D01*
Y348948D02*
X373601Y349948D01*
Y351947D01*
X374600Y352947D01*
X378599D01*
X379599Y351947D01*
Y349948D01*
X378599Y348948D01*
X374600D01*
X369358Y269488D02*
X368702Y270144D01*
Y271456D01*
X369358Y272112D01*
X370014D01*
X370670Y271456D01*
X371326Y272112D01*
X371982D01*
X372638Y271456D01*
Y270144D01*
X371982Y269488D01*
X371326D01*
X370670Y270144D01*
X370014Y269488D01*
X369358D01*
X370670Y270144D02*
Y271456D01*
X373294Y274080D02*
X372638Y274736D01*
X371982D01*
Y274080D01*
X372638D01*
Y274736D01*
X373294Y274080D01*
X373950Y273424D01*
X369358Y277360D02*
X368702Y278016D01*
Y279328D01*
X369358Y279983D01*
X371982D01*
X372638Y279328D01*
Y278016D01*
X371982Y277360D01*
X369358D01*
Y281295D02*
X368702Y281951D01*
Y283263D01*
X369358Y283919D01*
X371982D01*
X372638Y283263D01*
Y281951D01*
X371982Y281295D01*
X369358D01*
X188598Y-16410D02*
X190598D01*
X189598D01*
Y-10412D01*
X188598Y-11411D01*
X193597D02*
X194596Y-10412D01*
X196596D01*
X197595Y-11411D01*
Y-15410D01*
X196596Y-16410D01*
X194596D01*
X193597Y-15410D01*
Y-11411D01*
X203593Y-10412D02*
X199595D01*
Y-13411D01*
X201594Y-12411D01*
X202594D01*
X203593Y-13411D01*
Y-15410D01*
X202594Y-16410D01*
X200594D01*
X199595Y-15410D01*
X206592Y-17409D02*
X207592Y-16410D01*
Y-15410D01*
X206592D01*
Y-16410D01*
X207592D01*
X206592Y-17409D01*
X205593Y-18409D01*
X211591Y-11411D02*
X212591Y-10412D01*
X214590D01*
X215589Y-11411D01*
Y-15410D01*
X214590Y-16410D01*
X212591D01*
X211591Y-15410D01*
Y-11411D01*
X217589D02*
X218588Y-10412D01*
X220588D01*
X221588Y-11411D01*
Y-15410D01*
X220588Y-16410D01*
X218588D01*
X217589Y-15410D01*
Y-11411D01*
X433339Y178756D02*
Y180755D01*
Y179755D01*
X427341D01*
X428340Y178756D01*
Y183754D02*
X427341Y184754D01*
Y186753D01*
X428340Y187753D01*
X432339D01*
X433339Y186753D01*
Y184754D01*
X432339Y183754D01*
X428340D01*
Y189752D02*
X427341Y190752D01*
Y192751D01*
X428340Y193751D01*
X432339D01*
X433339Y192751D01*
Y190752D01*
X432339Y189752D01*
X428340D01*
X434339Y196750D02*
X433339Y197750D01*
X432339D01*
Y196750D01*
X433339D01*
Y197750D01*
X434339Y196750D01*
X435338Y195750D01*
X428340Y201748D02*
X427341Y202748D01*
Y204747D01*
X428340Y205747D01*
X432339D01*
X433339Y204747D01*
Y202748D01*
X432339Y201748D01*
X428340D01*
Y207746D02*
X427341Y208746D01*
Y210745D01*
X428340Y211745D01*
X432339D01*
X433339Y210745D01*
Y208746D01*
X432339Y207746D01*
X428340D01*
X425662Y320195D02*
Y316196D01*
X421663Y320195D01*
X420663D01*
X419664Y319195D01*
Y317196D01*
X420663Y316196D01*
X425662Y326193D02*
Y322194D01*
X421663Y326193D01*
X420663D01*
X419664Y325193D01*
Y323194D01*
X420663Y322194D01*
X426661Y329192D02*
X425662Y330191D01*
X424662D01*
Y329192D01*
X425662D01*
Y330191D01*
X426661Y329192D01*
X427661Y328192D01*
X419664Y338189D02*
Y334190D01*
X422663D01*
X421663Y336189D01*
Y337189D01*
X422663Y338189D01*
X424662D01*
X425662Y337189D01*
Y335190D01*
X424662Y334190D01*
X419664Y344187D02*
Y340188D01*
X422663D01*
X421663Y342187D01*
Y343187D01*
X422663Y344187D01*
X424662D01*
X425662Y343187D01*
Y341188D01*
X424662Y340188D01*
X792984Y328954D02*
Y324956D01*
X788986Y328954D01*
X787986D01*
X786986Y327955D01*
Y325955D01*
X787986Y324956D01*
X786986Y330954D02*
Y334952D01*
X787986D01*
X791985Y330954D01*
X792984D01*
X793984Y337951D02*
X792984Y338951D01*
X791985D01*
Y337951D01*
X792984D01*
Y338951D01*
X793984Y337951D01*
X794984Y336952D01*
X787986Y342950D02*
X786986Y343950D01*
Y345949D01*
X787986Y346949D01*
X791985D01*
X792984Y345949D01*
Y343950D01*
X791985Y342950D01*
X787986D01*
Y348948D02*
X786986Y349948D01*
Y351947D01*
X787986Y352947D01*
X791985D01*
X792984Y351947D01*
Y349948D01*
X791985Y348948D01*
X787986D01*
X782744Y269488D02*
X782088Y270144D01*
Y271456D01*
X782744Y272112D01*
X783400D01*
X784056Y271456D01*
X784712Y272112D01*
X785368D01*
X786024Y271456D01*
Y270144D01*
X785368Y269488D01*
X784712D01*
X784056Y270144D01*
X783400Y269488D01*
X782744D01*
X784056Y270144D02*
Y271456D01*
X786680Y274080D02*
X786024Y274736D01*
X785368D01*
Y274080D01*
X786024D01*
Y274736D01*
X786680Y274080D01*
X787335Y273424D01*
X782744Y277360D02*
X782088Y278016D01*
Y279328D01*
X782744Y279983D01*
X785368D01*
X786024Y279328D01*
Y278016D01*
X785368Y277360D01*
X782744D01*
Y281295D02*
X782088Y281951D01*
Y283263D01*
X782744Y283919D01*
X785368D01*
X786024Y283263D01*
Y281951D01*
X785368Y281295D01*
X782744D01*
X601984Y-16410D02*
X603983D01*
X602984D01*
Y-10412D01*
X601984Y-11411D01*
X606982D02*
X607982Y-10412D01*
X609981D01*
X610981Y-11411D01*
Y-15410D01*
X609981Y-16410D01*
X607982D01*
X606982Y-15410D01*
Y-11411D01*
X616979Y-10412D02*
X612981D01*
Y-13411D01*
X614980Y-12411D01*
X615979D01*
X616979Y-13411D01*
Y-15410D01*
X615979Y-16410D01*
X613980D01*
X612981Y-15410D01*
X619978Y-17409D02*
X620978Y-16410D01*
Y-15410D01*
X619978D01*
Y-16410D01*
X620978D01*
X619978Y-17409D01*
X618979Y-18409D01*
X624977Y-11411D02*
X625976Y-10412D01*
X627976D01*
X628975Y-11411D01*
Y-15410D01*
X627976Y-16410D01*
X625976D01*
X624977Y-15410D01*
Y-11411D01*
X630975D02*
X631974Y-10412D01*
X633974D01*
X634973Y-11411D01*
Y-15410D01*
X633974Y-16410D01*
X631974D01*
X630975Y-15410D01*
Y-11411D01*
X846725Y178756D02*
Y180755D01*
Y179755D01*
X840727D01*
X841726Y178756D01*
Y183754D02*
X840727Y184754D01*
Y186753D01*
X841726Y187753D01*
X845725D01*
X846725Y186753D01*
Y184754D01*
X845725Y183754D01*
X841726D01*
Y189752D02*
X840727Y190752D01*
Y192751D01*
X841726Y193751D01*
X845725D01*
X846725Y192751D01*
Y190752D01*
X845725Y189752D01*
X841726D01*
X847724Y196750D02*
X846725Y197750D01*
X845725D01*
Y196750D01*
X846725D01*
Y197750D01*
X847724Y196750D01*
X848724Y195750D01*
X841726Y201748D02*
X840727Y202748D01*
Y204747D01*
X841726Y205747D01*
X845725D01*
X846725Y204747D01*
Y202748D01*
X845725Y201748D01*
X841726D01*
Y207746D02*
X840727Y208746D01*
Y210745D01*
X841726Y211745D01*
X845725D01*
X846725Y210745D01*
Y208746D01*
X845725Y207746D01*
X841726D01*
X839048Y320195D02*
Y316196D01*
X835049Y320195D01*
X834049D01*
X833049Y319195D01*
Y317196D01*
X834049Y316196D01*
X839048Y326193D02*
Y322194D01*
X835049Y326193D01*
X834049D01*
X833049Y325193D01*
Y323194D01*
X834049Y322194D01*
X840047Y329192D02*
X839048Y330191D01*
X838048D01*
Y329192D01*
X839048D01*
Y330191D01*
X840047Y329192D01*
X841047Y328192D01*
X833049Y338189D02*
Y334190D01*
X836049D01*
X835049Y336189D01*
Y337189D01*
X836049Y338189D01*
X838048D01*
X839048Y337189D01*
Y335190D01*
X838048Y334190D01*
X833049Y344187D02*
Y340188D01*
X836049D01*
X835049Y342187D01*
Y343187D01*
X836049Y344187D01*
X838048D01*
X839048Y343187D01*
Y341188D01*
X838048Y340188D01*
X379599Y722655D02*
Y718656D01*
X375600Y722655D01*
X374600D01*
X373601Y721656D01*
Y719656D01*
X374600Y718656D01*
X373601Y724655D02*
Y728653D01*
X374600D01*
X378599Y724655D01*
X379599D01*
X380598Y731652D02*
X379599Y732652D01*
X378599D01*
Y731652D01*
X379599D01*
Y732652D01*
X380598Y731652D01*
X381598Y730653D01*
X374600Y736651D02*
X373601Y737650D01*
Y739650D01*
X374600Y740649D01*
X378599D01*
X379599Y739650D01*
Y737650D01*
X378599Y736651D01*
X374600D01*
Y742649D02*
X373601Y743648D01*
Y745648D01*
X374600Y746647D01*
X378599D01*
X379599Y745648D01*
Y743648D01*
X378599Y742649D01*
X374600D01*
X369358Y663189D02*
X368702Y663845D01*
Y665157D01*
X369358Y665813D01*
X370014D01*
X370670Y665157D01*
X371326Y665813D01*
X371982D01*
X372638Y665157D01*
Y663845D01*
X371982Y663189D01*
X371326D01*
X370670Y663845D01*
X370014Y663189D01*
X369358D01*
X370670Y663845D02*
Y665157D01*
X373294Y667781D02*
X372638Y668437D01*
X371982D01*
Y667781D01*
X372638D01*
Y668437D01*
X373294Y667781D01*
X373950Y667125D01*
X369358Y671061D02*
X368702Y671716D01*
Y673028D01*
X369358Y673684D01*
X371982D01*
X372638Y673028D01*
Y671716D01*
X371982Y671061D01*
X369358D01*
Y674996D02*
X368702Y675652D01*
Y676964D01*
X369358Y677620D01*
X371982D01*
X372638Y676964D01*
Y675652D01*
X371982Y674996D01*
X369358D01*
X188598Y377291D02*
X190598D01*
X189598D01*
Y383289D01*
X188598Y382289D01*
X193597D02*
X194596Y383289D01*
X196596D01*
X197595Y382289D01*
Y378291D01*
X196596Y377291D01*
X194596D01*
X193597Y378291D01*
Y382289D01*
X203593Y383289D02*
X199595D01*
Y380290D01*
X201594Y381290D01*
X202594D01*
X203593Y380290D01*
Y378291D01*
X202594Y377291D01*
X200594D01*
X199595Y378291D01*
X206592Y376291D02*
X207592Y377291D01*
Y378291D01*
X206592D01*
Y377291D01*
X207592D01*
X206592Y376291D01*
X205593Y375292D01*
X211591Y382289D02*
X212591Y383289D01*
X214590D01*
X215589Y382289D01*
Y378291D01*
X214590Y377291D01*
X212591D01*
X211591Y378291D01*
Y382289D01*
X217589D02*
X218588Y383289D01*
X220588D01*
X221588Y382289D01*
Y378291D01*
X220588Y377291D01*
X218588D01*
X217589Y378291D01*
Y382289D01*
X433339Y572457D02*
Y574456D01*
Y573456D01*
X427341D01*
X428340Y572457D01*
Y577455D02*
X427341Y578455D01*
Y580454D01*
X428340Y581454D01*
X432339D01*
X433339Y580454D01*
Y578455D01*
X432339Y577455D01*
X428340D01*
Y583453D02*
X427341Y584453D01*
Y586452D01*
X428340Y587452D01*
X432339D01*
X433339Y586452D01*
Y584453D01*
X432339Y583453D01*
X428340D01*
X434339Y590451D02*
X433339Y591450D01*
X432339D01*
Y590451D01*
X433339D01*
Y591450D01*
X434339Y590451D01*
X435338Y589451D01*
X428340Y595449D02*
X427341Y596449D01*
Y598448D01*
X428340Y599448D01*
X432339D01*
X433339Y598448D01*
Y596449D01*
X432339Y595449D01*
X428340D01*
Y601447D02*
X427341Y602447D01*
Y604446D01*
X428340Y605446D01*
X432339D01*
X433339Y604446D01*
Y602447D01*
X432339Y601447D01*
X428340D01*
X425662Y713895D02*
Y709897D01*
X421663Y713895D01*
X420663D01*
X419664Y712896D01*
Y710896D01*
X420663Y709897D01*
X425662Y719893D02*
Y715895D01*
X421663Y719893D01*
X420663D01*
X419664Y718894D01*
Y716894D01*
X420663Y715895D01*
X426661Y722893D02*
X425662Y723892D01*
X424662D01*
Y722893D01*
X425662D01*
Y723892D01*
X426661Y722893D01*
X427661Y721893D01*
X419664Y731889D02*
Y727891D01*
X422663D01*
X421663Y729890D01*
Y730890D01*
X422663Y731889D01*
X424662D01*
X425662Y730890D01*
Y728891D01*
X424662Y727891D01*
X419664Y737888D02*
Y733889D01*
X422663D01*
X421663Y735888D01*
Y736888D01*
X422663Y737888D01*
X424662D01*
X425662Y736888D01*
Y734889D01*
X424662Y733889D01*
X792984Y722655D02*
Y718656D01*
X788986Y722655D01*
X787986D01*
X786986Y721656D01*
Y719656D01*
X787986Y718656D01*
X786986Y724655D02*
Y728653D01*
X787986D01*
X791985Y724655D01*
X792984D01*
X793984Y731652D02*
X792984Y732652D01*
X791985D01*
Y731652D01*
X792984D01*
Y732652D01*
X793984Y731652D01*
X794984Y730653D01*
X787986Y736651D02*
X786986Y737650D01*
Y739650D01*
X787986Y740649D01*
X791985D01*
X792984Y739650D01*
Y737650D01*
X791985Y736651D01*
X787986D01*
Y742649D02*
X786986Y743648D01*
Y745648D01*
X787986Y746647D01*
X791985D01*
X792984Y745648D01*
Y743648D01*
X791985Y742649D01*
X787986D01*
X782744Y663189D02*
X782088Y663845D01*
Y665157D01*
X782744Y665813D01*
X783400D01*
X784056Y665157D01*
X784712Y665813D01*
X785368D01*
X786024Y665157D01*
Y663845D01*
X785368Y663189D01*
X784712D01*
X784056Y663845D01*
X783400Y663189D01*
X782744D01*
X784056Y663845D02*
Y665157D01*
X786680Y667781D02*
X786024Y668437D01*
X785368D01*
Y667781D01*
X786024D01*
Y668437D01*
X786680Y667781D01*
X787335Y667125D01*
X782744Y671061D02*
X782088Y671716D01*
Y673028D01*
X782744Y673684D01*
X785368D01*
X786024Y673028D01*
Y671716D01*
X785368Y671061D01*
X782744D01*
Y674996D02*
X782088Y675652D01*
Y676964D01*
X782744Y677620D01*
X785368D01*
X786024Y676964D01*
Y675652D01*
X785368Y674996D01*
X782744D01*
X601984Y377291D02*
X603983D01*
X602984D01*
Y383289D01*
X601984Y382289D01*
X606982D02*
X607982Y383289D01*
X609981D01*
X610981Y382289D01*
Y378291D01*
X609981Y377291D01*
X607982D01*
X606982Y378291D01*
Y382289D01*
X616979Y383289D02*
X612981D01*
Y380290D01*
X614980Y381290D01*
X615979D01*
X616979Y380290D01*
Y378291D01*
X615979Y377291D01*
X613980D01*
X612981Y378291D01*
X619978Y376291D02*
X620978Y377291D01*
Y378291D01*
X619978D01*
Y377291D01*
X620978D01*
X619978Y376291D01*
X618979Y375292D01*
X624977Y382289D02*
X625976Y383289D01*
X627976D01*
X628975Y382289D01*
Y378291D01*
X627976Y377291D01*
X625976D01*
X624977Y378291D01*
Y382289D01*
X630975D02*
X631974Y383289D01*
X633974D01*
X634973Y382289D01*
Y378291D01*
X633974Y377291D01*
X631974D01*
X630975Y378291D01*
Y382289D01*
X846725Y572457D02*
Y574456D01*
Y573456D01*
X840727D01*
X841726Y572457D01*
Y577455D02*
X840727Y578455D01*
Y580454D01*
X841726Y581454D01*
X845725D01*
X846725Y580454D01*
Y578455D01*
X845725Y577455D01*
X841726D01*
Y583453D02*
X840727Y584453D01*
Y586452D01*
X841726Y587452D01*
X845725D01*
X846725Y586452D01*
Y584453D01*
X845725Y583453D01*
X841726D01*
X847724Y590451D02*
X846725Y591450D01*
X845725D01*
Y590451D01*
X846725D01*
Y591450D01*
X847724Y590451D01*
X848724Y589451D01*
X841726Y595449D02*
X840727Y596449D01*
Y598448D01*
X841726Y599448D01*
X845725D01*
X846725Y598448D01*
Y596449D01*
X845725Y595449D01*
X841726D01*
Y601447D02*
X840727Y602447D01*
Y604446D01*
X841726Y605446D01*
X845725D01*
X846725Y604446D01*
Y602447D01*
X845725Y601447D01*
X841726D01*
X839048Y713895D02*
Y709897D01*
X835049Y713895D01*
X834049D01*
X833049Y712896D01*
Y710896D01*
X834049Y709897D01*
X839048Y719893D02*
Y715895D01*
X835049Y719893D01*
X834049D01*
X833049Y718894D01*
Y716894D01*
X834049Y715895D01*
X840047Y722893D02*
X839048Y723892D01*
X838048D01*
Y722893D01*
X839048D01*
Y723892D01*
X840047Y722893D01*
X841047Y721893D01*
X833049Y731889D02*
Y727891D01*
X836049D01*
X835049Y729890D01*
Y730890D01*
X836049Y731889D01*
X838048D01*
X839048Y730890D01*
Y728891D01*
X838048Y727891D01*
X833049Y737888D02*
Y733889D01*
X836049D01*
X835049Y735888D01*
Y736888D01*
X836049Y737888D01*
X838048D01*
X839048Y736888D01*
Y734889D01*
X838048Y733889D01*
M02*
